/* XPM */
static char *_72044f15406485ce9f5dcdfc8e33d5eGU13BYws867Y2gVt[] = {
/* columns rows colors chars-per-pixel */
"64 64 138 2 ",
"   c #000B1E",
".  c #502A16",
"X  c #512C18",
"o  c #592F1B",
"O  c #4E3A1A",
"+  c #503219",
"@  c #5D321D",
"#  c #503F1C",
"$  c #4F342F",
"%  c #523323",
"&  c #5B3627",
"*  c #623A25",
"=  c #2E7A29",
"-  c #367026",
";  c #327628",
":  c #317A29",
">  c #3C792A",
",  c #4D451D",
"<  c #4A491D",
"1  c #50401D",
"2  c #614628",
"3  c #7D402A",
"4  c #7D512C",
"5  c #764531",
"6  c #7F4533",
"7  c #794A36",
"8  c #7E513C",
"9  c #4C712A",
"0  c #467A2B",
"q  c #56732E",
"w  c #5A772C",
"e  c #497C30",
"r  c #567D35",
"t  c #65762D",
"y  c #6A7F3C",
"u  c #6E695F",
"i  c #86442D",
"p  c #834A2D",
"a  c #8F4C32",
"s  c #924F35",
"d  c #8E533B",
"f  c #915137",
"g  c #9E6D34",
"h  c #927A35",
"j  c #9D7937",
"k  c #B47F2B",
"l  c #A16D34",
"z  c #AD6A36",
"x  c #B36E35",
"c  c #A27437",
"v  c #B77034",
"b  c #B87233",
"n  c #B4703F",
"m  c #CE7E2E",
"M  c #D17F2E",
"N  c #815640",
"B  c #866B52",
"V  c #896C52",
"C  c #926C52",
"Z  c #996F56",
"A  c #8D7257",
"S  c #8F7459",
"D  c #AD7A46",
"F  c #B57141",
"G  c #B97647",
"H  c #BD7A4B",
"J  c #A67457",
"K  c #A47659",
"L  c #A77A5D",
"P  c #A97D5F",
"I  c #816F61",
"U  c #AA7E61",
"Y  c #2D822C",
"T  c #31832D",
"R  c #338A30",
"E  c #3B9636",
"W  c #399A37",
"Q  c #3B9D38",
"!  c #3BA13A",
"~  c #4A8D3C",
"^  c #54833E",
"/  c #459837",
"(  c #479F3A",
")  c #519438",
"_  c #6D803D",
"`  c #568B41",
"'  c #789156",
"]  c #7F935A",
"[  c #4FA343",
"{  c #5BA549",
"}  c #74A34B",
"|  c #7CAC5D",
" . c #938037",
".. c #C4802B",
"X. c #D6822C",
"o. c #D9863F",
"O. c #BD885C",
"+. c #80AC5E",
"@. c #84AE61",
"#. c #89AF64",
"$. c #91B169",
"%. c #A2B674",
"&. c #DB8A45",
"*. c #DA9557",
"=. c #D59558",
"-. c #DC9759",
";. c #DC995B",
":. c #D48B69",
">. c #DE916C",
",. c #DF9975",
"<. c #E19265",
"1. c #E3956C",
"2. c #E69873",
"3. c #E89B75",
"4. c #CFA06F",
"5. c #E4A479",
"6. c #EBA47C",
"7. c #E3AC7A",
"8. c #EEA87F",
"9. c #F2A77A",
"0. c #F3A97B",
"q. c #D6BA94",
"w. c #F5AD82",
"e. c #F8AF84",
"r. c #F8B186",
"t. c #F7B58A",
"y. c #E8C194",
"u. c #E0C59D",
"i. c #EAC598",
"p. c #E2CC9D",
"a. c #E6CCA0",
"s. c #ECCDA2",
"d. c #F0CDA2",
"f. c #EFD1A6",
"g. c #F6DDBD",
"h. c #F8E3C4",
"j. c #FDEBCE",
"k. c #FFF2D5",
/* pixels */
"f.f.f.f.f.f.f.f.f.f.f.f.f.f.f.f.f.f.f.f.f.f.f.f.f.f.f.a.#.#.#.#.#.#.#.#.#.#.#.#.#.#.#.%.f.f.f.f.f.f.f.f.f.f.f.f.f.f.f.f.f.f.f.f.",
"f.f.f.f.f.f.f.f.f.f.f.f.f.f.f.f.f.f.f.f.f.f.f.f.f.f.f.p.! ! ! ! ! ! ! ! ! ! ! ! ! ! ! | f.f.f.f.f.f.f.f.f.f.f.f.f.f.f.f.f.f.f.f.",
"f.f.f.f.f.f.f.f.f.f.f.f.f.f.f.f.f.f.f.f.f.f.f.f.f.f.f.p.! ! ! ! ! ! ! ! ! ! ! ! ! ! ! | f.f.f.f.f.f.f.f.f.f.f.f.f.f.f.f.f.f.f.f.",
"f.f.f.f.f.f.f.f.f.f.f.f.f.f.f.f.f.f.f.f.f.f.f.f.f.f.f.p.! ! ! ! ! ! ! ! ! ! ! ! ! ! ! | f.f.f.f.f.f.f.f.f.f.f.f.f.f.f.f.f.f.f.f.",
"f.f.f.f.f.f.f.f.f.f.f.f.f.f.f.s.;.;.;.;.;.;.;.;.;.;.;.=.j j j  .! ! ! ! ! ! ! ! ! ! ! [ @.@.@.@.@.@.@.%.f.f.f.f.f.f.f.f.f.f.f.f.",
"f.f.f.f.f.f.f.f.f.f.f.f.f.f.f.s.X.X.X.X.X.X.X.X.X.X.X.M z z z c ! ! ! ! ! ! ! ! ! ! ! ! ! ! ! ! ! ! ! +.f.f.f.f.f.f.f.f.f.f.f.f.",
"f.f.f.f.f.f.f.f.f.f.f.f.f.f.f.s.X.X.X.X.X.X.X.X.X.X.X.M z z z c ! ! ! ! ! ! ! ! ! ! ! ! ! ! ! ! ! ! ! +.f.f.f.f.f.f.f.f.f.f.f.f.",
"f.f.f.f.f.f.f.f.f.f.f.f.f.f.f.s.X.X.X.X.X.X.X.X.X.X.X.M z z z c ! ! ! ! ! ! ! ! ! ! ! ! ! ! ! ! ! ! ! +.f.f.f.f.f.f.f.f.f.f.f.f.",
"f.f.f.f.f.f.f.f.f.f.f.s.-.-.-.*.x v v v v v v v v v v x z z z z j j j h T T T T T T T R ! ! ! Q T T T ~ +.+.+.%.f.f.f.f.f.f.f.f.",
"f.f.f.f.f.f.f.f.f.f.f.s.X.X.X.X.z z z z z z z z z z z z z z z z z z z l = = = = = = = T ! ! ! W = = = T ! ! ! @.f.f.f.f.f.f.f.f.",
"f.f.f.f.f.f.f.f.f.f.f.s.X.X.X.X.z z z z z z z z z z z z z z z z z z z l = = = = = = = T ! ! ! W = = = T ! ! ! @.f.f.f.f.f.f.f.f.",
"f.f.f.f.f.f.f.f.f.f.f.s.X.X.X.X.z z z z z z z z z z z z z z z z z z z l = = = = = = = T ! ! ! W = = = T ! ! ! @.f.f.f.f.f.f.f.f.",
"f.f.f.f.f.f.f.f.f.f.f.f.i.i.i.y.z z z x m m m m m m m m z z z z z z z z g g g D 5.5.5.4.T T T T = = = T ! ! ! [ | | | %.f.f.f.f.",
"f.f.f.f.f.f.f.f.f.f.f.f.f.f.f.s.z z z x X.X.X.X.X.X.X.M z z z z z z z z z z z H e.e.e.5.= = = = = = = T ! ! ! ! ! ! ! @.f.f.f.f.",
"f.f.f.f.f.f.f.f.f.f.f.f.f.f.f.s.z z z x X.X.X.X.X.X.X.M z z z z z z z z z z z H e.e.e.5.= = = = = = = T ! ! ! ! ! ! ! @.f.f.f.f.",
"f.f.f.f.f.f.f.f.f.f.f.f.f.f.f.s.z z z x X.X.X.X.X.X.X.M z z z z z z z z z z z H e.e.e.5.= = = = = = = T ! ! ! ! ! ! ! @.f.f.f.f.",
"f.f.f.f.J J J K f.f.f.f.f.f.f.s.>.>.>.,.h.h.h.g.1.1.1.<.m m m m z z z G 6.6.6.8.e.e.e.6.......k = = = = T T T R ! ! ! @.f.f.f.f.",
"f.f.f.f.a a a f f.f.f.f.f.f.f.s.2.2.2.6.k.k.k.j.2.2.2.1.X.X.X.M z z z H e.e.e.e.e.e.e.9.X.X.X...= = = = = = = T ! ! ! @.f.f.f.f.",
"f.f.f.f.a a a f f.f.f.f.f.f.f.s.2.2.2.6.k.k.k.j.2.2.2.1.X.X.X.M z z z H e.e.e.e.e.e.e.9.X.X.X...= = = = = = = T ! ! ! @.f.f.f.f.",
"f.f.f.f.a a a f f.f.f.f.f.f.f.s.2.2.2.6.k.k.k.j.2.2.2.1.X.X.X.M z z z H e.e.e.e.e.e.e.9.X.X.X...= = = = = = = T ! ! ! @.f.f.f.f.",
"C C C C a a a s 6.6.6.6.t.t.t.t.w.w.w.8.u u u I 2.2.2.2.1.1.1.<.M M M &.e.e.e.w.3.3.3.1.x x x b ......k = = = T ! ! ! @.f.f.f.f.",
"5 5 5 5 a a a s 2.2.2.3.e.e.e.e.e.e.e.w.      $ 2.2.2.2.2.2.2.1.X.X.X.&.e.e.e.w.2.2.2.>.z z z x X.X.X...= = = T ! ! ! @.f.f.f.f.",
"5 5 5 5 a a a s 2.2.2.3.e.e.e.e.e.e.e.w.      $ 2.2.2.2.2.2.2.1.X.X.X.&.e.e.e.w.2.2.2.>.z z z x X.X.X...= = = T ! ! ! @.f.f.f.f.",
"5 5 5 5 a a a s 2.2.2.3.e.e.e.e.e.e.e.w.      $ 2.2.2.2.2.2.2.1.X.X.X.&.e.e.e.w.2.2.2.>.z z z x X.X.X...= = = T ! ! ! @.f.f.f.f.",
"5 5 5 5 a a a f s.s.s.s.d.d.d.d.e.e.e.w.6.6.6.6.w.w.w.w.w.w.w.9.X.X.X.o.3.3.3.1.F F F n z z z x X.X.X...= = = ' p.p.p.a.f.f.f.f.",
"5 5 5 5 a a a f f.f.f.f.f.f.f.s.e.e.e.e.e.e.e.e.e.e.e.e.e.e.e.0.X.X.X.o.2.2.2.>.z z z z z z z x X.X.X...= = = ] f.f.f.f.f.f.f.f.",
"5 5 5 5 a a a f f.f.f.f.f.f.f.s.e.e.e.e.e.e.e.e.e.e.e.e.e.e.e.0.X.X.X.o.2.2.2.>.z z z z z z z x X.X.X...= = = ] f.f.f.f.f.f.f.f.",
"5 5 5 5 a a a f f.f.f.f.f.f.f.s.e.e.e.e.e.e.e.e.e.e.e.e.e.e.e.0.X.X.X.o.2.2.2.>.z z z z z z z x X.X.X...= = = ] f.f.f.f.f.f.f.f.",
"5 5 5 5 a a a f f.f.f.f.f.f.f.s.3.3.3.3.e.e.e.w.3.3.3.3.3.3.3.1.x x x l r r r r 0 0 0 t z z z z x x x O.a.a.a.a.f.f.f.f.f.f.f.f.",
"5 5 5 5 a a a f f.f.f.f.f.f.f.s.2.2.2.3.e.e.e.w.2.2.2.2.2.2.2.>.z z z l = = = = = = = w z z z z z z z O.f.f.f.f.f.f.f.f.f.f.f.f.",
"5 5 5 5 a a a f f.f.f.f.f.f.f.s.2.2.2.3.e.e.e.w.2.2.2.2.2.2.2.>.z z z l = = = = = = = w z z z z z z z O.f.f.f.f.f.f.f.f.f.f.f.f.",
"5 5 5 5 a a a f f.f.f.f.f.f.f.s.2.2.2.3.e.e.e.w.2.2.2.2.2.2.2.>.z z z l = = = = = = = w z z z z z z z O.f.f.f.f.f.f.f.f.f.f.f.f.",
"5 5 5 5 a a a s r.r.r.e.d d d d * * * * * * * 2 e e e e e e e 0 > > > > = = = T Q Q Q Q ( ( ( / > > > q d d d U f.f.f.f.f.f.f.f.",
"5 5 5 5 a a a s e.e.e.w.i i i i X X X X X X X O = = = = = = = = = = = = = = = T ! ! ! ! ! ! ! W = = = 9 i i i K f.f.f.f.f.f.f.f.",
"5 5 5 5 a a a s e.e.e.w.i i i i X X X X X X X O = = = = = = = = = = = = = = = T ! ! ! ! ! ! ! W = = = 9 i i i K f.f.f.f.f.f.f.f.",
"5 5 5 5 a a a s e.e.e.w.i i i i X X X X X X X O = = = = = = = = = = = = = = = Y ! ! ! ! ! ! ! W = = = 9 i i i K f.f.f.f.f.f.f.f.",
"5 5 5 5 a a a s e.e.e.w.i i i i i i i p = = = : ! ! ! ! ! ! ! } w.w.w.w.w.w.w.w.w.w.w.7.! ! ! ) i i i i i i i i a a a P f.f.f.f.",
"5 5 5 5 a a a s e.e.e.w.i i i i i i i p = = = = ! ! ! ! ! ! ! } e.e.e.e.e.e.e.e.e.e.e.7.! ! ! ) i i i i i i i i i i i L f.f.f.f.",
"5 5 5 5 a a a s e.e.e.w.i i i i i i i p = = = = ! ! ! ! ! ! ! } e.e.e.e.e.e.e.e.e.e.e.7.! ! ! ) i i i i i i i i i i i L f.f.f.f.",
"5 5 5 5 a a a s e.e.e.w.i i i i i i i p = = = = ! ! ! ! ! ! ! } e.e.e.e.e.e.e.e.e.e.e.7.! ! ! ) i i i i i i i i i i i L f.f.f.f.",
"5 5 5 5 a a a f f.f.f.s.. X X X X X X # ! ! ! ! ! ! ! Q = = = y 2.2.2.3.e.e.e.e.e.e.e.5.X X X @ i i i i i i i i i i i L f.f.f.f.",
"5 5 5 5 a a a f f.f.f.s.. X X X X X X # ! ! ! ! ! ! ! Q = = = y 2.2.2.3.e.e.e.e.e.e.e.5.X X X @ i i i i i i i i i i i L f.f.f.f.",
"5 5 5 5 a a a f f.f.f.s.. X X X X X X # ! ! ! ! ! ! ! Q = = = y 2.2.2.3.e.e.e.e.e.e.e.5.X X X @ i i i i i i i i i i i L f.f.f.f.",
"5 5 5 5 a a a f f.f.f.s.. X X X X X X 1 ! ! ! ! ! ! ! Q = = = y 2.2.2.3.e.e.e.e.e.e.e.5.X X X @ i i i i i i i i i i i L f.f.f.f.",
"5 5 5 5 a a a f f.f.f.f.f.f.f.f.f.f.f.a.. X X , ! ! ! Q = = = = = = = y 2.2.2.2.2.2.2.:.X X X @ i i i 3 X X X X X X X A f.f.f.f.",
"5 5 5 5 a a a f f.f.f.f.f.f.f.f.f.f.f.a.X X X , ! ! ! Q = = = = = = = _ 2.2.2.2.2.2.2.:.X X X @ i i i 3 X X X X X X X A f.f.f.f.",
"5 5 5 5 a a a f f.f.f.f.f.f.f.f.f.f.f.a.X X X , ! ! ! Q = = = = = = = _ 2.2.2.2.2.2.2.:.X X X @ i i i 3 X X X X X X X A f.f.f.f.",
"7 7 7 7 a a a f f.f.f.f.f.f.f.f.f.f.f.a.X X X , ! ! ! Q : : : : : : : y 2.2.2.2.2.2.2.:.X X X @ i i i 3 X X X + % % % S f.f.f.f.",
"f.f.f.f.5 5 5 7 f.f.f.f.f.f.f.f.f.f.f.a.X X X X X X X o i i i i i i i 4 = = = = = = = - X X X X X X X , = = = ] f.f.f.f.f.f.f.f.",
"f.f.f.f.5 5 5 7 f.f.f.f.f.f.f.f.f.f.f.a.X X X X X X X @ i i i i i i i 4 = = = = = = = - X X X X X X X , = = = ] f.f.f.f.f.f.f.f.",
"f.f.f.f.5 5 5 7 f.f.f.f.f.f.f.f.f.f.f.a.X X X X X X X @ i i i i i i i 4 = = = = = = = - X X X X X X X , = = = ] f.f.f.f.f.f.f.f.",
"f.f.f.f.8 8 8 N f.f.f.f.f.f.f.f.f.f.f.a.+ + + + + + + @ i i i p p p p 4 = = = = = = = - + + + + + + + < = = = ] a.a.a.f.f.f.f.f.",
"f.f.f.f.f.f.f.f.f.f.f.f.f.f.f.f.f.f.f.a.= = = = = = = = = = = T ! ! ! ! ! ! ! W = = = = = = = = = = = T ! ! ! ! ! ! ! @.f.f.f.f.",
"f.f.f.f.f.f.f.f.f.f.f.f.f.f.f.f.f.f.f.a.= = = = = = = = = = = T ! ! ! ! ! ! ! W = = = = = = = = = = = T ! ! ! ! ! ! ! @.f.f.f.f.",
"f.f.f.f.f.f.f.f.f.f.f.f.f.f.f.f.f.f.f.a.= = = = = = = = = = = T ! ! ! ! ! ! ! W = = = = = = = = = = = T ! ! ! ! ! ! ! @.f.f.f.f.",
"f.f.f.f.f.f.f.f.f.f.f.f.f.f.f.f.f.f.f.a.^ ^ ^ ^ ^ ^ ^ ^ ^ ^ ^ ^ Q Q Q Q Q Q Q E ; ; ; ; ; ; ; > ^ ^ ^ ` { { { { { { { $.f.f.f.f.",
"f.f.f.f.f.f.f.f.f.f.f.f.f.f.f.f.f.f.f.f.f.f.f.f.f.f.f.f.f.f.f.u.X X X X X X X X X X X X X X X B f.f.f.f.f.f.f.f.f.f.f.f.f.f.f.f.",
"f.f.f.f.f.f.f.f.f.f.f.f.f.f.f.f.f.f.f.f.f.f.f.f.f.f.f.f.f.f.f.u.X X X X X X X X X X X X X X X B f.f.f.f.f.f.f.f.f.f.f.f.f.f.f.f.",
"f.f.f.f.f.f.f.f.f.f.f.f.f.f.f.f.f.f.f.f.f.f.f.f.f.f.f.f.f.f.f.u.X X X X X X X X X X X X X X X B f.f.f.f.f.f.f.f.f.f.f.f.f.f.f.f.",
"f.f.f.f.f.f.f.f.f.f.f.f.f.f.f.f.f.f.f.f.f.f.f.f.f.f.f.f.u.u.u.q.X X X X X X X X o o o o o o o V f.f.f.f.f.f.f.f.f.f.f.f.f.f.f.f.",
"f.f.f.f.f.f.f.f.f.f.f.f.f.f.f.f.f.f.f.f.f.f.f.f.f.f.f.u.X X X X X X X X X X X @ i i i i i i i K f.f.f.f.f.f.f.f.f.f.f.f.f.f.f.f.",
"f.f.f.f.f.f.f.f.f.f.f.f.f.f.f.f.f.f.f.f.f.f.f.f.f.f.f.u.X X X X X X X X X X X @ i i i i i i i K f.f.f.f.f.f.f.f.f.f.f.f.f.f.f.f.",
"f.f.f.f.f.f.f.f.f.f.f.f.f.f.f.f.f.f.f.f.f.f.f.f.f.f.f.u.X X X X X X X X X X X @ i i i i i i i K f.f.f.f.f.f.f.f.f.f.f.f.f.f.f.f.",
"u.u.u.u.u.u.u.u.u.u.u.u.u.u.u.u.u.u.u.u.u.u.u.u.u.u.u.q.% % % % % % % % % % % & 6 6 6 6 6 6 6 Z u.u.u.u.u.u.u.u.u.u.u.u.u.u.u.u."
};
