/* XPM */
static char *d419b25780c04bc6b856a0c6214debdcSrOAPe10Dl8aDaSB[] = {
/* columns rows colors chars-per-pixel */
"64 64 151 2 ",
"   c #512B18",
".  c #512C18",
"X  c #562E1A",
"o  c #592F1B",
"O  c #513119",
"+  c #5F351E",
"@  c #60321E",
"#  c #663520",
"$  c #6A3722",
"%  c #793E28",
"&  c #7D3F29",
"*  c #376F26",
"=  c #2A7A28",
"-  c #2E7A29",
";  c #2F7C2A",
":  c #357829",
">  c #3A7A29",
",  c #3F7A29",
"<  c #48521F",
"1  c #4D5722",
"2  c #784128",
"3  c #7E402A",
"4  c #7A532C",
"5  c #7A592D",
"6  c #6C4D37",
"7  c #7F4533",
"8  c #596B2A",
"9  c #467A29",
"0  c #437E34",
"q  c #467F36",
"w  c #727C2A",
"e  c #7A7C2A",
"r  c #7C7C2A",
"t  c #7B6130",
"y  c #73753D",
"u  c #725640",
"i  c #85432C",
"p  c #86442D",
"a  c #834C2E",
"s  c #894A33",
"d  c #8E533B",
"f  c #817C2A",
"g  c #857D2A",
"h  c #866C3F",
"j  c #956F33",
"k  c #9B6E33",
"l  c #947032",
"z  c #927433",
"x  c #937634",
"c  c #B57F2B",
"v  c #A76C35",
"b  c #A96B35",
"n  c #AD6A36",
"m  c #A47337",
"M  c #C37E2E",
"N  c #CA7B2F",
"B  c #CA7C2F",
"V  c #CD7D2F",
"C  c #915941",
"Z  c #935C44",
"A  c #906047",
"S  c #976249",
"D  c #8D7257",
"F  c #30802B",
"G  c #31822D",
"H  c #31842D",
"J  c #37872F",
"K  c #338930",
"L  c #348D31",
"P  c #379736",
"I  c #389937",
"U  c #3A9F39",
"Y  c #3D9C38",
"T  c #3BA13A",
"R  c #438731",
"E  c #448631",
"W  c #438932",
"Q  c #5C8039",
"!  c #439C39",
"~  c #449C39",
"^  c #459E3D",
"/  c #6E9339",
"(  c #699438",
")  c #749B37",
"_  c #54A345",
"`  c #5BA549",
"'  c #62A244",
"]  c #79AB5A",
"[  c #B6802B",
"{  c #B4812C",
"}  c #B78031",
"|  c #C2802B",
" . c #C7812C",
".. c #CA812C",
"X. c #D3802D",
"o. c #D6822C",
"O. c #859C40",
"+. c #9E8F56",
"@. c #9D965B",
"#. c #9C8164",
"$. c #A98468",
"%. c #A3886A",
"&. c #A4896A",
"*. c #B38B6C",
"=. c #B68E6E",
"-. c #B79070",
";. c #BB9473",
":. c #BB9574",
">. c #BD9776",
",. c #84AD61",
"<. c #89AF64",
"1. c #9CA16D",
"2. c #97B26D",
"3. c #9BB36F",
"4. c #9EB371",
"5. c #9EB471",
"6. c #B2BB7E",
"7. c #C28455",
"8. c #C98559",
"9. c #DA9357",
"0. c #E29457",
"q. c #ECA372",
"w. c #E2A678",
"e. c #E8A179",
"r. c #EFA779",
"t. c #E0AD7F",
"y. c #F1A778",
"u. c #F4AA7D",
"i. c #CAAB88",
"p. c #D7B58F",
"a. c #D3B690",
"s. c #D6BA93",
"d. c #DFBF97",
"f. c #F6AE83",
"g. c #F8AF84",
"h. c #F8B085",
"j. c #F3B78B",
"k. c #F6B68B",
"l. c #F5BC92",
"z. c #D9C897",
"x. c #DBC598",
"c. c #DAC998",
"v. c #DFCB9B",
"b. c #E0C098",
"n. c #E0C59D",
"m. c #F4C095",
"M. c #F1C79C",
"N. c #F1CBA0",
"B. c #F0CDA2",
"V. c #F0CFA4",
"C. c #EFD1A6",
/* pixels */
"C.C.C.C.C.C.C.C.C.C.C.C.C.C.C.C.C.C.C.v.<.<.<.<.<.<.<.<.<.<.<.<.<.<.<.<.<.<.<.<.<.<.<.6.C.C.C.C.C.C.C.C.C.C.C.C.C.C.C.C.C.C.C.C.",
"C.C.C.C.C.C.C.C.C.C.C.C.C.C.C.C.C.C.C.z.T T T T T T T T T T T T T T T T T T T T T T T 2.C.C.C.C.C.C.C.C.C.C.C.C.C.C.C.C.C.C.C.C.",
"C.C.C.C.C.C.C.C.C.C.C.C.C.C.C.C.C.C.C.z.T T T T T T T T T T T T T T T T T T T T T T T 2.C.C.C.C.C.C.C.C.C.C.C.C.C.C.C.C.C.C.C.C.",
"C.C.C.C.C.C.C.C.C.C.C.C.C.C.C.C.C.C.C.z.T T T T T T T T T T T T T T T T T T T T T T T 2.C.C.C.C.C.C.C.C.C.C.C.C.C.C.C.C.C.C.C.C.",
"C.C.C.C.C.C.C.C.C.C.C.C.C.C.C.v.,.,.,.] T T T T T T T T T T T T T T T T T T T T T T T ` ,.,.,.6.C.C.C.C.C.C.C.C.C.C.C.C.C.C.C.C.",
"C.C.C.C.C.C.C.C.C.C.C.C.C.C.C.c.T T T T T T T T T T T T T T T T T T T T T T T T T T T T T T T 3.C.C.C.C.C.C.C.C.C.C.C.C.C.C.C.C.",
"C.C.C.C.C.C.C.C.C.C.C.C.C.C.C.c.T T T T T T T T T T T T T T T T T T T T T T T T T T T T T T T 3.C.C.C.C.C.C.C.C.C.C.C.C.C.C.C.C.",
"C.C.C.C.C.C.C.C.C.C.C.C.C.C.C.c.T T T T T T T T T T T T T T T T T T T T T T T T T T T T T T T 3.C.C.C.C.C.C.C.C.C.C.C.C.C.C.C.C.",
"C.C.C.C.C.C.C.C.C.C.C.C.C.C.C.c.T T T T T T T T T T T T T T T T T T T T T T T T T T T T T T T 3.C.C.C.C.C.C.C.C.C.C.C.C.C.C.C.C.",
"C.C.C.C.C.C.C.C.C.C.C.C.C.C.C.c.T T T T T T T T T T T T T T T T T T T T T T T T T T T T T T T 3.C.C.C.C.C.C.C.C.C.C.C.C.C.C.C.C.",
"C.C.C.C.C.C.C.C.C.C.C.C.C.C.C.c.T T T T T T T T T T T T T T T T T T T T T T T T T T T T T T T 3.C.C.C.C.C.C.C.C.C.C.C.C.C.C.C.C.",
"C.C.C.C.C.C.C.C.C.C.C.C.C.C.C.c.T T T T T T T T T T T T T T T T T T T T T T T T T T T T T T T 3.C.C.C.C.C.C.C.C.C.C.C.C.C.C.C.C.",
"C.C.C.C.C.C.C.C.C.C.C.C.C.C.C.c.T T T T T T T T T T T T T T T T T T T I G G G L T T T T T T T 3.C.C.C.C.C.C.C.C.C.C.C.C.C.C.C.C.",
"C.C.C.C.C.C.C.C.C.C.C.C.C.C.C.c.T T T T T T T T T T T T T T T T T T T I - - - H T T T T T T T 3.C.C.C.C.C.C.C.C.C.C.C.C.C.C.C.C.",
"C.C.C.C.C.C.C.C.C.C.C.C.C.C.C.c.T T T T T T T T T T T T T T T T T T T I - - - H T T T T T T T 3.C.C.C.C.C.C.C.C.C.C.C.C.C.C.C.C.",
"C.C.C.C.C.C.C.C.C.C.C.C.C.C.C.c.T T T T T T T T T T T T T T T T T T T I - - - H T T T T T T T 3.C.C.C.C.C.C.C.C.C.C.C.C.C.C.C.C.",
"C.C.C.C.C.C.C.C.C.C.C.B.k.k.k.t.G G G K T T T T T T T T T T T T T T T U I I I P G G G G G G G @.k.k.k.m.C.C.C.C.C.C.C.C.C.C.C.C.",
"C.C.C.C.C.C.C.C.C.C.C.N.g.g.g.w.- - - G T T T T T T T T T T T T T T T T T T T P - - - - - - - +.g.g.g.l.C.C.C.C.C.C.C.C.C.C.C.C.",
"C.C.C.C.C.C.C.C.C.C.C.N.g.g.g.w.- - - G T T T T T T T T T T T T T T T T T T T P - - - - - - - +.g.g.g.l.C.C.C.C.C.C.C.C.C.C.C.C.",
"C.C.C.C.C.C.C.C.C.C.C.N.g.g.g.w.- - - G T T T T T T T T T T T T T T T T T T T P - - - - - - - +.g.g.g.l.C.C.C.C.C.C.C.C.C.C.C.C.",
"C.C.C.C.C.C.C.C.C.C.C.N.g.g.g.r. . . .{ G G G K T T T T T T T T T T T T T T T P - - - r  . . .9.g.g.g.l.C.C.C.C.C.C.C.C.C.C.C.C.",
"C.C.C.C.C.C.C.C.C.C.C.N.g.g.g.y.o.o.o.| - - - H T T T T T T T T T T T T T T T P - - - g o.o.o.0.g.g.g.l.C.C.C.C.C.C.C.C.C.C.C.C.",
"C.C.C.C.C.C.C.C.C.C.C.N.g.g.g.y.o.o.o.| - - - H T T T T T T T T T T T T T T T P - - - g o.o.o.0.g.g.g.l.C.C.C.C.C.C.C.C.C.C.C.C.",
"C.C.C.C.C.C.C.C.C.C.C.N.g.g.g.y.o.o.o.| - - - H T T T T T T T T T T T T T T T P - - - g o.o.o.0.g.g.g.l.C.C.C.C.C.C.C.C.C.C.C.C.",
"C.C.C.C.C.C.C.C.C.C.C.C.B.B.B.M.u.u.u.q.......M m m m x F F F K T T T T T T T ( v v v 7.u.u.u.j.B.B.B.V.C.C.C.C.C.C.C.C.C.C.C.C.",
"C.C.C.C.C.C.C.C.C.C.C.C.C.C.C.N.g.g.g.y.o.o.o.V n n n k - - - H T T T T T T T / n n n 8.g.g.g.l.C.C.C.C.C.C.C.C.C.C.C.C.C.C.C.C.",
"C.C.C.C.C.C.C.C.C.C.C.C.C.C.C.N.g.g.g.y.o.o.o.V n n n k - - - H T T T T T T T / n n n 8.g.g.g.l.C.C.C.C.C.C.C.C.C.C.C.C.C.C.C.C.",
"C.C.C.C.C.C.C.C.C.C.C.C.C.C.C.N.g.g.g.y.o.o.o.V n n n k - - - H T T T T T T T / n n n 8.g.g.g.l.C.C.C.C.C.C.C.C.C.C.C.C.C.C.C.C.",
"C.C.C.C.C.C.C.C.C.C.C.C.C.C.C.v.' ' ' O.o.o.o.o.X.X.X.B v v v v m m m z ; ; ; f X.X.X.} Q Q Q y Z Z Z :.C.C.C.C.C.C.C.C.C.C.C.C.",
"C.C.C.C.C.C.C.C.C.C.C.C.C.C.C.c.T T T ) o.o.o.o.o.o.o.V n n n n n n n j - - - f o.o.o.c - - - 8 p p p =.C.C.C.C.C.C.C.C.C.C.C.C.",
"C.C.C.C.C.C.C.C.C.C.C.C.C.C.C.c.T T T ) o.o.o.o.o.o.o.V n n n n n n n j - - - f o.o.o.c - - - 8 p p p =.C.C.C.C.C.C.C.C.C.C.C.C.",
"C.C.C.C.C.C.C.C.C.C.C.C.C.C.C.c.T T T ) o.o.o.o.o.o.o.V n n n n n n n j - - - f o.o.o.[ - - - 8 p p p =.C.C.C.C.C.C.C.C.C.C.C.C.",
"C.C.C.C.C.C.C.C.C.C.C.b.d d d d a a a 5 9 9 9 e o.o.o.o.o.o.o.o.o.o.o.N b b b l 9 9 9 , - - - 8 p p p s d d d ;.C.C.C.C.C.C.C.C.",
"C.C.C.C.C.C.C.C.C.C.C.b.p p p p p p p 4 - - - w o.o.o.o.o.o.o.o.o.o.o.V n n n j - - - - - - - 8 p p p p p p p -.C.C.C.C.C.C.C.C.",
"C.C.C.C.C.C.C.C.C.C.C.b.p p p p p p p 4 - - - w o.o.o.o.o.o.o.o.o.o.o.V n n n j - - - - - - - 8 p p p p p p p -.C.C.C.C.C.C.C.C.",
"C.C.C.C.C.C.C.C.C.C.C.b.p p p p p p p 4 - - - w o.o.o.o.o.o.o.o.o.o.o.V n n n j - - - - - - - 8 p p p p p p p -.C.C.C.C.C.C.C.C.",
"C.C.C.C.C.C.C.B.h.h.h.e.p p p p p p p t T T T I > > > > > > > > > > > > : : : J T T T T T T T E . . . $ p p p -.C.C.C.C.C.C.C.C.",
"C.C.C.C.C.C.C.N.g.g.g.e.p p p p p p p t T T T I - - - - - - - - - - - - - - - H T T T T T T T E . . . $ p p p -.C.C.C.C.C.C.C.C.",
"C.C.C.C.C.C.C.N.g.g.g.e.p p p p p p p t T T T I - - - - - - - - - - - - - - - H T T T T T T T E . . . $ p p p -.C.C.C.C.C.C.C.C.",
"C.C.C.C.C.C.C.N.g.g.g.e.p p p p p p p t T T T I - - - - - - - - - - - - - - - H T T T T T T T R . . . $ i i i =.C.C.C.C.C.C.C.C.",
"C.C.C.C.C.C.C.N.g.g.g.e.p p p 3 . . . 1 T T T T T T T T T T T T T T T T T T T T T T T W . . . . . . . %.C.C.C.C.C.C.C.C.C.C.C.C.",
"C.C.C.C.C.C.C.N.g.g.g.e.p p p 3 . . . 1 T T T T T T T T T T T T T T T T T T T T T T T W . . . . . . . %.C.C.C.C.C.C.C.C.C.C.C.C.",
"C.C.C.C.C.C.C.N.g.g.g.e.p p p 3 . . . 1 T T T T T T T T T T T T T T T T T T T T T T T W . . . . . . . %.C.C.C.C.C.C.C.C.C.C.C.C.",
"C.C.C.C.C.C.C.N.g.g.g.e.p p p 3 . . . 1 T T T T T T T T T T T T T T T T T T T T T T T W . . . . . . . %.C.C.C.C.C.C.C.C.C.C.C.C.",
"C.C.C.C.C.C.C.N.g.g.g.g.g.g.g.w.- - - *       @ p p p p p p p p p p p p p p p %       < - - - - - - - 1.C.C.C.C.C.C.C.C.C.C.C.C.",
"C.C.C.C.C.C.C.N.g.g.g.g.g.g.g.w.- - - * . . . @ p p p p p p p p p p p p p p p % . . . < - - - - - - - 1.C.C.C.C.C.C.C.C.C.C.C.C.",
"C.C.C.C.C.C.C.N.g.g.g.g.g.g.g.w.- - - * . . . @ p p p p p p p p p p p p p p p % . . . < - - - - - - - 1.C.C.C.C.C.C.C.C.C.C.C.C.",
"C.C.C.C.C.C.C.B.h.h.h.g.f.f.f.w.- - - * . . . + p p p p p p p p p p p p p p p 2 O O O < - - - - - - - 1.C.C.C.C.C.C.C.C.C.C.C.C.",
"C.C.C.C.C.C.C.C.C.C.C.x.= = = = - - - - - - - - - - - H T T T T T T T T T T T T T T T T T T T T T T T 5.C.C.C.C.C.C.C.C.C.C.C.C.",
"C.C.C.C.C.C.C.C.C.C.C.x.- - - - - - - - - - - - - - - H T T T T T T T T T T T T T T T T T T T T T T T 5.C.C.C.C.C.C.C.C.C.C.C.C.",
"C.C.C.C.C.C.C.C.C.C.C.x.- - - - - - - - - - - - - - - H T T T T T T T T T T T T T T T T T T T T T T T 5.C.C.C.C.C.C.C.C.C.C.C.C.",
"C.C.C.C.C.C.C.C.C.C.C.x.q q q 0 : : : : ; ; ; ; ; ; ; H T T T T T T T T T T T T Y Y Y Y Y Y Y Y Y Y Y 4.C.C.C.C.C.C.C.C.C.C.C.C.",
"C.C.C.C.C.C.C.C.C.C.C.C.C.C.C.d.p p p t T T T T T T T T T T T T T T T T T T T W                       %.C.C.C.C.C.C.C.C.C.C.C.C.",
"C.C.C.C.C.C.C.C.C.C.C.C.C.C.C.d.p p p t T T T T T T T T T T T T T T T T T T T W . . . . . . . . . . . %.C.C.C.C.C.C.C.C.C.C.C.C.",
"C.C.C.C.C.C.C.C.C.C.C.C.C.C.C.d.p p p t T T T T T T T T T T T T T T T T T T T W . . . . . . . . . . . %.C.C.C.C.C.C.C.C.C.C.C.C.",
"C.C.C.C.C.C.C.C.C.C.C.C.C.C.C.b.C C C h ~ ~ ~ ! Y Y Y ^ ` ` ` ` ` ` ` _ Y Y Y E . . . . X X X X X X X &.C.C.C.C.C.C.C.C.C.C.C.C.",
"C.C.C.C.C.C.C.C.C.C.C.C.C.C.C.C.C.C.C.d.p p p & . . . D C.C.C.C.C.C.C.a.. . . . . . . # p p p p p p p =.C.C.C.C.C.C.C.C.C.C.C.C.",
"C.C.C.C.C.C.C.C.C.C.C.C.C.C.C.C.C.C.C.d.p p p 3 . . . D C.C.C.C.C.C.C.a.. . . . . . . # p p p p p p p =.C.C.C.C.C.C.C.C.C.C.C.C.",
"C.C.C.C.C.C.C.C.C.C.C.C.C.C.C.C.C.C.C.d.p p p 3 . . . D C.C.C.C.C.C.C.a.. . . . . . . # p p p p p p p =.C.C.C.C.C.C.C.C.C.C.C.C.",
"C.C.C.C.C.C.C.C.C.C.C.C.C.C.C.C.C.C.C.b.S S S A u u u #.C.C.C.C.C.C.C.s.u u u 6 o o o $ p p p d S S S >.C.C.C.C.C.C.C.C.C.C.C.C.",
"C.C.C.C.C.C.C.C.C.C.C.C.C.C.C.C.C.C.C.C.C.C.C.C.C.C.C.C.C.C.C.C.C.C.C.C.C.C.C.p.p p p p p p p *.C.C.C.C.C.C.C.C.C.C.C.C.C.C.C.C.",
"C.C.C.C.C.C.C.C.C.C.C.C.C.C.C.C.C.C.C.C.C.C.C.C.C.C.C.C.C.C.C.C.C.C.C.C.C.C.C.p.p p p p p p p *.C.C.C.C.C.C.C.C.C.C.C.C.C.C.C.C.",
"C.C.C.C.C.C.C.C.C.C.C.C.C.C.C.C.C.C.C.C.C.C.C.C.C.C.C.C.C.C.C.C.C.C.C.C.C.C.C.p.p p p p p p p *.C.C.C.C.C.C.C.C.C.C.C.C.C.C.C.C.",
"n.n.n.n.n.n.n.n.n.n.n.n.n.n.n.n.n.n.n.n.n.n.n.n.n.n.n.n.n.n.n.n.n.n.n.n.n.n.n.i.7 7 7 7 7 7 7 $.n.n.n.n.n.n.n.n.n.n.n.n.n.n.n.n."
};