/* XPM */
static char *f7a8788f5f4d4ce1c7318aad9a8bce71IN1SczXwA1Y0bGmI[] = {
/* columns rows colors chars-per-pixel */
"64 64 111 2 ",
"   c #020C1B",
".  c #0A101C",
"X  c #17151E",
"o  c #1A171E",
"O  c #281E21",
"+  c #422717",
"@  c #442919",
"#  c #4B2C1B",
"$  c #43311A",
"%  c #4E372E",
"&  c #4F382F",
"*  c #523A30",
"=  c #663F2D",
"-  c #6F3F2E",
";  c #753F2A",
":  c #356E2A",
">  c #36712B",
",  c #38702B",
"<  c #37782E",
"1  c #39782E",
"2  c #5C4531",
"3  c #68422D",
"4  c #73422A",
"5  c #7E462F",
"6  c #6B4230",
"7  c #634D38",
"8  c #7E4730",
"9  c #734A35",
"0  c #7D4C30",
"q  c #69543D",
"w  c #77553F",
"e  c #7A503C",
"r  c #406F2D",
"t  c #40702D",
"y  c #556E32",
"u  c #4A7233",
"i  c #4C7D39",
"p  c #567234",
"a  c #56793D",
"s  c #7D5D45",
"d  c #5A7A40",
"f  c #7F6047",
"g  c #6D685C",
"h  c #726A5D",
"j  c #80472F",
"k  c #81482F",
"l  c #854E36",
"z  c #8A4E30",
"x  c #83533B",
"c  c #9D6334",
"v  c #A36634",
"b  c #A26A37",
"n  c #A16639",
"m  c #A26C3B",
"M  c #A86A39",
"N  c #C87B2F",
"B  c #C27932",
"V  c #C87C31",
"C  c #C47C3A",
"Z  c #8B5C42",
"A  c #8F6248",
"S  c #93674B",
"D  c #8C6E53",
"F  c #996F52",
"G  c #A36E42",
"H  c #46953A",
"J  c #4E933A",
"K  c #5E933F",
"L  c #569842",
"P  c #5D9946",
"I  c #609540",
"U  c #649B4A",
"Y  c #70994B",
"T  c #6E9D50",
"R  c #CB803A",
"E  c #EA8E3B",
"W  c #EE913C",
"Q  c #F1933C",
"!  c #B39047",
"~  c #B59248",
"^  c #B79550",
"/  c #84A45E",
"(  c #8AA561",
")  c #D38D65",
"_  c #D58F69",
"`  c #D6906A",
"'  c #DA926B",
"]  c #D89770",
"[  c #DC9A72",
"{  c #E2A076",
"}  c #EAA475",
"|  c #ECA77A",
" . c #EFAA7D",
".. c #DEE46C",
"X. c #E0E36C",
"o. c #E1E471",
"O. c #F7F576",
"+. c #F6F479",
"@. c #EEAE81",
"#. c #EEB184",
"$. c #EDB588",
"%. c #DAC096",
"&. c #E7C79A",
"*. c #E9CD9F",
"=. c #EFDEBF",
"-. c #F4E1BF",
";. c #EFE0C0",
":. c #F0E0C1",
">. c #F5E2C0",
",. c #FCEFCF",
"<. c #FDF0D0",
/* pixels */
"*.*.*.*.*.*.*.*.*.*.*.*.*.*.*.*.*.*.( ( ( ( ( ( ( ( ( ( ( ( ( ( ( ( ( ( ( ( ( ( ( ( ( ( ( ( *.*.*.*.*.*.*.*.*.*.*.*.*.*.*.*.*.*.",
"*.*.*.*.*.*.*.*.*.*.*.*.*.*.*.*.*.*.L H H H H H H H H H H H H H H H H H H H H H H H H H H L *.*.*.*.*.*.*.*.*.*.*.*.*.*.*.*.*.*.",
"*.*.*.*.*.*.*.*.*.*.*.*.*.*.*.*.*.*.L H H H H H H H H H H H H H H H H H H H H H H H H H H L *.*.*.*.*.*.*.*.*.*.*.*.*.*.*.*.*.*.",
"*.*.*.*.*.*.*.*.*.*.*.*.*.*.*.*.*.*.L H H H H H H H H H H H H H H H H H H H H H H H H H H L *.*.*.*.*.*.*.*.*.*.*.*.*.*.*.*.*.*.",
"*.*.*.*.*.*.*.*.*.*.*.*.*.*.*.*.*.*.i 1 1 < ................................................/ / / ( *.*.*.*.*.*.*.*.*.*.*.*.*.*.",
"*.*.*.*.*.*.*.*.*.*.*.*.*.*.*.*.*.*.u : : : O.O.O.O.O.O.O.O.O.O.O.O.O.O.O.O.O.O.O.O.O.O.O.O.H H H P *.*.*.*.*.*.*.*.*.*.*.*.*.*.",
"*.*.*.*.*.*.*.*.*.*.*.*.*.*.*.*.*.*.u : : : O.O.O.O.O.O.O.O.O.O.O.O.O.O.O.O.O.O.O.O.O.O.O.O.H H H P *.*.*.*.*.*.*.*.*.*.*.*.*.*.",
"*.*.*.*.*.*.*.*.*.*.*.*.*.*.*.*.*.*.u : : : O.O.O.O.O.O.O.O.O.O.O.O.O.O.O.O.O.O.O.O.O.O.O.O.H H H P *.*.*.*.*.*.*.*.*.*.*.*.*.*.",
"*.*.*.*.*.*.*.*.*.*.*.*.*.*.*.*.*.*.X.X.X.X.~ ~ ~ ~ ~ ~ ~ ~ ~ ~ ~ ~ ~ ~ ~ ~ ~ ~ ~ ~ ~ ~ ~ ~ X.X.X.o.*.*.*.*.*.*.*.*.*.*.*.*.*.*.",
"*.*.*.*.*.*.*.*.*.*.*.*.*.*.*.*.*.*.+.O.O.O.b c c c c c c c c c c c c c c c c c c c c c c m O.O.O.+.*.*.*.*.*.*.*.*.*.*.*.*.*.*.",
"*.*.*.*.*.*.*.*.*.*.*.*.*.*.*.*.*.*.+.O.O.O.b c c c c c c c c c c c c c c c c c c c c c c m O.O.O.+.*.*.*.*.*.*.*.*.*.*.*.*.*.*.",
"*.*.*.*.*.*.*.*.*.*.*.*.*.*.*.*.*.*.+.O.O.O.b c c c c c c c c c c c c c c c c c c c c c c m O.O.O.+.*.*.*.*.*.*.*.*.*.*.*.*.*.*.",
"*.*.*.*.*.*.*.*.*.*.$.#.#.#.*.*.*.*.~ ! ! ! B B B B B B B B B B B B c c c c c c c c B B B B ! ! ! ^ *.*.*.*.#.#.#.$.*.*.*.*.*.*.",
"*.*.*.*.*.*.*.*.*.*.@. . . .*.*.*.*.m c c c V V V V V V V V V V V V c c c c c c c c V V V V c c c G *.*.*.*. . . .@.*.*.*.*.*.*.",
"*.*.*.*.*.*.*.*.*.*.@. . . .*.*.*.*.m c c c V V V V V V V V V V V V c c c c c c c c V V V V c c c G *.*.*.*. . . .@.*.*.*.*.*.*.",
"*.*.*.*.*.*.*.*.*.*.@. . . .*.*.*.*.m c c c V V V V V V V V V V V V c c c c c c c c V V V V c c c G *.*.*.*. . . .@.*.*.*.*.*.*.",
"*.*.*.*.*.*.*.*.*.*.@. . . .#.#.#.#.C B B B V V V N -.>.>.>.) ) ) ) ) ) ) ) :.;.;.=.N V V V B B B C #.#.#.#. . . .@.*.*.*.*.*.*.",
"*.*.*.*.*.*.*.*.*.*.@. . . . . . . .V V V V V V V N <.<.<.<.' ' ' ' ' ' ' ' <.<.<.,.N V V V V V V R  . . . . . . .@.*.*.*.*.*.*.",
"*.*.*.*.*.*.*.*.*.*.@. . . . . . . .V V V V V V V N <.<.<.<.' ' ' ' ' ' ' ' <.<.<.,.N V V V V V V R  . . . . . . .@.*.*.*.*.*.*.",
"*.*.*.*.*.*.*.*.*.*.@. . . . . . . .V V V V V V V N <.<.<.<.' ' ' ' ' ' ' ' <.<.<.,.N V V V V V V R  . . . . . . .@.*.*.*.*.*.*.",
"*.*.*.*.*.*.*.*.*.*.[ ' ' '  . . . .V V V V } } } } g g g g | | | | | | | | g g g h } } } } V V V R  . . . .' ' ' [ *.*.*.*.*.*.",
"*.*.*.*.*.*.*.*.*.*.[ ' ' '  . . . .V V V V  . . . .o        . . . . . . . .      O  . . .| V V V R  . . . .' ' ' [ *.*.*.*.*.*.",
"*.*.*.*.*.*.*.*.*.*.[ ' ' '  . . . .V V V V  . . . .o        . . . . . . . .      O  . . .| V V V R  . . . .' ' ' [ *.*.*.*.*.*.",
"*.*.*.*.*.*.*.*.*.*.[ ' ' '  . . . .V V V V  . . . .o        . . . . . . . .      O  . . .| V V V R  . . . .' ' ' [ *.*.*.*.*.*.",
"*.*.*.*.*.*.*.*.*.*.&.&.&.&.[ ' ' ' M v v v  . . . .{ { { {  . . . . . . . .{ { { {  . . .| v v v M ' ' ' ` 3 3 3 f *.*.*.*.*.*.",
"*.*.*.*.*.*.*.*.*.*.*.*.*.*.' ' ' ' n c c c  . . . . . . . . . . . . . . . . . . . . . . .| c c c n ' ' ' ) @ @ @ q *.*.*.*.*.*.",
"*.*.*.*.*.*.*.*.*.*.*.*.*.*.' ' ' ' n c c c  . . . . . . . . . . . . . . . . . . . . . . .| c c c n ' ' ' ) @ @ @ q *.*.*.*.*.*.",
"*.*.*.*.*.*.*.*.*.*.*.*.*.*.' ' ' ' n c c c  . . . . . . . . . . . . . . . . . . . . . . .| c c c n ' ' ' ) @ @ @ q *.*.*.*.*.*.",
"*.*.*.*.*.*.*.*.*.*.*.*.*.*.Y I I I c c c c  . . . . . . . .& % % % % % % *  . . . .' ' ' ' c c c c p p p y @ @ @ q *.*.*.*.*.*.",
"*.*.*.*.*.*.*.*.*.*.*.*.*.*.P H H H c c c c  . . . . . . . ..             o  . . . .' ' ' ` c c c c : : : : @ @ @ q *.*.*.*.*.*.",
"*.*.*.*.*.*.*.*.*.*.*.*.*.*.P H H H c c c c  . . . . . . . ..             o  . . . .' ' ' ' c c c c : : : : @ @ @ q *.*.*.*.*.*.",
"*.*.*.*.*.*.*.*.*.*.*.*.*.*.P H H H c c c c  . . . . . . . .              X  . . . .' ' ' ' c c c c : : : : @ @ @ q *.*.*.*.*.*.",
"*.*.*.*.*.*.*.*.*.*.S x x x 0 0 0 0 k k k k l l l l 9 9 9 9 _ _ _ _ _ _ _ _ ' ' ' ' u u u u J J J J H H H K _ _ _ ] *.*.*.*.*.*.",
"*.*.*.*.*.*.*.*.*.*.Z 5 5 5 5 5 5 5 5 5 5 5 5 5 5 5 = = = = ' ' ' ' ' ' ' ' ' ' ' ' : : : > H H H H H H H I ' ' ' [ *.*.*.*.*.*.",
"*.*.*.*.*.*.*.*.*.*.Z 5 5 5 5 5 5 5 5 5 5 5 5 5 5 5 = = = = ' ' ' ' ' ' ' ' ' ' ' ' : : : > H H H H H H H I ' ' ' [ *.*.*.*.*.*.",
"*.*.*.*.*.*.*.*.*.*.Z 5 5 5 5 5 5 5 5 5 5 5 5 5 5 5 = = = = ' ' ' ' ' ' ' ' ' ' ' ' : : : > H H H H H H H I ' ' ' [ *.*.*.*.*.*.",
"*.*.*.*.*.*.S l l l 8 5 5 5 E W W W W W W W k 5 5 5 5 5 5 5 6 6 6 6 r r r r r r r t H H H H H H H H H H H I ' ' ' [ *.*.*.*.*.*.",
"*.*.*.*.*.*.A 5 5 5 5 5 5 5 W Q Q Q Q Q Q Q k 5 5 5 5 5 5 5 = = = = : : : : : : : : H H H H H H H H H H H I ' ' ' [ *.*.*.*.*.*.",
"*.*.*.*.*.*.A 5 5 5 5 5 5 5 W Q Q Q Q Q Q Q k 5 5 5 5 5 5 5 = = = = : : : : : : : : H H H H H H H H H H H I ' ' ' [ *.*.*.*.*.*.",
"*.*.*.*.*.*.A 5 5 5 5 5 5 5 W Q Q Q Q Q Q Q k 5 5 5 5 5 5 5 = = = = : : : : : : : : H H H H H H H H H H H I ' ' ' [ *.*.*.*.*.*.",
"*.*.*.*.*.*.A 5 5 5 5 5 5 5 5 5 5 5 5 5 5 5 5 5 5 5 5 5 5 5 = = = = @ @ @ @ ; ; ; 4 H H H H H H H H @ @ @ 7 *.*.*.*.*.*.*.*.*.*.",
"*.*.*.*.*.*.A 5 5 5 5 5 5 5 5 5 5 5 5 5 5 5 5 5 5 5 5 5 5 5 = = = = @ @ @ @ ; ; ; 4 H H H H H H H H @ @ @ 7 *.*.*.*.*.*.*.*.*.*.",
"*.*.*.*.*.*.A 5 5 5 5 5 5 5 5 5 5 5 5 5 5 5 5 5 5 5 5 5 5 5 = = = = @ @ @ @ ; ; ; 4 H H H H H H H H @ @ @ 7 *.*.*.*.*.*.*.*.*.*.",
"*.*.*.*.*.*.A 5 5 5 5 5 5 5 5 5 5 5 5 5 5 5 5 5 5 5 5 5 5 5 = = = = @ @ @ @ ; ; ; 4 H H H H H H H H @ @ @ 7 *.*.*.*.*.*.*.*.*.*.",
"*.*.*.*.*.*.A 5 5 5 E Q Q Q z 5 5 5 5 5 5 5 W Q Q Q j 5 5 5 = = = = : : : : ; ; ; ; ; ; ; ; ; ; ; 4 : : : d *.*.*.*.*.*.*.*.*.*.",
"*.*.*.*.*.*.A 5 5 5 E Q Q Q z 5 5 5 5 5 5 5 W Q Q Q j 5 5 5 = = = = : : : : ; ; ; ; ; ; ; ; ; ; ; 4 : : : d *.*.*.*.*.*.*.*.*.*.",
"*.*.*.*.*.*.A 5 5 5 E Q Q Q z 5 5 5 5 5 5 5 W Q Q Q j 5 5 5 = = = = : : : : ; ; ; ; ; ; ; ; ; ; ; 4 : : : d *.*.*.*.*.*.*.*.*.*.",
"*.*.*.*.*.*.A 5 5 5 E Q Q Q z k k k k k k k W Q Q Q j 5 5 5 = = = = : : : : ; ; ; ; 4 4 4 4 4 4 4 4 : : : d *.*.*.*.*.*.*.*.*.*.",
"*.*.*.*.*.*.A 5 5 5 5 5 5 5 W Q Q Q Q Q Q Q k 5 5 5 5 5 5 5 = = = = @ @ @ @ @ @ @ @ : : : : : : : > H H H U *.*.*.*.*.*.*.*.*.*.",
"*.*.*.*.*.*.A 5 5 5 5 5 5 5 W Q Q Q Q Q Q Q k 5 5 5 5 5 5 5 = = = = @ @ @ @ @ @ @ @ : : : : : : : > H H H U *.*.*.*.*.*.*.*.*.*.",
"*.*.*.*.*.*.A 5 5 5 5 5 5 5 W Q Q Q Q Q Q Q k 5 5 5 5 5 5 5 = = = = @ @ @ @ @ @ @ @ : : : : : : : > H H H U *.*.*.*.*.*.*.*.*.*.",
"*.*.*.*.*.*.A 5 5 5 5 5 5 5 E W W W W W W W k 5 5 5 5 5 5 5 = = = = @ @ @ @ @ @ @ $ : : : : : : : , L L L T *.*.*.*.*.*.*.*.*.*.",
"*.*.*.*.*.*.A 5 5 5 5 5 5 5 5 5 5 5 5 5 5 5 5 5 5 5 = = = = = = = = : : : : : : : : : : : : @ @ @ 2 *.*.*.*.*.*.*.*.*.*.*.*.*.*.",
"*.*.*.*.*.*.A 5 5 5 5 5 5 5 5 5 5 5 5 5 5 5 5 5 5 5 = = = = = = = = : : : : : : : : : : : : @ @ @ 2 *.*.*.*.*.*.*.*.*.*.*.*.*.*.",
"*.*.*.*.*.*.A 5 5 5 5 5 5 5 5 5 5 5 5 5 5 5 5 5 5 5 = = = = = = = = : : : : : : : : : : : : @ @ @ 2 *.*.*.*.*.*.*.*.*.*.*.*.*.*.",
"*.*.*.*.*.*.F Z Z Z 8 5 5 5 5 5 5 5 5 5 5 5 5 5 5 5 = = = = w w w w a a a a : : : : : : : : # # # 2 *.*.*.*.*.*.*.*.*.*.*.*.*.*.",
"*.*.*.*.*.*.*.*.*.*.s = = = = = = = = = = = = = = = = = = = *.*.*.*.*.*.*.*.+ @ @ @ @ @ @ @ ; ; ; x *.*.*.*.*.*.*.*.*.*.*.*.*.*.",
"*.*.*.*.*.*.*.*.*.*.s = = = = = = = = = = = = = = = = = = = *.*.*.*.*.*.*.*.+ @ @ @ @ @ @ @ ; ; ; x *.*.*.*.*.*.*.*.*.*.*.*.*.*.",
"*.*.*.*.*.*.*.*.*.*.s = = = = = = = = = = = = = = = = = = = *.*.*.*.*.*.*.*.+ @ @ @ @ @ @ @ ; ; ; x *.*.*.*.*.*.*.*.*.*.*.*.*.*.",
"*.*.*.*.*.*.*.*.*.*.D s s s s s s s s s s s s s s s s s s s *.*.*.*.*.*.*.*.# # # # # # # # ; ; ; x *.*.*.*.*.*.*.*.*.*.*.*.*.*.",
"*.*.*.*.*.*.*.*.*.*.*.*.*.*.*.*.*.*.*.*.*.*.*.*.*.*.*.*.*.*.*.*.*.*.*.*.*.*.; ; ; ; ; ; ; ; ; ; ; x *.*.*.*.*.*.*.*.*.*.*.*.*.*.",
"*.*.*.*.*.*.*.*.*.*.*.*.*.*.*.*.*.*.*.*.*.*.*.*.*.*.*.*.*.*.*.*.*.*.*.*.*.*.; ; ; ; ; ; ; ; ; ; ; x *.*.*.*.*.*.*.*.*.*.*.*.*.*.",
"*.*.*.*.*.*.*.*.*.*.*.*.*.*.*.*.*.*.*.*.*.*.*.*.*.*.*.*.*.*.*.*.*.*.*.*.*.*.; ; ; ; ; ; ; ; ; ; ; x *.*.*.*.*.*.*.*.*.*.*.*.*.*.",
"%.%.%.%.%.%.%.%.%.%.%.%.%.%.%.%.%.%.%.%.%.%.%.%.%.%.%.%.%.%.%.%.%.%.%.%.%.%.- - - - - - - - - - - e %.%.%.%.%.%.%.%.%.%.%.%.%.%."
};
