/* XPM */
static char *_480de7d7f2248269ec8ded2fd0ea1f9Q5jqkLloF9KdEdHu[] = {
/* columns rows colors chars-per-pixel */
"64 64 143 2 ",
"   c #000B1E",
".  c #292929",
"X  c #332926",
"o  c #4F2915",
"O  c #4D2C1A",
"+  c #502A16",
"@  c #512C18",
"#  c #592F1B",
"$  c #4F371A",
"%  c #503419",
"&  c #5E341C",
"*  c #5D3E1E",
"=  c #60321E",
"-  c #432E29",
";  c #453330",
":  c #673820",
">  c #294428",
",  c #2E7629",
"<  c #2E7A29",
"1  c #377026",
"2  c #327628",
"3  c #3E7629",
"4  c #317A2A",
"5  c #45562F",
"6  c #4A4930",
"7  c #7E402A",
"8  c #7F4D2D",
"9  c #7C522C",
"0  c #604338",
"q  c #694539",
"w  c #6C4B3E",
"e  c #7F4533",
"r  c #7D5E30",
"t  c #4C6F29",
"y  c #4B722A",
"u  c #497C30",
"i  c #587331",
"p  c #567D35",
"a  c #5A7D36",
"s  c #765141",
"d  c #795140",
"f  c #757065",
"g  c #86442D",
"h  c #88472E",
"j  c #844A2E",
"k  c #8C4B33",
"l  c #83543A",
"z  c #A36333",
"x  c #AD6A36",
"c  c #B36E35",
"v  c #B26E3D",
"b  c #B7723D",
"n  c #CF7E2E",
"m  c #8C5D43",
"M  c #89604C",
"N  c #866B52",
"B  c #896E54",
"V  c #996F56",
"C  c #8D7257",
"Z  c #A17156",
"A  c #A4765A",
"S  c #A67A5D",
"D  c #8E7969",
"F  c #917766",
"G  c #30812C",
"H  c #399A37",
"J  c #3C9D38",
"K  c #3BA13A",
"L  c #4A8333",
"P  c #508532",
"I  c #578934",
"U  c #54833E",
"Y  c #409335",
"T  c #42973A",
"R  c #4E9738",
"E  c #479B39",
"W  c #71803F",
"Q  c #4DA03E",
"!  c #51A13E",
"~  c #799F4A",
"^  c #7C9258",
"/  c #5BA549",
"(  c #7BAB5C",
")  c #D6822C",
"_  c #D68335",
"`  c #D78931",
"'  c #D98639",
"]  c #85965E",
"[  c #869A5F",
"{  c #BF9348",
"}  c #80AC5E",
"|  c #899861",
" . c #AA8566",
".. c #84AD61",
"X. c #89AF64",
"o. c #9FAC68",
"O. c #A3B674",
"+. c #D38C4F",
"@. c #DD8C49",
"#. c #C09247",
"$. c #C0964A",
"%. c #C69849",
"&. c #DB9254",
"*. c #DDA243",
"=. c #DFB34E",
"-. c #DEA151",
";. c #CE916D",
":. c #D4946B",
">. c #DD916C",
",. c #DF9370",
"<. c #DC9B75",
"1. c #E19162",
"2. c #E3946A",
"3. c #E69873",
"4. c #E99C76",
"5. c #EBA277",
"6. c #E4A17A",
"7. c #EBA57C",
"8. c #D6DA69",
"9. c #E2DF6D",
"0. c #DFE16B",
"q. c #E1E56D",
"w. c #E4E86F",
"e. c #F4EE74",
"r. c #F9F577",
"t. c #E8A781",
"y. c #EAAB8A",
"u. c #F5AC81",
"i. c #F8AF84",
"p. c #F8B085",
"a. c #F6B88E",
"s. c #F4BE94",
"d. c #DEC199",
"f. c #E0C59D",
"g. c #EBCDA3",
"h. c #F1CBA0",
"j. c #EFD1A6",
"k. c #EDD3B3",
"l. c #EFD8BA",
"z. c #F2E0C3",
"x. c #F8E3C4",
"c. c #FCE9CC",
"v. c #FFF2D5",
/* pixels */
"j.j.j.j.s.a.a.a.a.a.a.a.h.j.j.j.j.j.j.j.O.X.X.X.X.X.X.X.X.X.X.X.[ ] ] ] ] ] ] ] ] ] ] ] ] ] ] ] g.j.j.j.a.a.a.a.a.a.a.a.j.j.j.j.",
"j.j.j.j.a.i.i.i.i.i.i.i.h.j.j.j.j.j.j.j.( K K K K K K K K K K K G < < < < < < < < < < < < < < < g.j.j.j.p.i.i.i.i.i.i.i.j.j.j.j.",
"j.j.j.j.a.i.i.i.i.i.i.i.h.j.j.j.j.j.j.j.( K K K K K K K K K K K G < < < < < < < < < < < < < < < g.j.j.j.p.i.i.i.i.i.i.i.j.j.j.j.",
"j.j.j.j.a.i.i.i.i.i.i.i.h.j.j.j.j.j.j.j.( K K K K K K K K K K K G < < < < < < < < < < < < < < < g.j.j.j.p.i.i.i.i.i.i.i.j.j.j.j.",
"j.j.j.j.a.i.i.i.5.4.4.4.7.t.t.t.o.......8.q.q.q.q.q.q.q.q.q.q.q.0.0.0.0.0.0.0.0.0.0.0.0.P < < < ^ ] ] ^ u.i.i.i.4.4.4.4.j.j.j.j.",
"j.j.j.j.a.i.i.i.4.3.3.3.3.3.3.3.~ K K K w.r.r.r.r.r.r.r.r.r.r.r.r.r.r.r.r.r.r.r.r.r.r.r.I < < < < < < < u.i.i.i.3.3.3.3.j.j.j.j.",
"j.j.j.j.a.i.i.i.4.3.3.3.3.3.3.3.~ K K K w.r.r.r.r.r.r.r.r.r.r.r.r.r.r.r.r.r.r.r.r.r.r.r.I < < < < < < < u.i.i.i.3.3.3.3.j.j.j.j.",
"j.j.j.j.a.i.i.i.4.3.3.3.3.3.3.3.~ K K K w.r.r.r.r.r.r.r.r.r.r.r.r.r.r.r.r.r.r.r.r.r.r.r.I < < < < < < < u.i.i.i.3.3.3.3.j.j.j.j.",
"j.j.j.j. .m m m l l l l d s s s 8.q.q.q.=.*.*.*.%.$.$.$.$.$.$.$.$.$.$.$.$.$.$.$.$.$.$.$.8.q.q.q.5 > > > m m m m l l l l j.j.j.j.",
"j.j.j.j.C @ @ @ @ @ @ @ X . . . 9.r.r.r.*.) ) ) c x x x x x x x x x x x x x x x x x x x e.r.r.r.6 . . . @ @ @ @ @ @ @ + j.j.j.j.",
"j.j.j.j.C @ @ @ @ @ @ @ X . . . 9.r.r.r.*.) ) ) c x x x x x x x x x x x x x x x x x x x e.r.r.r.6 . . . @ @ @ @ @ @ @ + j.j.j.j.",
"j.j.j.j.C @ @ @ @ @ @ @ X . . . 9.r.r.r.*.) ) ) c x x x x x x x x x x x x x x x x x x x e.r.r.r.6 . . . @ @ @ @ @ @ @ + j.j.j.j.",
"j.j.j.j.A 7 7 7 & @ @ @ ;.6.6.6.-.*.*.*.` ) ) ) k.z.z.z.6.>.>.>.>.>.>.>.l.z.z.z.+.n n n #.{ { { 4.6.6.6.j 7 7 7 @ @ @ + j.j.j.j.",
"j.j.j.j.S g g g = @ @ @ 4.i.i.i.@.) ) ) ) ) ) ) x.v.v.v.y.3.3.3.3.3.3.3.c.v.v.v.&.) ) ) c x x x u.i.i.i.k g g g @ @ @ + j.j.j.j.",
"j.j.j.j.S g g g = @ @ @ 4.i.i.i.@.) ) ) ) ) ) ) x.v.v.v.y.3.3.3.3.3.3.3.c.v.v.v.&.) ) ) c x x x u.i.i.i.k g g g @ @ @ + j.j.j.j.",
"j.j.j.j.S g g g = @ @ @ 4.i.i.i.@.) ) ) ) ) ) ) x.v.v.v.y.3.3.3.3.3.3.3.c.v.v.v.&.) ) ) c x x x u.i.i.i.k g g g @ @ @ + j.j.j.j.",
"j.j.j.j.S g g g g 7 7 7 6.i.i.i.@.) ) ) 1.2.2.2.F f f f 6.u.u.u.u.u.u.u.D f f f >.2.2.2._ n n n u.i.i.i.k g g g @ @ @ + j.j.j.j.",
"j.j.j.j.S g g g g g g g 6.i.i.i.@.) ) ) 2.3.3.3.q       6.i.i.i.i.i.i.i.0       >.3.3.3._ ) ) ) u.i.i.i.k g g g @ @ @ + j.j.j.j.",
"j.j.j.j.S g g g g g g g 6.i.i.i.@.) ) ) 2.3.3.3.q       6.i.i.i.i.i.i.i.0       >.3.3.3._ ) ) ) u.i.i.i.k g g g @ @ @ + j.j.j.j.",
"j.j.j.j.S g g g g g g g 6.i.i.i.@.) ) ) 2.3.3.3.q       6.i.i.i.i.i.i.i.0       >.3.3.3._ ) ) ) u.i.i.i.k g g g @ @ @ + j.j.j.j.",
"j.j.j.j.f.f.f.f.Z g g g l l l l x c c c 5.u.u.u.7.6.6.6.M w w w w w w w <.6.6.6.u.u.u.u.' ) ) ) l l l l g g g g d.f.f.f.j.j.j.j.",
"j.j.j.j.j.j.j.j.A g g g & @ @ @ z x x x 7.i.i.i.i.i.i.i.w               7.i.i.i.i.i.i.i.' ) ) ) & @ @ @ g g g g j.j.j.j.j.j.j.j.",
"j.j.j.j.j.j.j.j.A g g g & @ @ @ z x x x 7.i.i.i.i.i.i.i.w               7.i.i.i.i.i.i.i.' ) ) ) & @ @ @ g g g g j.j.j.j.j.j.j.j.",
"j.j.j.j.j.j.j.j.A g g g & @ @ @ z x x x 7.i.i.i.i.i.i.i.w               7.i.i.i.i.i.i.i.' ) ) ) & @ @ @ g g g g j.j.j.j.j.j.j.j.",
"j.j.j.j.j.j.j.j.A g g g g g g g z x x x >.4.4.4.u.i.i.i.w               7.i.i.i.4.4.4.4.b c c c g g g g g g g g j.j.j.j.j.j.j.j.",
"j.j.j.j.j.j.j.j.A g g g g g g g z x x x >.3.3.3.u.i.i.i.w               7.i.i.i.4.3.3.3.v x x x h g g g g g g g j.j.j.j.j.j.j.j.",
"j.j.j.j.j.j.j.j.A g g g g g g g z x x x >.3.3.3.u.i.i.i.w               7.i.i.i.4.3.3.3.v x x x h g g g g g g g j.j.j.j.j.j.j.j.",
"j.j.j.j.j.j.j.j.A g g g g g g g z x x x >.3.3.3.u.i.i.i.w               7.i.i.i.4.3.3.3.v x x x h g g g g g g g j.j.j.j.j.j.j.j.",
"j.j.j.j.j.j.j.j.C # # # 7 g g g : & & & i p p p :.4.4.4.,.>.>.>.>.>.>.>.3.4.4.4.W p p p * & & & g g g g # # # # j.j.j.j.j.j.j.j.",
"j.j.j.j.j.j.j.j.B @ @ @ 7 g g g & @ @ @ 1 < < < :.3.3.3.3.3.3.3.3.3.3.3.3.3.3.3.a < < < $ @ @ @ g g g g @ @ @ o j.j.j.j.j.j.j.j.",
"j.j.j.j.j.j.j.j.B @ @ @ 7 g g g & @ @ @ 1 < < < :.3.3.3.3.3.3.3.3.3.3.3.3.3.3.3.a < < < $ @ @ @ g g g g @ @ @ o j.j.j.j.j.j.j.j.",
"j.j.j.j.j.j.j.j.B + + + 7 g g g & @ @ @ 1 < < < :.3.3.3.3.3.3.3.3.3.3.3.3.3.3.3.a < < < $ @ @ @ g g g g @ + + o j.j.j.j.j.j.j.j.",
"j.j.j.j.j.j.j.j.g.g.g.g.Z g g g t 2 2 2 H J J J Q ! ! ! L u u u u u u u u u u u 4 < < < 4 2 2 4 j g g g g.g.g.g.j.j.j.j.j.j.j.j.",
"j.j.j.j.j.j.j.j.j.j.j.j.A g g g y < < < H K K K K K K K G < < < < < < < < < < < < < < < < < < < j g g g g.j.j.j.j.j.j.j.j.j.j.j.",
"j.j.j.j.j.j.j.j.j.j.j.j.A g g g y < < < H K K K K K K K G < < < < < < < < < < < < < < < < < < < j g g g g.j.j.j.j.j.j.j.j.j.j.j.",
"j.j.j.j.j.j.j.j.j.j.j.j.A g g g y < < < H K K K K K K K G < < < < < < < < < < < < < < < < < < < j g g g g.j.j.j.j.j.j.j.j.j.j.j.",
"j.j.j.j.j.j.j.j.j.j.j.j.B @ @ @ Y K K K K K K K K K K K K K K K K K K K K K K K < < < < < < < < % @ @ + g.j.j.j.j.j.j.j.j.j.j.j.",
"j.j.j.j.j.j.j.j.j.j.j.j.B @ @ @ Y K K K K K K K K K K K K K K K K K K K K K K K < < < < < < < < % @ @ + g.j.j.j.j.j.j.j.j.j.j.j.",
"j.j.j.j.j.j.j.j.j.j.j.j.B @ @ @ Y K K K K K K K K K K K K K K K K K K K K K K K < < < < < < < < % @ @ + g.j.j.j.j.j.j.j.j.j.j.j.",
"j.j.j.j.j.j.j.j.j.j.j.j.B @ @ @ Y K K K K K K K K K K K K K K K K K K K K K K K < < < < < < < < % @ @ + g.j.j.j.j.j.j.j.j.j.j.j.",
"j.j.j.j.j.j.j.j.j.j.j.j.^ < < < H K K K K K K K r g g g g g g g g g g g g g g g E K K K < < < < < < < < g.j.j.j.j.j.j.j.j.j.j.j.",
"j.j.j.j.j.j.j.j.j.j.j.j.^ < < < H K K K K K K K r g g g g g g g g g g g g g g g E K K K < < < < < < < < g.j.j.j.j.j.j.j.j.j.j.j.",
"j.j.j.j.j.j.j.j.j.j.j.j.^ < < < H K K K K K K K r g g g g g g g g g g g g g g g E K K K < < < < < < < < g.j.j.j.j.j.j.j.j.j.j.j.",
"j.j.j.j.j.j.j.j.j.j.j.j.^ < < < H K K K K K K K r g g g g g g g g g g g g g g g E K K K 4 < < < < < < < g.j.j.j.j.j.j.j.j.j.j.j.",
"j.j.j.j.j.j.j.j.j.j.j.j.A g g g g g g g g g g g g g g g R K K K G < < < 8 g g g g g g g g g g g g g g g g.j.j.j.j.j.j.j.j.j.j.j.",
"j.j.j.j.j.j.j.j.j.j.j.j.A g g g g g g g g g g g g g g g R K K K G < < < 8 g g g g g g g g g g g g g g g g.j.j.j.j.j.j.j.j.j.j.j.",
"j.j.j.j.j.j.j.j.j.j.j.j.A g g g g g g g g g g g g g g g R K K K G < < < 8 g g g g g g g g g g g g g g g g.j.j.j.j.j.j.j.j.j.j.j.",
"j.j.j.j.j.j.j.j.j.j.j.j.A g g g g g g g g g g g g g g g R K K K G 4 4 4 8 g g g g g g g g g g g g g g g g.j.j.j.j.j.j.j.j.j.j.j.",
"j.j.j.j.j.j.j.j.j.j.j.j.} K K K K K K K G < < < 9 g g g g g g g g g g g g g g g 3 < < < < < < < < < < < g.j.j.j.j.j.j.j.j.j.j.j.",
"j.j.j.j.j.j.j.j.j.j.j.j.} K K K K K K K G < < < 9 g g g g g g g g g g g g g g g 3 < < < < < < < < < < < g.j.j.j.j.j.j.j.j.j.j.j.",
"j.j.j.j.j.j.j.j.j.j.j.j.} K K K K K K K G < < < 9 g g g g g g g g g g g g g g g 3 < < < < < < < < < < < g.j.j.j.j.j.j.j.j.j.j.j.",
"j.j.j.j.j.j.j.j.j.j.j.j.} K K K K K K K G < < < 9 j j j j j j j j g g g g g g g 3 < < < < < < < < < < < g.j.j.j.j.j.j.j.j.j.j.j.",
"j.j.j.j.j.j.j.j.j.j.j.j.^ < < < H K K K K K K K K K K K K K K K G < < < < < < < < < < < J K K K K K K K j.j.j.j.j.j.j.j.j.j.j.j.",
"j.j.j.j.j.j.j.j.j.j.j.j.^ < < < H K K K K K K K K K K K K K K K G < < < < < < < < < < < J K K K K K K K j.j.j.j.j.j.j.j.j.j.j.j.",
"j.j.j.j.j.j.j.j.j.j.j.j.^ < < < H K K K K K K K K K K K K K K K G < < < < < < < < < < < J K K K K K K K j.j.j.j.j.j.j.j.j.j.j.j.",
"j.j.j.j.j.j.j.j.j.j.j.j.| U U U T J J J J J J J J J J J J J J J 4 , , , 2 2 2 2 2 2 2 2 H J J J / / / / j.j.j.j.j.j.j.j.j.j.j.j.",
"j.j.j.j.j.j.j.j.j.j.j.j.j.j.j.j.N @ @ @ @ @ @ @ @ @ @ @ X . . . . . . . O @ @ @ @ @ @ @ @ @ @ + g.j.j.j.j.j.j.j.j.j.j.j.j.j.j.j.",
"j.j.j.j.j.j.j.j.j.j.j.j.j.j.j.j.N @ @ @ @ @ @ @ @ @ @ @ X . . . . . . . O @ @ @ @ @ @ @ @ @ @ + g.j.j.j.j.j.j.j.j.j.j.j.j.j.j.j.",
"j.j.j.j.j.j.j.j.j.j.j.j.j.j.j.j.N @ @ @ @ @ @ @ @ @ @ @ X . . . . . . . O @ @ @ @ @ @ @ @ @ @ + g.j.j.j.j.j.j.j.j.j.j.j.j.j.j.j.",
"j.j.j.j.j.j.j.j.j.j.j.j.j.j.j.j.B # # # # # # # # # # # X . . . . . . . # # # # # # # # # # # # g.j.j.j.j.j.j.j.j.j.j.j.j.j.j.j.",
"j.j.j.j.j.j.j.j.j.j.j.j.j.j.j.j.A g g g g g g g g g g g - . . . . . . . 7 g g g g g g g g g g g g.j.j.j.j.j.j.j.j.j.j.j.j.j.j.j.",
"j.j.j.j.j.j.j.j.j.j.j.j.j.j.j.j.A g g g g g g g g g g g - . . . . . . . g g g g g g g g g g g g g.j.j.j.j.j.j.j.j.j.j.j.j.j.j.j.",
"j.j.j.j.j.j.j.j.j.j.j.j.j.j.j.j.A g g g g g g g g g g g - . . . . . . . g g g g g g g g g g g g g.j.j.j.j.j.j.j.j.j.j.j.j.j.j.j.",
"f.f.f.f.f.f.f.f.f.f.f.f.f.f.f.f.V e e e e e e e e e e e ; . . . . . . . e j e e e e e e e e e e d.f.f.f.f.f.f.f.f.f.f.f.f.f.f.f."
};
