/* XPM */
static char *e79bb55a4ef34eacfce14d05385511f4xYTfC30avfsSfhFp[] = {
/* columns rows colors chars-per-pixel */
"64 64 66 1 ",
"  c #000309",
". c #0A0E15",
"X c #0E1118",
"o c #12161D",
"O c #141820",
"+ c #171C25",
"@ c #191D27",
"# c #161D28",
"$ c #1C212B",
"% c #1D232D",
"& c #1E242E",
"* c #1D2431",
"= c #21252D",
"- c #232831",
"; c #242B37",
": c #2C313B",
"> c #2A313F",
", c #2D323C",
"< c #2A3240",
"1 c #2B3442",
"2 c #2D3543",
"3 c #2E3644",
"4 c #353A43",
"5 c #363D4A",
"6 c #3C3F4B",
"7 c #3E3F4E",
"8 c #333F54",
"9 c #3F4551",
"0 c #39465D",
"q c #3A475E",
"w c #3B485E",
"e c #3B4860",
"r c #3E4A62",
"t c #414752",
"y c #4D4D5E",
"u c #4D505F",
"i c #434E66",
"p c #4F5561",
"a c #455168",
"s c #555967",
"d c #58596C",
"f c #595D6D",
"g c #5D5D72",
"h c #5D6172",
"j c #646679",
"k c #646879",
"l c #686A7E",
"z c #6B6E81",
"x c #6C6C83",
"c c #6C6D84",
"v c #72728A",
"b c #75758E",
"n c #777890",
"m c #797992",
"M c #263ADB",
"N c #263CDA",
"B c #298AAF",
"V c #8D90A9",
"C c #9598B2",
"Z c #9EA2BD",
"A c #A0A3BF",
"S c #A1A5C0",
"D c #A7ABC7",
"F c #A7ACC7",
"G c #AAAECA",
"H c #B4B9D6",
/* pixels */
"NNNNNNNNNNNNNNNNNNNNNNNNNNNNNNNNNNNNNNNNNNNNNNNNNNNNNNNNNNNNNNMB",
"wwwwwwwwwwwwwwwwwwwwwwwwwwwwwwwwwwwwwwwwwwwwwwwwwwwwwwwwwwwwwww%",
"eeeeeeeeeeeeeeeeeeeeeeeeeeeeeeeeeeeeeeeeeeeeeeeeeeeeeeeeeeeeeee*",
"eeeeeeeeeeeeeeeeeeeeeeeeeeeeeeeeeeeeeeeeeeeeeeeeeeeeeeeeeeeeeee*",
"eeee8888888888888888888888888888888888qq8888888888888888888qeee*",
"eeeqXXXXXXXXXXXXXXXXXXXXXXXXXXXXXXXXXXXXXXXXXXXXXXXXXXXXXXX8eee*",
"eeeqXXXXXXXXXXXXXXXXXXXXXXXXXXXXXXXXXXXXXXXXXXXXXXXXXXXXXXX8eee*",
"eeeqXXXXXXXXXXXXXXXXXXXXXXXXXXXXXXXXXXXXXXXXXXXXXXXXXXXXXXX8eee*",
"eeerzzzzzzzk.XXXXXXXXXXXXXXXXXXXXXXXXXXXXXXXXXXXXXXXXXXXXXXqeee*",
"eeeaHHHHHHHG XXXXXXXXXXXXXXXXXXXXXXXXXXXXXXXXXXXXXXXXXXXXXXqeee*",
"eeeaHHHHHHHG XXXXXXXXXXXXXXXXXXXXXXXXXXXXXXXXXXXXXXXXXXXXXX8eee*",
"eeeaHHHHHHHG XXXXXXXXXXXXXXXXXXXXXXXXXXXXXXXXXXXXXXXXXXXXXX8eee*",
"eeeiAAASHHHG#&&$XXXXXXXXXXXXXXXXXXXXXXXXXXXXXXXXXXXXXXXXXXX8eee*",
"eeervvvmHHHG<33>XXXXXXXXXXXXXXXXXXXXXXXXXXXXXXXXXXXXXXXXXXX8eee*",
"eeervvvmHHHG<33>XXXXXXXXXXXXXXXXXXXXXXXXXXXXXXXXXXXXXXXXXXX8eee*",
"eeervvvmHHHG<33>XXXXXXXXXXXXXXXXXXXXXXXXXXXXXXXXXXXXXXXXXXX8eee*",
"eeervvvmHHHG<3334446yyyyyyy7XXXXXXXXXXXXXXXXXXXXXXXXXXXXXXX8eee*",
"eeervvvmHHHG<335pppfvvvvvvvgXXXXXXXXXXXXXXXXXXXXXXXXXXXXXXX8eee*",
"eeervvvmHHHG<335pppfvvvvvvvgXXXXXXXXXXXXXXXXXXXXXXXXXXXXXXX8eee*",
"eeervvvmHHHG<335pppfvvvvvvvgXXXXXXXXXXXXXXXXXXXXXXXXXXXXXXX8eee*",
"eeervvvmHHHG<335pppsjjjlvvvgOOOoXXXXXXXXXXXXXXXXXXXXXXXXXXX8eee*",
"eeervvvmHHHG<335pppppppfvvvg@@@OXXXXXXXXXXXXXXXXXXXXXXXXXXX8eee*",
"eeervvvmHHHG<335pppppppfvvvg@@@OXXXXXXXXXXXXXXXXXXXXXXXXXXX8eee*",
"eeervvvmHHHG<335pppppppfvvvg@@@OXXXXXXXXXXXXXXXXXXXXXXXXXXX8eee*",
"eeervvvmHHHG<335pppppppfvvvg@@@-,,,,,,,,,,,=XXXXXXXXXXXXXXX8eee*",
"eeervvvmHHHG<335pppppppfvvvg@@@,99999999999,XXXXXXXXXXXXXXX8eee*",
"eeervvvmHHHG<335pppppppfvvvg@@@,99999999999,XXXXXXXXXXXXXXX8eee*",
"eeervvvmHHHG<335pppppppfvvvg@@@,99999999999,XXXXXXXXXXXXXXX8eee*",
"eeervvvbCCCV1335pppppppfvvvg@@@,99999999999:XXXXXXXXXXXXXXX8eee*",
"eeervvvvvvvc2335pppppppfvvvg@@@,99999999999:XXXXXXXXXXXXXXX8eee*",
"eeervvvvvvvc2335pppppppfvvvg@@@,99999999999:XXXXXXXXXXXXXXX8eee*",
"eeervvvvvvvc2335pppppppfvvvg@@@,99999999999:XXXXXXXXXXXXXXX8eee*",
"eeervvvvvvvc2335pppppppfvvvg@@@,99999999999:XXX%;;;;;;;+XXX8eee*",
"eeervvvvvvvc2335pppppppfvvvg@@@,99999999999:XXX;3333333%XXX8eee*",
"eeervvvvvvvc2335pppppppfvvvg@@@,99999999999:XXX;3333333%XXX8eee*",
"eeervvvvvvvc2335pppppppfvvvg@@@,99999999999:XXX;3333333%XXX8eee*",
"eeervvvvvvvc2335pppppppshhhu@@@,99999999999:XXX;3333333%XXX8eee*",
"eeervvvvvvvc2335pppppppppppt@@@,99999999999:XXX;3333333%XXX8eee*",
"eeervvvvvvvc2335pppppppppppt@@@,99999999999:XXX;3333333%XXX8eee*",
"eeervvvvvvvc2335pppppppppppt@@@,99999999999:XXX;3333333%XXX8eee*",
"eeervvvvvvvc2335pppppppppppt@@@,99999999999:XXX;3333333%XXX8eee*",
"eeervvvvvvvc2335pppppppppppt@@@,99999999999:XXX;3333333%XXX8eee*",
"eeervvvvvvvc2335pppppppppppt@@@,99999999999:XXX;3333333%XXX8eee*",
"eeervvvvvvvx2335pppppppppppt@@@,99999999999:XXX;3333333%XXX8eee*",
"eeervvvnFDDZ<335pppppppfzzzd@@@,99999999999:XXX;3333333%XXX8eee*",
"eeervvvmHHHG<335pppppppfvvvg@@@,99999999999:XXX;3333333%XXX8eee*",
"eeervvvmHHHG<335pppppppfvvvg@@@,99999999999:XXX;3333333%XXX8eee*",
"eeervvvmHHHG<335pppppppfvvvg@@@,99999999999:XXX;3333333%XXX8eee*",
"eeervvvmHHHG<335pppppppfvvvg@@@,99999999999:XXX;3333333%XXX8eee*",
"eeervvvmHHHG<335pppppppfvvvg@@@,99999999999:XXX;3333333%XXX8eee*",
"eeervvvmHHHG<335pppppppfvvvg@@@,99999999999:XXX;3333333%XXX8eee*",
"eeervvvmHHHG<335pppppppfvvvg@@@,99999999999:XXX;3333333%XXX8eee*",
"eeervvvmHHHG<335pppppppfvvvg@@@,99999999999:XXX;3333333%XXX8eee*",
"eeervvvmHHHG<335pppppppfvvvg@@@,99999999999:XXX;3333333%XXX8eee*",
"eeervvvmHHHG<335pppppppfvvvg@@@,99999999999:XXX;3333333%XXX8eee*",
"eeervvvmHHHG<335pppppppfvvvg@@@,99999999999:XXX;3333333%XXX8eee*",
"eeervvvvmmmv2335pppppppfvvvg@@@,99999999999:XXX;3333333%XXX8eee*",
"eeervvvvvvvc2335pppppppfvvvg@@@,99999999999:XXX;3333333%XXX8eee*",
"eeervvvvvvvc2335pppppppfvvvg@@@,99999999999:XXX;3333333%XXX8eee*",
"eeervvvvvvvc2335pppppppfvvvg@@@,99999999999:XXX;3333333%XXX8eee*",
"eeeerrrrrrrrqqqwrrrrrrrrrrrrqqqqwwwwwwwwwwwqqqqqqqqqqqqqqqqeeee*",
"eeeeeeeeeeeeeeeeeeeeeeeeeeeeeeeeeeeeeeeeeeeeeeeeeeeeeeeeeeeeeee*",
"eeeeeeeeeeeeeeeeeeeeeeeeeeeeeeeeeeeeeeeeeeeeeeeeeeeeeeeeeeeeeee*",
"eeeeeeeeeeeeeeeeeeeeeeeeeeeeeeeeeeeeeeeeeeeeeeeeeeeeeeeeeeeeeee*"
};
