/* XPM */
static char *_3d672ba30804355b6d9f21df0b0834cBQNaQdyt0kT4leMi[] = {
/* columns rows colors chars-per-pixel */
"64 64 138 2 ",
"   c #000B1E",
".  c #502A16",
"X  c #512C18",
"o  c #592F1B",
"O  c #4E3A1A",
"+  c #503219",
"@  c #5D321D",
"#  c #503F1C",
"$  c #4F342F",
"%  c #523323",
"&  c #5B3627",
"*  c #623A25",
"=  c #2E7A29",
"-  c #367026",
";  c #327628",
":  c #317A29",
">  c #3C792A",
",  c #4D451D",
"<  c #4A491D",
"1  c #50401D",
"2  c #614628",
"3  c #7D402A",
"4  c #7D512C",
"5  c #764531",
"6  c #7F4533",
"7  c #794A36",
"8  c #7E513C",
"9  c #4C712A",
"0  c #467A2B",
"q  c #56732E",
"w  c #5A772C",
"e  c #497C30",
"r  c #567D35",
"t  c #65762D",
"y  c #6A7F3C",
"u  c #6E695F",
"i  c #86442D",
"p  c #834A2D",
"a  c #8F4C32",
"s  c #924F35",
"d  c #8E533B",
"f  c #915137",
"g  c #9E6D34",
"h  c #927A35",
"j  c #9D7937",
"k  c #B47F2B",
"l  c #A16D34",
"z  c #AD6A36",
"x  c #B36E35",
"c  c #A27437",
"v  c #B77034",
"b  c #B87233",
"n  c #B4703F",
"m  c #CE7E2E",
"M  c #D17F2E",
"N  c #815640",
"B  c #866B52",
"V  c #896C52",
"C  c #926C52",
"Z  c #996F56",
"A  c #8D7257",
"S  c #8F7459",
"D  c #AD7A46",
"F  c #B57141",
"G  c #B97647",
"H  c #BD7A4B",
"J  c #A67457",
"K  c #A47659",
"L  c #A77A5D",
"P  c #A97D5F",
"I  c #816F61",
"U  c #AA7E61",
"Y  c #2D822C",
"T  c #31832D",
"R  c #338A30",
"E  c #3B9636",
"W  c #399A37",
"Q  c #3B9D38",
"!  c #3BA13A",
"~  c #4A8D3C",
"^  c #54833E",
"/  c #459837",
"(  c #479F3A",
")  c #519438",
"_  c #6D803D",
"`  c #568B41",
"'  c #789156",
"]  c #7F935A",
"[  c #4FA343",
"{  c #5BA549",
"}  c #74A34B",
"|  c #7CAC5D",
" . c #938037",
".. c #C4802B",
"X. c #D6822C",
"o. c #D9863F",
"O. c #BD885C",
"+. c #80AC5E",
"@. c #84AE61",
"#. c #89AF64",
"$. c #91B169",
"%. c #A2B674",
"&. c #DB8A45",
"*. c #DA9557",
"=. c #D59558",
"-. c #DC9759",
";. c #DC995B",
":. c #D48B69",
">. c #DE916C",
",. c #DF9975",
"<. c #E19265",
"1. c #E3956C",
"2. c #E69873",
"3. c #E89B75",
"4. c #CFA06F",
"5. c #E4A479",
"6. c #EBA47C",
"7. c #E3AC7A",
"8. c #EEA87F",
"9. c #F2A77A",
"0. c #F3A97B",
"q. c #D6BA94",
"w. c #F5AD82",
"e. c #F8AF84",
"r. c #F8B186",
"t. c #F7B58A",
"y. c #E8C194",
"u. c #E0C59D",
"i. c #EAC598",
"p. c #E2CC9D",
"a. c #E6CCA0",
"s. c #ECCDA2",
"d. c #F0CDA2",
"f. c #EFD1A6",
"g. c #F6DDBD",
"h. c #F8E3C4",
"j. c #FDEBCE",
"k. c #FFF2D5",
/* pixels */
"f.f.f.f.f.f.f.f.f.f.f.f.f.f.f.f.f.f.f.f.%.#.#.#.#.#.#.#.#.#.#.#.#.#.#.#.a.f.f.f.f.f.f.f.f.f.f.f.f.f.f.f.f.f.f.f.f.f.f.f.f.f.f.f.",
"f.f.f.f.f.f.f.f.f.f.f.f.f.f.f.f.f.f.f.f.| ! ! ! ! ! ! ! ! ! ! ! ! ! ! ! p.f.f.f.f.f.f.f.f.f.f.f.f.f.f.f.f.f.f.f.f.f.f.f.f.f.f.f.",
"f.f.f.f.f.f.f.f.f.f.f.f.f.f.f.f.f.f.f.f.| ! ! ! ! ! ! ! ! ! ! ! ! ! ! ! p.f.f.f.f.f.f.f.f.f.f.f.f.f.f.f.f.f.f.f.f.f.f.f.f.f.f.f.",
"f.f.f.f.f.f.f.f.f.f.f.f.f.f.f.f.f.f.f.f.| ! ! ! ! ! ! ! ! ! ! ! ! ! ! ! p.f.f.f.f.f.f.f.f.f.f.f.f.f.f.f.f.f.f.f.f.f.f.f.f.f.f.f.",
"f.f.f.f.f.f.f.f.f.f.f.f.%.@.@.@.@.@.@.@.[ ! ! ! ! ! ! ! ! ! ! !  .j j j =.;.;.;.;.;.;.;.;.;.;.;.s.f.f.f.f.f.f.f.f.f.f.f.f.f.f.f.",
"f.f.f.f.f.f.f.f.f.f.f.f.+.! ! ! ! ! ! ! ! ! ! ! ! ! ! ! ! ! ! ! c z z z M X.X.X.X.X.X.X.X.X.X.X.s.f.f.f.f.f.f.f.f.f.f.f.f.f.f.f.",
"f.f.f.f.f.f.f.f.f.f.f.f.+.! ! ! ! ! ! ! ! ! ! ! ! ! ! ! ! ! ! ! c z z z M X.X.X.X.X.X.X.X.X.X.X.s.f.f.f.f.f.f.f.f.f.f.f.f.f.f.f.",
"f.f.f.f.f.f.f.f.f.f.f.f.+.! ! ! ! ! ! ! ! ! ! ! ! ! ! ! ! ! ! ! c z z z M X.X.X.X.X.X.X.X.X.X.X.s.f.f.f.f.f.f.f.f.f.f.f.f.f.f.f.",
"f.f.f.f.f.f.f.f.%.+.+.+.~ T T T W ! ! ! R T T T T T T T h j j j z z z z x v v v v v v v v v v x *.-.-.-.s.f.f.f.f.f.f.f.f.f.f.f.",
"f.f.f.f.f.f.f.f.@.! ! ! T = = = W ! ! ! T = = = = = = = l z z z z z z z z z z z z z z z z z z z X.X.X.X.s.f.f.f.f.f.f.f.f.f.f.f.",
"f.f.f.f.f.f.f.f.@.! ! ! T = = = W ! ! ! T = = = = = = = l z z z z z z z z z z z z z z z z z z z X.X.X.X.s.f.f.f.f.f.f.f.f.f.f.f.",
"f.f.f.f.f.f.f.f.@.! ! ! T = = = W ! ! ! T = = = = = = = l z z z z z z z z z z z z z z z z z z z X.X.X.X.s.f.f.f.f.f.f.f.f.f.f.f.",
"f.f.f.f.%.| | | [ ! ! ! T = = = T T T T 4.5.5.5.D g g g z z z z z z z z m m m m m m m m x z z z y.i.i.i.f.f.f.f.f.f.f.f.f.f.f.f.",
"f.f.f.f.@.! ! ! ! ! ! ! T = = = = = = = 5.e.e.e.H z z z z z z z z z z z M X.X.X.X.X.X.X.x z z z s.f.f.f.f.f.f.f.f.f.f.f.f.f.f.f.",
"f.f.f.f.@.! ! ! ! ! ! ! T = = = = = = = 5.e.e.e.H z z z z z z z z z z z M X.X.X.X.X.X.X.x z z z s.f.f.f.f.f.f.f.f.f.f.f.f.f.f.f.",
"f.f.f.f.@.! ! ! ! ! ! ! T = = = = = = = 5.e.e.e.H z z z z z z z z z z z M X.X.X.X.X.X.X.x z z z s.f.f.f.f.f.f.f.f.f.f.f.f.f.f.f.",
"f.f.f.f.@.! ! ! R T T T = = = = k ......6.e.e.e.8.6.6.6.G z z z m m m m <.1.1.1.g.h.h.h.,.>.>.>.s.f.f.f.f.f.f.f.K J J J f.f.f.f.",
"f.f.f.f.@.! ! ! T = = = = = = = ..X.X.X.9.e.e.e.e.e.e.e.H z z z M X.X.X.1.2.2.2.j.k.k.k.6.2.2.2.s.f.f.f.f.f.f.f.f a a a f.f.f.f.",
"f.f.f.f.@.! ! ! T = = = = = = = ..X.X.X.9.e.e.e.e.e.e.e.H z z z M X.X.X.1.2.2.2.j.k.k.k.6.2.2.2.s.f.f.f.f.f.f.f.f a a a f.f.f.f.",
"f.f.f.f.@.! ! ! T = = = = = = = ..X.X.X.9.e.e.e.e.e.e.e.H z z z M X.X.X.1.2.2.2.j.k.k.k.6.2.2.2.s.f.f.f.f.f.f.f.f a a a f.f.f.f.",
"f.f.f.f.@.! ! ! T = = = k ......b x x x 1.3.3.3.w.e.e.e.&.M M M <.1.1.1.2.2.2.2.I u u u 8.w.w.w.t.t.t.t.6.6.6.6.s a a a C C C C ",
"f.f.f.f.@.! ! ! T = = = ..X.X.X.x z z z >.2.2.2.w.e.e.e.&.X.X.X.1.2.2.2.2.2.2.2.$       w.e.e.e.e.e.e.e.2.2.2.2.s a a a 5 5 5 5 ",
"f.f.f.f.@.! ! ! T = = = ..X.X.X.x z z z >.2.2.2.w.e.e.e.&.X.X.X.1.2.2.2.2.2.2.2.$       w.e.e.e.e.e.e.e.2.2.2.2.s a a a 5 5 5 5 ",
"f.f.f.f.@.! ! ! T = = = ..X.X.X.x z z z >.2.2.2.w.e.e.e.&.X.X.X.1.2.2.2.2.2.2.2.$       w.e.e.e.e.e.e.e.2.2.2.2.s a a a 5 5 5 5 ",
"f.f.f.f.a.p.p.p.' = = = ..X.X.X.x z z z n F F F 1.3.3.3.o.X.X.X.9.w.w.w.w.w.w.w.6.6.6.6.w.e.e.e.d.d.d.d.s.s.s.s.f a a a 5 5 5 5 ",
"f.f.f.f.f.f.f.f.] = = = ..X.X.X.x z z z z z z z >.2.2.2.o.X.X.X.0.e.e.e.e.e.e.e.e.e.e.e.e.e.e.e.s.f.f.f.f.f.f.f.f a a a 5 5 5 5 ",
"f.f.f.f.f.f.f.f.] = = = ..X.X.X.x z z z z z z z >.2.2.2.o.X.X.X.0.e.e.e.e.e.e.e.e.e.e.e.e.e.e.e.s.f.f.f.f.f.f.f.f a a a 5 5 5 5 ",
"f.f.f.f.f.f.f.f.] = = = ..X.X.X.x z z z z z z z >.2.2.2.o.X.X.X.0.e.e.e.e.e.e.e.e.e.e.e.e.e.e.e.s.f.f.f.f.f.f.f.f a a a 5 5 5 5 ",
"f.f.f.f.f.f.f.f.a.a.a.a.O.x x x z z z z t 0 0 0 r r r r l x x x 1.3.3.3.3.3.3.3.w.e.e.e.3.3.3.3.s.f.f.f.f.f.f.f.f a a a 5 5 5 5 ",
"f.f.f.f.f.f.f.f.f.f.f.f.O.z z z z z z z w = = = = = = = l z z z >.2.2.2.2.2.2.2.w.e.e.e.2.2.2.2.s.f.f.f.f.f.f.f.f a a a 5 5 5 5 ",
"f.f.f.f.f.f.f.f.f.f.f.f.O.z z z z z z z w = = = = = = = l z z z >.2.2.2.2.2.2.2.w.e.e.e.2.2.2.2.s.f.f.f.f.f.f.f.f a a a 5 5 5 5 ",
"f.f.f.f.f.f.f.f.f.f.f.f.O.z z z z z z z w = = = = = = = l z z z >.2.2.2.2.2.2.2.w.e.e.e.3.2.2.2.s.f.f.f.f.f.f.f.f a a a 5 5 5 5 ",
"f.f.f.f.f.f.f.f.U d d d q > > > / ( ( ( Q W W W T = = = > > > > 0 e e e e e e e 2 * * * * * * * d d d d w.r.r.r.s a a a 5 5 5 5 ",
"f.f.f.f.f.f.f.f.K i i i 9 = = = W ! ! ! ! ! ! ! T = = = = = = = = = = = = = = = O X X X X X X X i i i i w.e.e.e.s a a a 5 5 5 5 ",
"f.f.f.f.f.f.f.f.K i i i 9 = = = W ! ! ! ! ! ! ! T = = = = = = = = = = = = = = = O X X X X X X X i i i i w.e.e.e.s a a a 5 5 5 5 ",
"f.f.f.f.f.f.f.f.K i i i 9 = = = W ! ! ! ! ! ! ! Y = = = = = = = = = = = = = = = O X X X X X X X i i i i w.e.e.e.s a a a 5 5 5 5 ",
"f.f.f.f.P a a a i i i i i i i i ) ! ! ! 7.w.w.w.w.w.w.w.w.w.w.w.} ! ! ! ! ! ! ! : = = = p i i i i i i i w.e.e.e.s a a a 5 5 5 5 ",
"f.f.f.f.L i i i i i i i i i i i ) ! ! ! 7.e.e.e.e.e.e.e.e.e.e.e.} ! ! ! ! ! ! ! = = = = p i i i i i i i w.e.e.e.s a a a 5 5 5 5 ",
"f.f.f.f.L i i i i i i i i i i i ) ! ! ! 7.e.e.e.e.e.e.e.e.e.e.e.} ! ! ! ! ! ! ! = = = = p i i i i i i i w.e.e.e.s a a a 5 5 5 5 ",
"f.f.f.f.L i i i i i i i i i i i ) ! ! ! 7.e.e.e.e.e.e.e.e.e.e.e.} ! ! ! ! ! ! ! = = = = p i i i i i i i w.e.e.e.s a a a 5 5 5 5 ",
"f.f.f.f.L i i i i i i i i i i i @ X X X 5.e.e.e.e.e.e.e.3.2.2.2._ = = = W ! ! ! ! ! ! ! # X X X X X X . s.f.f.f.f a a a 5 5 5 5 ",
"f.f.f.f.L i i i i i i i i i i i @ X X X 5.e.e.e.e.e.e.e.3.2.2.2.y = = = W ! ! ! ! ! ! ! # X X X X X X . s.f.f.f.f a a a 5 5 5 5 ",
"f.f.f.f.L i i i i i i i i i i i @ X X X 5.e.e.e.e.e.e.e.3.2.2.2.y = = = W ! ! ! ! ! ! ! # X X X X X X . s.f.f.f.f a a a 5 5 5 5 ",
"f.f.f.f.L i i i i i i i i i i i @ X X X 5.e.e.e.e.e.e.e.3.2.2.2.y = = = W ! ! ! ! ! ! ! 1 X X X X X X . s.f.f.f.f a a a 5 5 5 5 ",
"f.f.f.f.A X X X X X X X 3 i i i @ X X X :.2.2.2.2.2.2.2.y = = = = = = = W ! ! ! , X X . a.f.f.f.f.f.f.f.f.f.f.f.f a a a 5 5 5 5 ",
"f.f.f.f.A X X X X X X X 3 i i i @ X X X :.2.2.2.2.2.2.2._ = = = = = = = W ! ! ! , X X X a.f.f.f.f.f.f.f.f.f.f.f.f a a a 5 5 5 5 ",
"f.f.f.f.A X X X X X X X 3 i i i @ X X X :.2.2.2.2.2.2.2._ = = = = = = = W ! ! ! , X X X a.f.f.f.f.f.f.f.f.f.f.f.f a a a 5 5 5 5 ",
"f.f.f.f.S % % % + X X X 3 i i i @ X X X :.2.2.2.2.2.2.2.y : : : : : : : W ! ! ! , X X X a.f.f.f.f.f.f.f.f.f.f.f.f a a a 7 7 7 7 ",
"f.f.f.f.f.f.f.f.] = = = , X X X X X X X - = = = = = = = 4 i i i i i i i o X X X X X X X a.f.f.f.f.f.f.f.f.f.f.f.7 5 5 5 f.f.f.f.",
"f.f.f.f.f.f.f.f.] = = = , X X X X X X X - = = = = = = = 4 i i i i i i i @ X X X X X X X a.f.f.f.f.f.f.f.f.f.f.f.7 5 5 5 f.f.f.f.",
"f.f.f.f.f.f.f.f.] = = = , X X X X X X X - = = = = = = = 4 i i i i i i i @ X X X X X X X a.f.f.f.f.f.f.f.f.f.f.f.7 5 5 5 f.f.f.f.",
"f.f.f.f.f.a.a.a.] = = = < + + + + + + + - = = = = = = = 4 p p p p i i i @ + + + + + + + a.f.f.f.f.f.f.f.f.f.f.f.N 8 8 8 f.f.f.f.",
"f.f.f.f.@.! ! ! ! ! ! ! T = = = = = = = = = = = W ! ! ! ! ! ! ! T = = = = = = = = = = = a.f.f.f.f.f.f.f.f.f.f.f.f.f.f.f.f.f.f.f.",
"f.f.f.f.@.! ! ! ! ! ! ! T = = = = = = = = = = = W ! ! ! ! ! ! ! T = = = = = = = = = = = a.f.f.f.f.f.f.f.f.f.f.f.f.f.f.f.f.f.f.f.",
"f.f.f.f.@.! ! ! ! ! ! ! T = = = = = = = = = = = W ! ! ! ! ! ! ! T = = = = = = = = = = = a.f.f.f.f.f.f.f.f.f.f.f.f.f.f.f.f.f.f.f.",
"f.f.f.f.$.{ { { { { { { ` ^ ^ ^ > ; ; ; ; ; ; ; E Q Q Q Q Q Q Q ^ ^ ^ ^ ^ ^ ^ ^ ^ ^ ^ ^ a.f.f.f.f.f.f.f.f.f.f.f.f.f.f.f.f.f.f.f.",
"f.f.f.f.f.f.f.f.f.f.f.f.f.f.f.f.B X X X X X X X X X X X X X X X u.f.f.f.f.f.f.f.f.f.f.f.f.f.f.f.f.f.f.f.f.f.f.f.f.f.f.f.f.f.f.f.",
"f.f.f.f.f.f.f.f.f.f.f.f.f.f.f.f.B X X X X X X X X X X X X X X X u.f.f.f.f.f.f.f.f.f.f.f.f.f.f.f.f.f.f.f.f.f.f.f.f.f.f.f.f.f.f.f.",
"f.f.f.f.f.f.f.f.f.f.f.f.f.f.f.f.B X X X X X X X X X X X X X X X u.f.f.f.f.f.f.f.f.f.f.f.f.f.f.f.f.f.f.f.f.f.f.f.f.f.f.f.f.f.f.f.",
"f.f.f.f.f.f.f.f.f.f.f.f.f.f.f.f.V o o o o o o o X X X X X X X X q.u.u.u.f.f.f.f.f.f.f.f.f.f.f.f.f.f.f.f.f.f.f.f.f.f.f.f.f.f.f.f.",
"f.f.f.f.f.f.f.f.f.f.f.f.f.f.f.f.K i i i i i i i @ X X X X X X X X X X X u.f.f.f.f.f.f.f.f.f.f.f.f.f.f.f.f.f.f.f.f.f.f.f.f.f.f.f.",
"f.f.f.f.f.f.f.f.f.f.f.f.f.f.f.f.K i i i i i i i @ X X X X X X X X X X X u.f.f.f.f.f.f.f.f.f.f.f.f.f.f.f.f.f.f.f.f.f.f.f.f.f.f.f.",
"f.f.f.f.f.f.f.f.f.f.f.f.f.f.f.f.K i i i i i i i @ X X X X X X X X X X X u.f.f.f.f.f.f.f.f.f.f.f.f.f.f.f.f.f.f.f.f.f.f.f.f.f.f.f.",
"u.u.u.u.u.u.u.u.u.u.u.u.u.u.u.u.Z 6 6 6 6 6 6 6 & % % % % % % % % % % % q.u.u.u.u.u.u.u.u.u.u.u.u.u.u.u.u.u.u.u.u.u.u.u.u.u.u.u."
};
