/* XPM */
static char *_8196800653c4714cdd7f7dc5bbd0563DjGjfFAq3yZ1g2tb[] = {
/* columns rows colors chars-per-pixel */
"64 64 154 2 ",
"   c #0A0B12",
".  c #00061C",
"X  c #010B1D",
"o  c #0C1012",
"O  c #141414",
"+  c #1B1B1B",
"@  c #271B17",
"#  c #1B3B19",
"$  c #352016",
"%  c #3A251C",
"&  c #221F22",
"*  c #1E2021",
"=  c #222222",
"-  c #402416",
";  c #45261D",
":  c #42281C",
">  c #4A2B1D",
",  c #502C18",
"<  c #5C321E",
"1  c #4E2F23",
"2  c #532F22",
"3  c #592E20",
"4  c #5B3326",
"5  c #613724",
"6  c #6A3722",
"7  c #60372A",
"8  c #6C3929",
"9  c #703A24",
"0  c #3E431F",
"q  c #244023",
"w  c #285727",
"e  c #2E6D2D",
"r  c #3E6423",
"t  c #2D7A29",
"y  c #367026",
"u  c #4B451C",
"i  c #445620",
"p  c #70412D",
"a  c #7D402A",
"s  c #794B2A",
"d  c #655727",
"f  c #6D5E2B",
"g  c #7A522C",
"h  c #764531",
"j  c #7B4631",
"k  c #7D513D",
"l  c #7C6030",
"z  c #727132",
"x  c #7C5945",
"c  c #86442D",
"v  c #8B562E",
"b  c #864932",
"n  c #8F4C33",
"m  c #805137",
"M  c #815139",
"N  c #9A5739",
"B  c #A75E34",
"V  c #AC6234",
"C  c #AD6A35",
"Z  c #B56735",
"A  c #B66F34",
"S  c #BF7432",
"D  c #CF7E2F",
"F  c #D27F2E",
"G  c #C47235",
"H  c #C77930",
"J  c #CD7836",
"K  c #D57E36",
"L  c #895740",
"P  c #965D45",
"I  c #9F5D42",
"U  c #99654C",
"Y  c #9E6B51",
"T  c #A3694D",
"R  c #A76F55",
"E  c #A57457",
"W  c #A57459",
"Q  c #BA7A5D",
"!  c #C77F55",
"~  c #C77F5F",
"^  c #2F802F",
"/  c #30832D",
"(  c #338132",
")  c #338B31",
"_  c #369335",
"`  c #399A37",
"'  c #399C38",
"]  c #3BA13A",
"[  c #528131",
"{  c #628635",
"}  c #638C3D",
"|  c #68923E",
" . c #758140",
".. c #759A43",
"X. c #7E9D42",
"o. c #6DA348",
"O. c #8D8437",
"+. c #D6822D",
"@. c #D98037",
"#. c #EB8D38",
"$. c #FC9839",
"%. c #848844",
"&. c #BF9548",
"*. c #BD8050",
"=. c #B98D5E",
"-. c #82B64B",
";. c #82A450",
":. c #9BBF53",
">. c #BE8C61",
",. c #DF8E4D",
"<. c #C09548",
"1. c #CF8B5F",
"2. c #D88D58",
"3. c #DC925D",
"4. c #E4965D",
"5. c #C68B6A",
"6. c #CA8A68",
"7. c #D08866",
"8. c #D28A69",
"9. c #D3926B",
"0. c #DC906A",
"q. c #D59A69",
"w. c #E79A63",
"e. c #E39469",
"r. c #EB9F6C",
"t. c #E69873",
"y. c #EA9D77",
"u. c #E19E78",
"i. c #C9AA6E",
"p. c #DFA16D",
"a. c #E2A678",
"s. c #EDA37A",
"d. c #ECA57B",
"f. c #F1A67D",
"g. c #AAC859",
"h. c #B6C95B",
"j. c #C7C460",
"k. c #DFCC63",
"l. c #DCD667",
"z. c #E2E36D",
"x. c #ECE26E",
"c. c #F9F577",
"v. c #AAA18F",
"b. c #C9A285",
"n. c #F5AC82",
"m. c #F8AF84",
"M. c #E7C19C",
"N. c #E9C4A6",
"B. c #F0CFAB",
"V. c #F5D4B6",
"C. c #F1DFC2",
"Z. c #F7E1C2",
"A. c #F8E1C2",
"S. c #FFF2D5",
/* pixels */
"+ + + + + + + + + + + + + + + + + + + + + w ^ ^ ^ ^ ^ ^ ^ ^ ^ ^ ^ ^ ( ( ( ( ( ( ( ( ( ( ( ( ( ( ( ( ( + + + + + + + + + + + + + ",
"+ = = = = = = = = = = = = = = = = = = = = e ] ] ] ] ] ] ] ] ] ] ] ] ] ] ] ] ] ] ] ] ] ] ] ] ] ] ] ] ] O O O O O O O O O O O O O ",
"+ = = = = = = = = = = = = = = = = = = = = e ] ] ] ] ] ] ] ] ] ] ] ] ] ] ] ] ] ] ] ] ] ] ] ] ] ] ] ] ] O O O O O O O O O O O O O ",
"+ = = = = = = = = = = = = = = = = = = = = e ] ] ] ] ] ] ] ] ] ] ] ] ] ] ] ] ] ] ] ] ] ] ] ] ] ] ] ] ] O O O O O O O O O O O O O ",
"+ = = = = = = = = = = = = = = = = w e e e ..g.g.g.g.g.g.g.g.g.g.g.g.g.g.g.g.g.g.g.g.g.g.g.g.:._ _ _ _ O O O O O O O O O O O O O ",
"+ = = = = = = = = = = = = = = = = ( ] ] ] g.c.c.c.c.c.c.c.c.c.c.c.c.c.c.c.c.c.c.c.c.c.c.c.c.z.t t t t O O O O O O O O O O O O O ",
"+ = = = = = = = = = = = = = = = = ( ] ] ] g.c.c.c.c.c.c.c.c.c.c.c.c.c.c.c.c.c.c.c.c.c.c.c.c.z.t t t t O O O O O O O O O O O O O ",
"+ = = = = = = = = = = = = = = = = ( ] ] ] g.c.c.c.c.c.c.c.c.c.c.c.c.c.c.c.c.c.c.c.c.c.c.c.c.z.t t t t O O O O O O O O O O O O O ",
"+ = = = = = = = = = = = = = = = = | -.-.-.h.x.x.x.x.x.x.x.x.x.x.x.x.x.x.x.x.x.x.x.x.x.x.x.x.l.X.X.X.X.O O O O O O O O O O O O O ",
"+ = = = = = = = = = = = = = = = = j.c.c.c.k.C C C C C C C C C C C C C C C C C C C C C C C C <.c.c.c.c.  O O O O O O O O O O O O ",
"+ = = = = = = = = = = = = = = = = j.c.c.c.k.C C C C C C C C C C C C C C C C C C C C C C C C <.c.c.c.c.  O O O O O O O O O O O O ",
"+ = = = = = = = = = = = = = = = = j.c.c.c.k.C C C C C C C C C C C C C C C C C C C C C C C C <.c.c.c.c.  O O O O O O O O O O O O ",
"+ = = = = = = = = * * * * = = = = j.c.c.c.k.C C C C C C C C C C C C C C C C C C C C C C C C &.c.c.c.c.  O O O o o o o O O O O O ",
"+ = = = = = = = * m.m.m.m.x = = = v C C C S +.+.+.+.+.+.+.+.+.+.+.+.A C C C C C C C S +.+.+.D C C C C O O O O u.m.m.m.E O O O O ",
"+ = = = = = = = * m.m.m.m.x = = = v C C C S +.+.+.+.+.+.+.+.+.+.+.+.A C C C C C C C S +.+.+.D C C C C O O O O u.m.m.m.E O O O O ",
"+ = = = = = = = * m.m.m.m.x = = = v C C C S +.+.+.+.+.+.+.+.+.+.+.+.A C C C C C C C S +.+.+.D C C C C O O O O u.m.m.m.E O O O O ",
"+ = = = = = = = * m.m.m.m.x = = = v C C C S +.+.+.+.+.+.+.+.+.+.+.+.A C C C C C C C S +.+.+.D C C C C O O O O u.m.m.m.E O O O O ",
"+ = = = = = = = * m.m.m.m.a.u.u.u.2.D D D F +.+.+.q.Z.Z.Z.A.e.e.e.e.0.0.0.0.N.C.C.C.M.+.+.+.+.D D D D u.u.u.u.n.m.m.m.E O O O O ",
"+ = = = = = = = * m.m.m.m.m.m.m.m.4.+.+.+.+.+.+.+.p.S.S.S.S.t.t.t.t.t.t.t.t.V.S.S.S.B.+.+.+.+.+.+.+.+.m.m.m.m.m.m.m.m.E O O O O ",
"+ = = = = = = = * m.m.m.m.m.m.m.m.4.+.+.+.+.+.+.+.p.S.S.S.S.t.t.t.t.t.t.t.t.V.S.S.S.B.+.+.+.+.+.+.+.+.m.m.m.m.m.m.m.m.E O O O O ",
"+ = = = = = = = * m.m.m.m.m.m.m.m.4.+.+.+.+.+.+.+.p.S.S.S.S.t.t.t.t.t.t.t.t.V.S.S.S.B.+.+.+.+.+.+.+.+.m.m.m.m.m.m.m.m.E O O O O ",
"+ = = = = = = = * s.s.s.s.n.m.m.m.4.+.+.+.,.r.r.r.u.v.v.v.v.f.f.f.f.f.f.f.f.b.v.v.v.b.r.r.r.w.+.+.+.+.m.m.m.m.f.s.s.s.Y O O O O ",
"+ = = = = = = = * t.t.t.t.n.m.m.m.4.+.+.+.4.m.m.m.u.X X X . m.m.m.m.m.m.m.m.W X X X W m.m.m.f.+.+.+.+.m.m.m.m.y.t.t.t.U O O O O ",
"+ = = = = = = = * t.t.t.t.n.m.m.m.4.+.+.+.4.m.m.m.u.X X X . m.m.m.m.m.m.m.m.W X X X W m.m.m.f.+.+.+.+.m.m.m.m.y.t.t.t.U O O O O ",
"+ = = = = = = = * t.t.t.t.n.m.m.m.4.+.+.+.4.m.m.m.u.X X X . m.m.m.m.m.m.m.m.W X X X W m.m.m.f.+.+.+.+.m.m.m.m.y.t.t.t.U O O O O ",
"+ = = = = = = = = Q Q Q Q y.f.f.f.2.H H H 3.m.m.m.d.W W W W m.m.m.m.m.m.m.m.9.W W W 9.m.m.m.d.H H H H f.f.f.f.6.Q Q Q k O O O O ",
"+ = = = = = = = = = = = = 8.t.t.t.! C C C 1.m.m.m.m.m.m.m.m.m.m.m.m.m.m.m.m.m.m.m.m.m.m.m.m.d.C C C C t.t.t.t.M , , , $ O O O O ",
"+ = = = = = = = = = = = = 8.t.t.t.! C C C 1.m.m.m.m.m.m.m.m.m.m.m.m.m.m.m.m.m.m.m.m.m.m.m.m.d.C C C C t.t.t.t.M , , , $ O O O O ",
"+ = = = = = = = = = = = = 8.t.t.t.! C C C 1.m.m.m.m.m.m.m.m.m.m.m.m.m.m.m.m.m.m.m.m.m.m.m.m.d.C C C C t.t.t.t.M , , , $ O O O O ",
"+ = = = = = = = = = = = = >.q.q.q.*.C C C 1.m.m.m.m.m.m.m.m.u.u.u.u.u.u.u.u.f.m.m.m.n.n.n.n.s.C C C C 9.9.9.9.m < < < % O O O O ",
"+ = = = = = = = = = = = = _ ] ] ] O.C C C 1.m.m.m.m.m.m.m.m.. X X X X X X X 5.m.m.m.f.t.t.t.0.C C C C t t t t g c c c 3 O O O O ",
"+ = = = = = = = = = = = = _ ] ] ] O.C C C 1.m.m.m.m.m.m.m.m.. X X X X X X X 5.m.m.m.f.t.t.t.0.C C C C t t t t g c c c 3 O O O O ",
"+ = = = = = = = = = = = = _ ] ] ] O.C C C 1.m.m.m.m.m.m.m.m.. X X X X X X X 5.m.m.m.f.t.t.t.0.C C C C t t t t g c c c 3 O O O O ",
"+ = = = = = = = = = = = = _ ] ] ] O.C C C 1.m.m.m.m.m.m.m.m.. . . . . . . . 5.m.m.m.f.t.t.t.0.C C C C t t t t g c c c 3 O O O O ",
"+ O O O ; n n n n n n n n n n n n n n n n b h h h P t.t.t.t.t.t.t.t.t.t.t.t.t.t.t.t.=.t t t ^ ] ] ] ] , , , , a c c c c c c c 8 ",
"+ O O O ; n n n n n n n n n n n n n n n n b h h h P t.t.t.t.t.t.t.t.t.t.t.t.t.t.t.t.=.t t t / ] ] ] ] , , , , a c c c c c c c 8 ",
"+ O O O ; n n n n n n n n n n n n n n n n b h h h P t.t.t.t.t.t.t.t.t.t.t.t.t.t.t.t.=.t t t / ] ] ] ] , , , , a c c c c c c c 8 ",
"+ O O O ; n n n n n n n n n n n n n n n n b h h h P t.t.t.t.t.t.t.t.t.t.t.t.t.t.t.t.=.t t t / ] ] ] ] , , , , a c c c c c c c 8 ",
"4 c c c c n n n n #.#.#.#.#.#.#.#.A n n n n n n n n P P P P  . . . . . . . . . . . .} ` ` ` ' ] ] ] ] 8.8.8.8.N c c c 9 < < < > ",
"7 n n n n n n n n $.$.$.$.$.$.$.$.G n n n n n n n n h h h h t t t t t t t t t t t t ) ] ] ] ] ] ] ] ] t.t.t.t.I c c c 6 , , , : ",
"7 n n n n n n n n $.$.$.$.$.$.$.$.G n n n n n n n n h h h h t t t t t t t t t t t t ) ] ] ] ] ] ] ] ] t.t.t.t.I c c c 6 , , , : ",
"7 n n n n n n n n $.$.$.$.$.$.$.$.G n n n n n n n n h h h h t t t t t t t t t t t t ) ] ] ] ] ] ] ] ] t.t.t.t.I c c c 6 , , , : ",
"7 n n n n n n n n G G G G G G G G B n n n n n n n n h h h h i i i i f f f f [ _ _ _ ` ] ] ] o.i.i.i.i.f.f.f.f.7.~ ~ ~ L , , , : ",
"7 n n n n n n n n n n n n n n n n n n n n n n n n n h h h h , , , , a c c c { ] ] ] ] ] ] ] ;.m.m.m.m.m.m.m.m.y.t.t.t.T , , , : ",
"7 n n n n n n n n n n n n n n n n n n n n n n n n n h h h h , , , , a c c c { ] ] ] ] ] ] ] ;.m.m.m.m.m.m.m.m.y.t.t.t.T , , , : ",
"7 n n n n n n n n n n n n n n n n n n n n n n n n n h h h h , , , , a c c c { ] ] ] ] ] ] ] ;.m.m.m.m.m.m.m.m.y.t.t.t.T , , , : ",
"7 n n n N G G G G n n n n n n n n Z G G G Z n n n n h h h h i i i i s c c c z { { { { { { { %.9.9.9.9.m.m.m.m.f.s.s.s.6.T T T L ",
"7 n n n V $.$.$.$.n n n n n n n n @.$.$.$.@.n n n n h h h h t t t t g c c c c c c c c c c c c c c c c m.m.m.m.m.m.m.m.s.t.t.t.Q ",
"7 n n n V $.$.$.$.n n n n n n n n @.$.$.$.@.n n n n h h h h t t t t g c c c c c c c c c c c c c c c c m.m.m.m.m.m.m.m.s.t.t.t.Q ",
"7 n n n V $.$.$.$.n n n n n n n n @.$.$.$.@.n n n n h h h h t t t t g c c c c c c c c c c c c c c c c m.m.m.m.m.m.m.m.s.t.t.t.Q ",
"7 n n n B #.#.#.#.V V V V V V V V K #.#.#.J n n n n h h h h y y y y s a a a s g g g g g g g g g g g g a.a.a.a.n.m.m.m.t.8.8.8.R ",
"7 n n n n n n n n $.$.$.$.$.$.$.$.G n n n n n n n n h h h h , , , , , , , , r t t t t t t t t t t t t t t t t a.m.m.m.W = = = = ",
"7 n n n n n n n n $.$.$.$.$.$.$.$.G n n n n n n n n h h h h , , , , , , , , r t t t t t t t t t t t t t t t t a.m.m.m.W = = = = ",
"7 n n n n n n n n $.$.$.$.$.$.$.$.G n n n n n n n n h h h h , , , , , , , , r t t t t t t t t t t t t t t t t a.m.m.m.W = = = = ",
"7 n n n n n n n n $.$.$.$.$.$.$.$.G n n n n n n n n h h h h , , , , , , , , r t t t t t t t t t t t t t t t t a.m.m.m.W = = = = ",
"7 n n n n n n n n n n n n n n n n n n n n b h h h h h h h h t t t t t t t t t t t t ) ] ] ] ] ] ] ] ] & = = = * * * * = = = = = ",
"7 n n n n n n n n n n n n n n n n n n n n b h h h h h h h h t t t t t t t t t t t t ) ] ] ] ] ] ] ] ] = = = = = = = = = = = = = ",
"7 n n n n n n n n n n n n n n n n n n n n b h h h h h h h h t t t t t t t t t t t t ) ] ] ] ] ] ] ] ] = = = = = = = = = = = = = ",
"7 n n n n n n n n n n n n n n n n n n n n b h h h h h h h h t t t t t t t t t t t t ) ] ] ] ] ] ] ] ] = = = = = = = = = = = = = ",
"> ; ; ; 2 j j j j j j j j j j j j j j j j j h h h p < < < < # # # # # q q q 0 u u u d l l l l l l l l = = = = = = = = = = = = = ",
"- O O O % h h h h h h h h h h h h h h h h h h h h p , , , , O O O O = = = = : , , , 6 c c c c c c c c = = = = = = = = = = = = = ",
"- O O O % h h h h h h h h h h h h h h h h h h h h p , , , , O O O O = = = = : , , , 6 c c c c c c c c = = = = = = = = = = = = = ",
"- O O O % h h h h h h h h h h h h h h h h h h h h p , , , , O O O O = = = = : , , , 6 c c c c c c c c = = = = = = = = = = = = = ",
"5 O O O @ 1 1 1 1 1 1 1 1 1 1 1 1 4 5 5 5 5 5 5 5 4 , , , , O O O O = = = = % % % % 1 4 4 4 4 4 4 4 4 = = = = = = = = = = = = = "
};
