/* XPM */
static char *_faf84716a8549c5daffd16894f2fadaKY4JpGBAHgrfcv0V[] = {
/* columns rows colors chars-per-pixel */
"64 64 173 2 ",
"   c #140000",
".  c #1C0607",
"X  c #010D15",
"o  c #090E16",
"O  c #06111A",
"+  c #09131B",
"@  c #341B1E",
"#  c #010F20",
"$  c #0F1821",
"%  c #151025",
"&  c #151B24",
"*  c #161E3F",
"=  c #38272D",
"-  c #5D3B16",
";  c #71432B",
":  c #7C4A2A",
">  c #664C3F",
",  c #774F36",
"<  c #7E5D3B",
"1  c #7F603D",
"2  c #021B47",
"3  c #0B294D",
"4  c #17264C",
"5  c #1C294C",
"6  c #172951",
"7  c #2F3644",
"8  c #2F3849",
"9  c #303745",
"0  c #313846",
"q  c #2D395F",
"w  c #193362",
"e  c #334563",
"r  c #484A4C",
"t  c #53565F",
"y  c #6B4B45",
"u  c #745341",
"i  c #694A57",
"p  c #484D62",
"a  c #4F5561",
"s  c #4D576B",
"d  c #4A5774",
"f  c #685C6E",
"g  c #605F7F",
"h  c #6F6C6C",
"j  c #80603D",
"k  c #957356",
"l  c #957A61",
"z  c #807871",
"x  c #F69F1F",
"c  c #FAA11D",
"v  c #F69F23",
"b  c #F59F31",
"n  c #FAA520",
"m  c #FAAA24",
"M  c #F6A332",
"N  c #FDD43D",
"B  c #9E815E",
"V  c #B19271",
"C  c #BFA07D",
"Z  c #F8AB4E",
"A  c #F9B04D",
"S  c #FCD446",
"D  c #FCD44A",
"F  c #FBD35B",
"G  c #F9D366",
"H  c #04348E",
"J  c #063A91",
"K  c #0C3D94",
"L  c #094195",
"P  c #104398",
"I  c #0F529F",
"U  c #3A4D96",
"Y  c #20569F",
"T  c #1156A2",
"R  c #1D55A5",
"E  c #145EA8",
"W  c #1E5DAD",
"Q  c #2057A2",
"!  c #225FAF",
"~  c #2A5EA9",
"^  c #335CA6",
"/  c #1664AD",
"(  c #196CB3",
")  c #1F7BB2",
"_  c #2263B1",
"`  c #236BB7",
"'  c #236DB9",
"]  c #376AB1",
"[  c #2475BE",
"{  c #2973B9",
"}  c #445881",
"|  c #41599D",
" . c #495899",
".. c #5E6784",
"X. c #58659F",
"o. c #737885",
"O. c #7E7C9D",
"+. c #4566AB",
"@. c #4D6CAD",
"#. c #5469A5",
"$. c #5E74AE",
"%. c #4071B2",
"&. c #5073B6",
"*. c #5F7CB5",
"=. c #716DA2",
"-. c #6D76A6",
";. c #6674A9",
":. c #6C7BAE",
">. c #737EAD",
",. c #667FB8",
"<. c #2477C0",
"1. c #207FC3",
"2. c #3782B7",
"3. c #4F80B2",
"4. c #5B83BD",
"5. c #7F85AB",
"6. c #7187BB",
"7. c #2686CC",
"8. c #2B8CCF",
"9. c #258FD2",
"0. c #2691D5",
"q. c #2892D6",
"w. c #2896D9",
"e. c #2699DC",
"r. c #2999DC",
"t. c #359BDD",
"y. c #3D9DDD",
"u. c #4D87C5",
"i. c #6091C8",
"p. c #53A2DE",
"a. c #76A0CE",
"s. c #60A1D7",
"d. c #6DA3D5",
"f. c #75A6D3",
"g. c #7EABD7",
"h. c #72ADE1",
"j. c #78B0E2",
"k. c #8C90AF",
"l. c #9D98AC",
"z. c #A79EAB",
"x. c #ABA1AB",
"c. c #CCB493",
"v. c #C7B4A9",
"b. c #CBB7AA",
"n. c #F1D19E",
"m. c #DBC8B2",
"M. c #E9CCA5",
"N. c #E8CEAA",
"B. c #EFD1A6",
"V. c #EDD1AB",
"C. c #8CABCD",
"Z. c #93ADCD",
"A. c #99B7D8",
"S. c #A8B4C7",
"D. c #A0B2C9",
"F. c #A6C6E9",
"G. c #BDD1EB",
"H. c #D0D0DD",
"J. c #D2D2DD",
"K. c #F4E1C9",
"L. c #CBCFE2",
"P. c #CDD1E3",
"I. c #D6DAE6",
"U. c #DCDEEA",
"Y. c #CBDCF0",
"T. c #DFE8F5",
"R. c #F4EFEA",
"E. c #FAF5EF",
"W. c #EAF0F7",
"Q. c #EFF3F9",
"!. c #FAF6F1",
"~. c #FBF9F7",
"^. c #FCFCFC",
/* pixels */
"B.B.B.B.B.B.B.B.x.z.z.z.S.S.S.S.S.S.S.S.S.S.S.S.N.B.B.B.B.B.B.B.B.B.B.B.B.B.B.N.S.S.S.S.S.S.S.S.S.S.S.S.z.z.z.x.B.B.B.B.B.B.B.B.",
"B.B.B.B.B.B.B.B.@.! ! ! q.r.r.r.r.r.r.r.r.r.r.e.N.B.B.B.B.B.B.B.B.B.B.B.B.B.B.N.e.r.r.r.r.r.r.r.r.r.r.q.! ! ! @.B.B.B.B.B.B.B.B.",
"B.B.B.B.B.B.B.B.@.! ! ! q.r.r.r.r.r.r.r.r.r.r.e.N.B.B.B.B.B.B.B.B.B.B.B.B.B.B.N.e.r.r.r.r.r.r.r.r.r.r.q.! ! ! @.B.B.B.B.B.B.B.B.",
"B.B.B.B.B.B.B.B.@.! ! ! q.r.r.r.r.r.r.r.r.r.r.e.N.B.B.B.B.B.B.B.B.B.B.B.B.B.B.N.e.r.r.r.r.r.r.r.r.r.r.q.! ! ! @.B.B.B.B.B.B.B.B.",
"B.B.B.B.B.B.B.B.I.I.I.I.u.[ [ [ w.r.r.r./ / / / C.Z.Z.Z.Z.Z.Z.Z.Z.Z.Z.Z.Z.Z.Z.C./ / / / r.r.r.w.[ [ [ { } } } ..B.B.B.B.B.B.B.B.",
"B.B.B.B.B.B.B.B.~.^.^.^.,.! ! ! q.r.r.r.J H H H w.r.r.r.r.r.r.r.r.r.r.r.r.r.r.w.H H H J r.r.r.q.! ! ! ~ a a a f B.B.B.B.B.B.B.B.",
"B.B.B.B.B.B.B.B.~.^.^.^.,.! ! ! q.r.r.r.J H H H w.r.r.r.r.r.r.r.r.r.r.r.r.r.r.w.H H H J r.r.r.q.! ! ! ~ a a a f B.B.B.B.B.B.B.B.",
"B.B.B.B.B.B.B.B.~.^.^.^.,.! ! ! q.r.r.r.J H H H w.r.r.r.r.r.r.r.r.r.r.r.r.r.r.w.H H H J r.r.r.q.! ! ! ~ a a a f B.B.B.B.B.B.B.B.",
"B.B.B.B.B.B.B.B.K.K.K.K.b.v.v.v.4.<.<.<.J.J.J.P.%./ / / r.r.r.r.r.r.r.r./ / / %.J.J.J.J.<.<.<.4.v.v.v.v.c.c.c.c.B.B.B.B.B.B.B.B.",
"B.B.B.B.B.B.B.B.B.B.B.B.B.B.B.B.:.! ! W ~.^.^.^. .H H J r.r.r.r.r.r.r.r.J H H  .^.^.^.~.W ! ! :.B.B.B.B.B.B.B.B.B.B.B.B.B.B.B.B.",
"B.B.B.B.B.B.B.B.B.B.B.B.B.B.B.B.:.! ! W ~.^.^.^. .H H J r.r.r.r.r.r.r.r.J H H  .^.^.^.~.W ! ! :.B.B.B.B.B.B.B.B.B.B.B.B.B.B.B.B.",
"B.B.B.B.B.B.B.B.B.B.B.B.B.B.B.B.:.! ! W ~.^.^.^. .H H J r.r.r.r.r.r.r.r.J H H  .^.^.^.~.W ! ! :.B.B.B.B.B.B.B.B.B.B.B.B.B.B.B.B.",
"B.B.B.B.B.B.B.B.B.B.B.B.B.B.B.B.:.! ! W ~.^.^.^.p 2 2 2 T T T T T T T T 2 2 2 p ^.^.^.~.W ! ! :.B.B.B.B.B.B.B.M.B B B V B.B.B.B.",
"B.B.B.B.B.B.B.B.B.B.B.B.B.B.B.B.:.! ! W ~.^.^.^.r X X # H H H H H H H H # X X r ^.^.^.~.W ! ! :.B.B.B.B.B.B.B.M.< j j B B.B.B.B.",
"B.B.B.B.B.B.B.B.B.B.B.B.B.B.B.B.:.! ! W ~.^.^.^.r X X # H H H H H H H H # X X r ^.^.^.~.W ! ! :.B.B.B.B.B.B.B.M.< j j B B.B.B.B.",
"B.B.B.B.B.B.B.B.B.B.B.B.B.B.B.B.:.! ! W ~.^.^.^.r X X # H H H H H H H H # X X r ^.^.^.~.W ! ! :.B.B.B.B.B.B.B.M.< j j B B.B.B.B.",
"B.B.B.B.B.B.B.B.B.B.B.B.x.l.l.l.u.7.7.7.F.F.F.F.2.) ) ) 1.1.1.1.1.1.1.1.) ) ) 2.F.F.F.F.7.7.7.u.l.l.l.x.B.B.B.M., , , k B.B.B.B.",
"B.B.B.B.B.B.B.B.B.B.B.B.$.! ! ! q.r.r.r.r.r.r.r.r.r.r.r.r.r.r.r.r.r.r.r.r.r.r.r.r.r.r.r.r.r.r.q.! ! ! $.B.B.B.M.; ; ; k B.B.B.B.",
"B.B.B.B.B.B.B.B.B.B.B.B.$.! ! ! q.r.r.r.r.r.r.r.r.r.r.r.r.r.r.r.r.r.r.r.r.r.r.r.r.r.r.r.r.r.r.q.! ! ! $.B.B.B.M.; ; ; k B.B.B.B.",
"B.B.B.B.B.B.B.B.B.B.B.B.$.! ! ! q.r.r.r.r.r.r.r.r.r.r.r.r.r.r.r.r.r.r.r.r.r.r.r.r.r.r.r.r.r.r.q.! ! ! $.B.B.B.M.; ; ; k B.B.B.B.",
"B.B.B.B.C V V V M.B.B.B.i.7.7.7.G.Y.Y.Y.t.r.r.r.( ( ( ( r.r.r.r.r.r.r.r.( ( ( ( r.r.r.t.Y.Y.Y.G.7.7.7.i.B.B.B.M.3.3.3.k.B.B.B.B.",
"B.B.B.B.k ; ; ; M.B.B.B.s.r.r.r.W.^.^.^.y.r.r.r.L H H J r.r.r.r.r.r.r.r.J H H L r.r.r.y.^.^.^.W.r.r.r.s.B.B.B.N.e.r.r.f.B.B.B.B.",
"B.B.B.B.k ; ; ; M.B.B.B.s.r.r.r.W.^.^.^.y.r.r.r.L H H J r.r.r.r.r.r.r.r.J H H L r.r.r.y.^.^.^.W.r.r.r.s.B.B.B.N.e.r.r.f.B.B.B.B.",
"B.B.B.B.k ; ; ; M.B.B.B.s.r.r.r.W.^.^.^.y.r.r.r.L H H J r.r.r.r.r.r.r.r.J H H L r.r.r.y.^.^.^.W.r.r.r.s.B.B.B.N.e.r.r.f.B.B.B.B.",
"B.B.B.B.O.| | | M.B.B.B.s.r.r.r.W.^.^.^.T.T.T.T.+.R R W r.r.r.r.r.r.r.r.W R R +.T.T.T.T.^.^.^.W.r.r.r.s.B.B.B.N.e.r.r.f.B.B.B.B.",
"B.B.B.B.>.! ! W M.B.B.B.s.r.r.r.W.^.^.^.^.^.^.^.&.! ! _ r.r.r.r.r.r.r.r._ ! ! &.^.^.^.^.^.^.^.W.r.r.r.s.B.B.B.N.e.r.r.f.B.B.B.B.",
"B.B.B.B.>.! ! W M.B.B.B.s.r.r.r.W.^.^.^.^.^.^.^.&.! ! _ r.r.r.r.r.r.r.r._ ! ! &.^.^.^.^.^.^.^.W.r.r.r.s.B.B.B.N.e.r.r.f.B.B.B.B.",
"B.B.B.B.>.! ! W M.B.B.B.s.r.r.r.W.^.^.^.^.^.^.^.&.! ! _ r.r.r.r.r.r.r.r._ ! ! &.^.^.^.^.^.^.^.W.r.r.r.s.B.B.B.N.e.r.r.f.B.B.B.B.",
"B.B.B.B.>.! ! W M.B.B.B.s.r.r.r.W.^.^.^.U.U.U.U.| P P P E E E E E E E E P P P | U.U.U.U.^.^.^.W.r.r.r.s.B.B.B.N.[ [ [ u.C.C.C.D.",
"B.B.B.B.>.! ! W M.B.B.B.s.r.r.r.W.^.^.^.P.P.P.P.U H H H H H H H H H H H H H H U P.P.P.P.^.^.^.W.r.r.r.s.B.B.B.M.W ! ! ' r.r.r.d.",
"B.B.B.B.>.! ! W M.B.B.B.s.r.r.r.W.^.^.^.P.P.P.P.U H H H H H H H H H H H H H H U P.P.P.P.^.^.^.W.r.r.r.s.B.B.B.M.W ! ! ' r.r.r.d.",
"B.B.B.B.>.! ! W M.B.B.B.s.r.r.r.W.^.^.^.P.P.P.P.U H H H H H H H H H H H H H H U P.P.P.P.^.^.^.W.r.r.r.s.B.B.B.M.W ! ! ' r.r.r.d.",
"B.B.B.B.a.q.q.0.N.B.B.B.*.` ` ` ;.-.-.-.#.X.X.X.8.9.9.9.9.9.9.9.9.9.9.9.9.9.9.8.X.X.X.#.-.-.-.;.` ` ` *.B.B.B.M.W ! ! ' r.r.r.d.",
"B.B.B.B.f.r.r.e.N.B.B.B.$.! ! ! K H H H H H H H w.r.r.r.r.r.r.r.r.r.r.r.r.r.r.w.H H H H H H H K ! ! ! $.B.B.B.M.W ! ! ' r.r.r.d.",
"B.B.B.B.f.r.r.e.N.B.B.B.$.! ! ! K H H H H H H H w.r.r.r.r.r.r.r.r.r.r.r.r.r.r.w.H H H H H H H K ! ! ! $.B.B.B.M.W ! ! ' r.r.r.d.",
"B.B.B.B.f.r.r.e.N.B.B.B.$.! ! ! K H H H H H H H w.r.r.r.r.r.r.r.r.r.r.r.r.r.r.w.H H H H H H H K ! ! ! $.B.B.B.M.W ! ! ' r.r.r.d.",
"f.f.f.f.y.r.r.r.:.>.>.>.q 4 4 4 R W W W 9.9.9.9.r.r.r.r.I I I I I I I I r.r.r.r.9.9.9.9.W W W R 4 4 4 q >.>.>.>.i i i g r.r.r.d.",
"r.r.r.r.r.r.r.r._ ! ! ! *       Q ! ! ! r.r.r.r.r.r.r.w.H H H H H H H H w.r.r.r.r.r.r.r.! ! ! Q       * ! ! ! ~ ; ; ; f r.r.r.d.",
"r.r.r.r.r.r.r.r._ ! ! ! *       Q ! ! ! r.r.r.r.r.r.r.w.H H H H H H H H w.r.r.r.r.r.r.r.! ! ! Q       * ! ! ! ~ ; ; ; f r.r.r.d.",
"r.r.r.r.r.r.r.r._ ! ! ! *       Q ! ! ! r.r.r.r.r.r.r.w.H H H H H H H H w.r.r.r.r.r.r.w.! ! ! Q       * ! ! ! ~ ; ; ; f r.r.r.d.",
"r.r.r.r.r.r.r.r.q.q.q.q.Q Y Y Y w 6 6 6 ` ' ' ' ' ' ' ` W W W W W W W W ' ' ' ' ' ' ' ` 6 6 6 5 @ @ @ = d d d d < < < l m.m.m.m.",
"r.r.r.r.r.r.r.r.r.r.r.r.` ! ! ! 4       ! ! ! ! ! ! ! ! ! ! ! ! ! ! ! ! ! ! ! ! ! ! ! !       . @ @ @ = a a a t j j j B B.B.B.B.",
"r.r.r.r.r.r.r.r.r.r.r.r.` ! ! ! 4       ! ! ! ! ! ! ! ! ! ! ! ! ! ! ! ! ! ! ! ! ! ! ! !       . @ @ @ = a a a t j j j B B.B.B.B.",
"r.r.r.r.r.r.r.r.r.r.r.r.` ! ! ! 4       ! ! ! ! ! ! ! ! ! ! ! ! ! ! ! ! ! ! ! ! ! ! ! !       . @ @ @ = a a a t 1 1 1 B B.B.B.B.",
"_ _ _ _ q.r.r.r.r.r.r.r.w.w.w.w.e @ @ @ % % % % % % % % % % % % % % % % % % % % % % % % @ @ @ @ o o o - v v v v x x x m S S S F ",
"! ! ! ! q.r.r.r.r.r.r.r.r.r.r.r.e @ @ @                                                 @ @ @ @ X X X - c c c c c c c m N N N F ",
"! ! ! ! q.r.r.r.r.r.r.r.r.r.r.r.e @ @ @                                                 @ @ @ @ X X X - c c c c c c c m N N N F ",
"W W W W 0.r.r.r.r.r.r.r.r.r.r.r.e @ @ @                                                 @ @ @ @ X X X - c c c c c c c m N N N F ",
"M.M.M.M.6._ _ _ i y y y ^ _ _ _ 3 o o o @ @ @ @ @ @ @ @ @ @ @ @ @ @ @ @ @ @ @ @ X X X X o o o $ 7 7 7 > c c c n N N N N N N N F ",
"B.B.B.B.>.! ! ! y ; ; ; ^ ! ! ! 3 X X X @ @ @ @ @ @ @ @ @ @ @ @ @ @ @ @ @ @ @ @ X X X X X X X $ 7 7 7 y c c c n N N N N N N N F ",
"B.B.B.B.>.! ! ! y ; ; ; ^ ! ! ! 3 X X X @ @ @ @ @ @ @ @ @ @ @ @ @ @ @ @ @ @ @ @ X X X X X X X $ 7 7 7 y c c c n N N N N N N N F ",
"B.B.B.B.5.+.+.+., : : : #.+.+.+.5 O O O @ @ @ @ @ @ @ @ @ @ @ @ @ @ @ @ @ @ @ @ O O O O + + + & 0 0 0 y b b b M N N N N S S S F ",
"B.B.B.B.F N N N n c c c c c c c u 7 7 7 X X X X X X X X X X X X X X X X X X X O 7 7 7 9 a a a a a a a s W W W @.N N N F B.B.B.B.",
"B.B.B.B.F N N N n c c c c c c c u 7 7 7 X X X X X X X X X X X X X X X X X X X O 7 7 7 9 a a a a a a a s ! ! ! @.N N N F B.B.B.B.",
"B.B.B.B.F N N N n c c c c c c c u 7 7 7 X X X X X X X X X X X X X X X X X X X O 7 7 7 9 a a a a a a a s ! ! ! @.N N N F B.B.B.B.",
"B.B.B.B.F N N N n c c c c c c c u 8 8 8 + + + + + + + + + + + + + + + + + + + + 9 9 9 0 a a a a s s s d _ _ _ @.S S S G B.B.B.B.",
"B.B.B.B.F N N N N N N N m c c c =.! ! ! a a a a a a a a a a a a a a a a a a a a a a a a _ ! ! ' r.r.r.r.r.r.r.r.e.e.e.f.B.B.B.B.",
"B.B.B.B.F N N N N N N N m c c c =.! ! ! a a a a a a a a a a a a a a a a a a a a a a a a _ _ ! ` r.r.r.r.r.r.r.r.r.r.r.f.B.B.B.B.",
"B.B.B.B.F N N N N N N N m c c c =.! ! ! a a a a a a a a a a a a a a a a a a a a a a a a ! ! ! ` r.r.r.r.r.r.r.r.r.r.r.f.B.B.B.B.",
"B.B.B.B.G F F F S N N N A Z Z Z k.>.>.>.h z z z z z z z z z z z z z z z z z z h o.o.o.o.! ! ! ] j.j.j.h.r.r.r.t.j.j.j.A.B.B.B.B.",
"B.B.B.B.B.B.B.B.D N N N n.B.B.B.B.B.B.B.B.B.B.B.B.B.B.B.B.B.B.B.B.B.B.B.B.B.B.V.P.P.P.L.W ! ! 6.^.^.^.Q.r.r.r.p.^.^.^.E.B.B.B.B.",
"B.B.B.B.B.B.B.B.D N N N n.B.B.B.B.B.B.B.B.B.B.B.B.B.B.B.B.B.B.B.B.B.B.B.B.B.B.V.P.P.P.L.W ! ! 6.^.^.^.Q.r.r.r.p.^.^.^.E.B.B.B.B.",
"B.B.B.B.B.B.B.B.D N N N n.B.B.B.B.B.B.B.B.B.B.B.B.B.B.B.B.B.B.B.B.B.B.B.B.B.B.V.P.P.P.L.W ! ! 6.^.^.^.Q.r.r.r.p.^.^.^.E.B.B.B.B.",
"B.B.B.B.B.B.B.B.G F F F n.B.B.B.B.B.B.B.B.B.B.B.B.B.B.B.B.B.B.B.B.B.B.B.B.B.B.V.J.J.J.J.:.:.:.k.!.!.!.R.d.d.d.g.!.!.!.R.B.B.B.B."
};
