/* XPM */
static char *be0bd1555cc44f6e8c8927c5db252bf2XqXwWcfvR0Yxro6f[] = {
/* columns rows colors chars-per-pixel */
"64 64 123 2 ",
"   c black",
".  c #020402",
"X  c #0E0E0E",
"o  c #001202",
"O  c #131413",
"+  c gray12",
"@  c #012B05",
"#  c #023207",
"$  c #202020",
"%  c gray17",
"&  c gray21",
"*  c #02450B",
"=  c #024C0D",
"-  c #046313",
";  c #057518",
":  c #057B1A",
">  c #057C1A",
",  c #204623",
"<  c #464646",
"1  c #656665",
"2  c #06821C",
"3  c #06841D",
"4  c #078F1F",
"5  c #078F20",
"6  c #088F20",
"7  c #079321",
"8  c #089722",
"9  c #2E8336",
"0  c #09A125",
"q  c #0AAD28",
"w  c #11AB2A",
"e  c #0BB52B",
"r  c #0CBB2C",
"t  c #0CBC2C",
"y  c #19B631",
"u  c #0DC32E",
"i  c #0DC42E",
"p  c #0ECB30",
"a  c #0ED032",
"s  c #0FD734",
"d  c #0FD834",
"f  c #10DD36",
"g  c #21C638",
"h  c #11EA39",
"j  c #12EF3A",
"k  c #0FF038",
"l  c #12F23B",
"z  c #17F13B",
"x  c #12F43B",
"c  c #12F33C",
"v  c #16F03D",
"b  c #18F13D",
"n  c #2EBC41",
"m  c #57895B",
"M  c #31C745",
"N  c #3DCD4C",
"B  c #22F143",
"V  c #24F144",
"C  c #28F147",
"Z  c #3DF255",
"A  c #67F373",
"S  c #67F374",
"D  c #7BF485",
"F  c #7DF488",
"G  c #8E8E8E",
"H  c #8B948B",
"J  c #8B948C",
"K  c #8D958E",
"L  c #909191",
"P  c #959595",
"I  c #919E92",
"U  c gray60",
"Y  c gray61",
"T  c #9DAB9E",
"R  c #9FACA0",
"E  c #A0A0A0",
"W  c #A3A4A3",
"Q  c #A3A4A4",
"!  c #A4A4A4",
"~  c #A9A9A9",
"^  c #ABACAB",
"/  c gray68",
"(  c gray69",
")  c #B6B6B6",
"_  c #BBBBBB",
"`  c #B9BCB9",
"'  c gray",
"]  c #87ED8F",
"[  c #80F48A",
"{  c #90F598",
"}  c #95F59C",
"|  c gray76",
" . c #C4C7C4",
".. c #CACACA",
"X. c #CCCDCC",
"o. c LightGray",
"O. c #D7D7D7",
"+. c gray85",
"@. c gray87",
"#. c #DFE0DF",
"$. c #CDFAD1",
"%. c #D2FBD6",
"&. c #D7FBDA",
"*. c #D8FBDB",
"=. c #D9FBDC",
"-. c gray89",
";. c #E6E6E6",
":. c #E7E8E7",
">. c gray91",
",. c gray92",
"<. c gray93",
"1. c #E3FCE6",
"2. c #E5FCE7",
"3. c #E5FCE8",
"4. c gray94",
"5. c gray97",
"6. c #F0FEF2",
"7. c #F3FEF4",
"8. c #F4FEF6",
"9. c #F7FEF8",
"0. c gray98",
"q. c #FBFEFC",
"w. c #FDFDFD",
/* pixels */
"5.5.5.5.5.5.5.5.5.5.5.5.5.5.5.5.5.5.5.5.5.5.5.5.5.5.5.4.+               -.5.5.5.5.5.5.5.5.5.5.5.5.5.5.5.5.5.5.5.5.5.5.5.5.5.5.5.",
"<.5.w.<.5.w.<.5.w.4.5.w.4.4.w.4.4.w.5.<.w.5.<.w.5.<.w.4.+               ;.<.0.0.<.0.0.<.0.0.<.5.w.4.5.w.4.4.w.4.4.w.4.4.w.5.<.w.",
"w.5.<.w.5.<.w.5.<.0.0.<.0.0.<.0.0.<.5.w.<.5.w.<.5.w.<.4.$               @.w.4.4.w.4.4.w.5.4.w.5.<.0.0.<.0.0.<.0.0.<.0.0.<.0.w.<.",
"5.5.5.5.5.5.5.5.5.5.5.5.5.5.5.5.5.5.5.5.5.5.5.4.Y E P U _ | | | n r r t J E P P ;.5.5.5.5.5.0.5.4.5.5.5.5.5.5.5.5.5.5.5.5.5.5.5.",
"<.5.w.<.5.w.<.5.w.4.5.w.4.4.w.4.4.w.5.<.w.5.<.5.X     . 5.w.w.w.Z l l x =       o.0.0.<.0.0.<.5.w.4.5.w.4.4.w.4.4.w.4.4.w.5.<.w.",
"0.5.4.0.5.4.0.5.4.0.5.4.0.0.4.0.0.4.5.0.4.5.0.>.X     . 5.w.w.w.Z l l l =       @.5.4.0.5.4.0.5.4.0.5.4.0.0.4.0.0.4.0.0.4.5.0.4.",
"0.5.4.0.5.4.0.5.4.0.5.4.5.5.4.0.5.4.5.0.4.5.0.<.X     . 5.w.w.w.Z l l l =       @.5.5.0.5.5.0.5.4.0.5.4.5.5.4.5.5.4.5.5.4.5.0.4.",
"<.5.w.<.5.w.<.5.w.4.5.w.4.4.w.4.4.w.5.>.( ~ ! / ( ( ( ( 0.w.w.w.Z l l l e q q q I / / ! :.0.<.5.w.4.5.w.4.4.w.4.4.w.4.4.w.5.<.w.",
"0.5.4.0.5.4.0.5.4.0.5.4.0.0.4.0.0.4.5.<.      O 0.w.w.w.w.w.w.w.Z l l l l l j l -       o.4.0.5.4.0.5.4.0.0.4.0.0.4.0.0.4.5.0.4.",
"0.5.4.0.5.4.0.5.4.0.5.4.0.0.4.0.0.4.5.<.      O 0.w.w.w.w.w.w.w.Z l l l l l j l -       o.4.0.5.4.0.5.4.0.0.4.0.0.4.0.0.4.5.0.4.",
"<.5.w.<.5.w.<.5.w.4.5.w.4.4.w.4.4.w.5.-.      O 0.w.w.w.w.w.w.w.Z l l l l l l c -       +.0.<.5.w.4.5.w.4.4.w.4.4.w.4.4.w.5.<.w.",
"0.5.4.0.5.4.0.5.4.0.5.4.0.0.4.<._ _ _ ( E Q W ! w.w.w.w.w.w.w.w.Z l l l l l l l q 0 0 0 R _ _ _ -.0.5.4.0.0.4.0.0.4.0.0.4.5.0.4.",
"0.5.4.0.5.4.0.5.4.0.5.4.0.0.4.;.      % w.w.w.w.w.w.w.w.w.w.w.w.Z l l l l l l l l l l l ;       ..0.5.4.0.0.4.0.0.4.0.0.4.5.0.4.",
"<.5.w.<.5.w.<.5.w.4.5.w.4.4.w.@.      % w.w.w.w.w.w.w.w.w.w.w.w.Z j l l l l l l l l l l ;       o.4.5.w.4.4.w.4.4.w.4.4.w.5.<.w.",
"5.5.5.0.5.5.5.5.5.5.5.5.5.5.5.-.      % w.w.w.w.w.w.w.w.w.w.w.w.Z j j j l j l l l l l l ;       ..5.5.5.5.5.5.5.5.5.5.5.5.5.5.5.",
"w.5.<.w.5.<.w.5.<.0.0.;.....' ' G L L K $.$.$.$.w.w.w.w.$.$.$.$.M u u u h j l l p i i i 8 4 4 4 T .. .' >.0.<.0.0.<.0.0.<.0.w.4.",
"<.5.w.<.5.w.<.5.w.4.5.;.      < w.w.w.6.l l l B q.w.w.w.C l l l #       f l l l -       a l l l 3       ' 4.w.4.4.w.4.4.w.5.<.w.",
"5.5.5.5.5.5.5.5.5.5.5.@.      < w.w.w.6.l l l B q.w.w.w.C l l l #       f l l l -       a l l l 3        .5.5.5.5.5.5.5.5.5.5.5.",
"w.5.<.w.5.<.w.5.<.0.0.O.      < w.w.w.6.l l l B q.w.w.w.C l l l #       f l l l -       a l l l 3       X.0.<.0.0.<.0.0.<.0.w.<.",
"<.5.w.<.5.w.<.5.w.4.5.;.      < w.w.w.8.[ [ [ F &.=.=.*.V l l l 2 : : : u a a a 3 : : : d l l l 3       ' 4.w.4.4.w.4.4.w.5.<.w.",
"5.5.5.5.5.5.5.5.5.5.5.-.      < w.w.w.w.w.w.w.9.b j j j l l l l l l l x =       d l l l l l l l 3        .5.5.5.5.5.5.5.5.5.5.5.",
"w.5.<.w.5.<.w.5.<.0.0.O.      < w.w.w.w.w.w.w.9.b j l j l l l l l l l l =       s l l l l l l l 3       X.0.<.0.0.<.0.0.<.0.w.<.",
"<.5.w.<.5.w.<.5.w.4.5.;.      < w.w.w.w.w.w.w.9.b l l j l l l l l l l l =       s l l l l j j j 3       ' 4.w.4.4.w.4.4.w.5.<.w.",
"5.5.5.5.5.5.4.5.5.5.5.-.      < w.w.w.w.w.w.w.9.b l j l j l l l l l l x =       s l l l j j j l 3        .5.5.5.5.5.5.5.5.5.5.5.",
"w.5.<.w.5.<.w.5.<.0.0.O.      < w.w.w.w.w.w.w.9.b l l l l l l j l l l l =       s l l l j j j l 3       X.0.<.0.0.<.0.0.<.0.w.<.",
"4.5.w.4.5.w.4.5.w.4.5.;.      < w.w.w.w.w.w.w.9.b l j l l l j j l j l l =       s l l l l j j j 3       | 4.w.4.4.w.4.4.w.5.4.0.",
"5.5.0.5.5.0.5.5.0.5.5.-.      < w.w.w.w.w.w.w.9.b l l l j l j j l j j l =       s j l l l l j j 3        .5.0.5.5.0.5.5.0.5.5.0.",
"w.5.<.w.5.<.w.5.<.0.0.O.      < w.w.w.w.w.w.w.9.b l l l l j j j j l l l =       s l l l l l j l 3       X.0.<.0.0.<.0.0.<.0.w.<.",
"4.5.0.4.5.0.4.5.0.4.5.;.      < w.w.w.w.w.w.w.9.b l j j l l l l l l l l =       s j j j l l l l 3       | 4.0.4.4.0.4.4.0.5.4.0.",
"4.5.0.4.5.0.4.5.0.4.5.-.      < w.w.w.w.w.w.w.9.b l j j l l l l l l l l =       s j l l l l l l 3       | 5.0.4.4.0.5.4.0.5.4.0.",
"w.5.<.w.5.<.w.5.<.0.0.O.      < w.w.w.w.w.w.w.9.b l j j j j l l l l l l =       s l l l l l l l 3       X.0.<.0.0.<.0.0.<.0.w.<.",
"4.5.0.4.5.0.4.5.0.4.5.-.      < w.w.w.w.w.w.w.9.b l j j j l l l l l l l =       s l l l l l l l 3       | 5.0.4.4.0.5.4.0.5.4.0.",
"4.5.0.4.5.0.4.5.0.4.5.;.      < w.w.w.w.w.w.w.9.b l l l l l l l l j l l =       s l l l l l l j 3       | 4.0.4.4.0.4.4.0.5.4.0.",
"w.5.<.w.5.<.w.5.<.0.0.O.      < w.w.w.w.w.w.w.9.b l l l l l l l j j j l =       s l l l l l j l 3       X.0.<.0.0.<.0.0.<.0.w.<.",
"5.5.0.5.5.0.5.5.0.5.5.-.      < w.w.w.w.w.w.w.9.b l l l l l l j l l l l =       s l l l j j j l 3        .5.0.5.5.0.5.5.0.5.5.0.",
"4.5.w.4.5.w.4.5.w.4.5.;.      < w.w.w.w.w.w.w.9.b l l l l l l j l l j l =       s l l l l j j l 3       | 4.w.4.4.w.4.4.w.5.4.0.",
"w.5.<.w.5.<.w.5.<.0.0.O.      < w.w.w.w.w.w.w.9.b l l l l l j l l l j l =       s l j j j l l l 3       X.0.<.0.0.<.0.0.<.0.w.<.",
"5.5.5.5.5.5.5.5.5.5.5.-.      < w.w.w.w.w.w.w.9.b j l l l l j j l l j l =       s j j j j l l l 3        .5.5.5.5.5.5.5.5.5.5.5.",
"<.5.w.<.5.w.<.5.w.4.5.;.      < w.w.w.w.w.w.w.9.b l l l l l j j l l l x =       s l j l l l l l 3       ' 4.w.4.4.w.4.4.w.5.<.w.",
"w.5.<.w.5.<.w.5.<.0.0.O.      < w.w.w.w.w.w.w.9.z k k l l j j j l l l l =       s l l l l l l l 3       X.0.<.0.0.<.0.0.<.0.w.<.",
"5.5.5.5.5.5.5.5.5.5.5.#.      < w.w.w.7.A S S S 1.2.3.1.V l l l l l l l =       s l l l l l l l 3        .5.5.5.5.5.5.5.5.5.5.5.",
"<.5.w.<.5.w.<.5.w.4.5.;.      < w.w.w.6.l l l B q.w.w.w.C l l l l l l l =       s l j l l l j l 3       ' 4.w.4.4.w.4.4.w.5.<.w.",
"w.5.<.w.0.<.w.5.<.0.0.O.      < w.w.w.6.l l l B w.w.w.w.C l l l l l l x =       s l l l l l l j 3       X.0.<.0.0.<.0.0.<.0.w.<.",
"5.5.5.5.5.5.5.5.5.5.5.@.      < w.w.w.6.l l l B q.w.w.w.C l l l l l l x =       s l l l j j j l 3        .5.5.5.5.5.5.5.5.5.5.5.",
"<.5.w.<.5.w.<.5.w.4.5.;.      , [ [ [ D l j l v F [ [ [ %.=.=.=.9 : : >  .O.O.O.m : : : d l l l 3       ' 4.w.4.4.w.4.4.w.5.<.w.",
"w.5.<.w.5.<.0.5.<.0.0.+.      * l l l l l j j l l l l l 9.w.w.w.&       ;.w.w.w.1       a j l l 3       ..0.<.0.0.<.0.0.<.0.w.4.",
"0.5.5.0.5.5.5.5.5.5.5.@.      * l l l j j j l l l l l l 9.w.w.w.&       ;.w.w.w.1       a l l l 3        .5.5.5.5.5.5.5.5.5.5.5.",
"<.5.w.<.5.w.<.5.w.4.5.;.      * l l l l l j l l l l l l 9.w.w.w.&       ;.w.w.w.1       a l l l 3       ' 4.w.4.4.w.4.4.w.5.<.w.",
"0.5.4.0.5.4.0.5.4.0.5.>.....' ` 6 5 5 7 l l l l l j j l { } } } g u u u ] } } } N u u i 8 5 4 5 T .. .' >.0.4.0.0.4.0.0.4.5.0.4.",
"0.5.4.0.5.4.0.5.4.0.5.4.0.0.4.;.      @ l l l l l l l l l l j l l l l l j j l l l l l l ;       ..0.5.4.0.0.4.0.0.4.0.0.4.5.0.4.",
"<.5.w.<.5.w.<.5.w.4.5.w.4.4.w.@.      @ l l l l j j j j l l l l l l l l l l l l l l l l ;       o.4.5.w.4.4.w.4.4.w.4.4.w.5.<.w.",
"0.5.4.0.5.4.0.5.4.0.5.4.0.0.4.;.      @ l l l l j j j l l l l l l l l l l l l l l l l l ;       ..0.5.4.0.0.4.0.0.4.0.0.4.5.0.4.",
"0.5.4.0.5.4.0.5.4.0.5.4.0.0.4.4._ ) _ ( 8 8 8 0 j l l l j j l l l l l l l j j l q 0 0 0 T ) _ ) @.0.5.4.0.0.4.0.0.4.0.0.4.5.0.4.",
"<.5.w.<.5.w.<.5.w.4.5.w.4.4.w.4.4.w.5.-.      o j l l l j j j l l l l l l l l l -       +.0.<.5.w.4.5.w.4.4.w.4.4.w.4.4.w.5.<.w.",
"0.5.4.0.5.4.0.5.4.0.5.4.5.5.4.5.5.4.5.>.      o j l l l j l j l l l l l j j j l -       o.4.0.5.4.0.5.4.5.5.4.5.5.4.5.5.4.5.0.5.",
"0.5.4.0.5.4.0.5.4.0.5.4.0.0.4.0.0.4.5.<.      o j l l j j l l l j j l l l j l l -       o.4.0.5.4.0.5.4.0.0.4.0.0.4.0.0.4.5.0.4.",
"<.5.w.<.5.w.<.5.w.4.5.w.4.4.w.4.4.w.5.>./ ~ ! ^ w q q q j l l l j j l l e q q q I / / E ;.0.<.5.w.4.5.w.4.4.w.4.4.w.4.4.w.5.<.w.",
"5.5.5.5.5.5.5.5.5.5.5.5.5.5.5.5.5.5.5.5.5.5.5.<.X       h l l l l j l l =       @.5.5.5.5.5.0.5.5.5.5.5.5.5.5.5.5.5.5.5.5.5.5.5.",
"w.5.<.w.5.<.w.5.<.0.5.<.0.0.<.0.0.<.5.w.<.5.w.;.X       h l l l l l j l =       -.4.4.w.5.4.w.5.<.0.0.<.0.0.<.0.0.<.0.0.<.0.w.<.",
"<.5.w.<.5.w.<.5.w.4.5.w.4.4.w.4.4.w.5.<.w.5.<.5.X       h l l l l l l x =       o.0.0.<.0.0.<.5.w.4.5.w.4.4.w.4.4.w.4.4.w.5.<.w.",
"5.5.5.5.5.5.5.5.5.5.5.5.5.5.5.5.5.5.5.5.5.5.5.4.Y Y P U y t t t t t t t H Y P P ;.5.5.5.5.5.5.5.5.5.5.5.5.5.5.5.5.5.5.5.5.5.5.5.",
"w.5.<.w.5.<.w.5.<.0.0.<.0.0.<.0.0.<.0.w.<.5.w.<.5.w.<.4.$               @.w.4.4.w.4.4.w.5.4.w.5.<.0.0.<.0.0.<.0.0.<.0.0.<.0.w.<.",
"<.5.w.<.5.w.<.5.w.4.5.w.4.4.w.4.4.w.5.<.w.5.<.w.5.<.w.4.+               ;.<.0.0.<.0.0.<.0.0.<.5.w.4.5.w.4.4.w.4.4.w.4.4.w.5.<.w.",
"5.5.5.5.5.5.5.5.5.5.5.5.5.5.5.5.5.5.5.5.5.5.5.5.5.5.5.4.+               -.5.5.5.5.5.5.5.5.5.5.5.5.5.5.5.5.5.5.5.5.5.5.5.5.5.5.5."
};
