/* XPM */
static char *_3a282800e464cf1994021726eae33f7E7RgB90dSgQPjrMS[] = {
/* columns rows colors chars-per-pixel */
"64 64 246 2 ",
"   c #09440E",
".  c #0D4917",
"X  c #164919",
"o  c #0E531A",
"O  c #0F591A",
"+  c #14571D",
"@  c #0F6A18",
"#  c #157B15",
"$  c #1B5D23",
"%  c #025B37",
"&  c #215C24",
"*  c #225A28",
"=  c #255C33",
"-  c #0B6828",
";  c #136823",
":  c #0C7827",
">  c #137325",
",  c #167A29",
"<  c #036837",
"1  c #136F35",
"2  c #047936",
"3  c #26662A",
"4  c #297A2C",
"5  c #296334",
"6  c #286835",
"7  c #2C663C",
"8  c #36683B",
"9  c #2C7434",
"0  c #33753F",
"q  c #016D40",
"w  c #027942",
"e  c #2B6F45",
"r  c #39674B",
"t  c #33754A",
"y  c #346752",
"u  c #346A54",
"i  c #347357",
"p  c #496B4A",
"a  c #4C7757",
"s  c #717E62",
"d  c #038706",
"f  c #07950B",
"g  c #0C8B1A",
"h  c #178818",
"j  c #0B9919",
"k  c #1A9412",
"l  c #1B9819",
"z  c #219A1B",
"x  c #04B40F",
"c  c #06A714",
"v  c #18A81A",
"b  c #1AB81B",
"n  c #20A71C",
"m  c #20AB1E",
"M  c #178627",
"N  c #108C28",
"B  c #069925",
"V  c #058539",
"C  c #188935",
"Z  c #079739",
"A  c #189A38",
"S  c #278429",
"D  c #2A932A",
"F  c #2F9737",
"G  c #21933E",
"H  c #03A523",
"J  c #1AA82B",
"K  c #02B32C",
"L  c #1BB52D",
"P  c #05A83A",
"I  c #17AA3A",
"U  c #03B439",
"Y  c #1AB936",
"T  c #19BD39",
"R  c #21A924",
"E  c #22BA27",
"W  c #29B237",
"Q  c #02CB0D",
"!  c #05C616",
"~  c #1DC41D",
"^  c #03D714",
"/  c #02EA1A",
"(  c #03F419",
")  c #03C825",
"_  c #1EC924",
"`  c #04D625",
"'  c #1CD227",
"]  c #05C839",
"[  c #18C437",
"{  c #03D937",
"}  c #1BDB34",
"|  c #21C32A",
" . c #23D827",
".. c #22CA34",
"X. c #23D335",
"o. c #04E72A",
"O. c #05EB37",
"+. c #19E639",
"@. c #05F233",
"#. c #09F533",
"$. c #29E52A",
"%. c #28E836",
"&. c #37F237",
"*. c #119844",
"=. c #3E8945",
"-. c #32874E",
";. c #36975B",
":. c #0AA54D",
">. c #16AA45",
",. c #16B748",
"<. c #0CB258",
"1. c #13B756",
"2. c #30B449",
"3. c #14BC69",
"4. c #11B674",
"5. c #12BE76",
"6. c #35A966",
"7. c #2DB762",
"8. c #32B76A",
"9. c #34BB73",
"0. c #489054",
"q. c #64845F",
"w. c #51B357",
"e. c #5D8D67",
"r. c #5E9E65",
"t. c #658B66",
"y. c #639C65",
"u. c #59A364",
"i. c #5ABF7C",
"p. c #64A767",
"a. c #6BB378",
"s. c #08C747",
"d. c #12C44A",
"f. c #07D744",
"g. c #0BC45D",
"h. c #18C954",
"j. c #0BD755",
"k. c #3BC949",
"l. c #3DD849",
"z. c #26D052",
"x. c #0FF04D",
"c. c #25EC48",
"v. c #37E74A",
"b. c #30F14D",
"n. c #29F854",
"m. c #35FA56",
"M. c #13C467",
"N. c #06D364",
"B. c #13C876",
"V. c #0DD770",
"C. c #2ECF6F",
"Z. c #35C679",
"A. c #12E973",
"S. c #2DF66F",
"D. c #47CD51",
"F. c #45FA43",
"G. c #49EC58",
"H. c #4DFC54",
"J. c #68FD5C",
"K. c #5ED569",
"L. c #5CC27E",
"P. c #6ADD75",
"I. c #4DFB68",
"U. c #6CEF73",
"Y. c #8F9774",
"T. c #83FE6B",
"R. c #639F80",
"E. c #7AB485",
"W. c #11C686",
"Q. c #10CD85",
"!. c #0CD988",
"~. c #0FCD94",
"^. c #11CD92",
"/. c #0DD791",
"(. c #34D487",
"). c #0CE88A",
"_. c #16F588",
"`. c #0FEF90",
"'. c #0CE894",
"]. c #13F598",
"[. c #2EF590",
"{. c #14FBA6",
"}. c #27FBAB",
"|. c #39FDAA",
" X c #2DFCB4",
".X c #38FCB7",
"XX c #46D88A",
"oX c #7DCD82",
"OX c #4FF091",
"+X c #74F995",
"@X c #56FEAC",
"#X c #44FDB7",
"$X c #55FAB2",
"%X c #66FDAA",
"&X c #72FCB2",
"*X c #4FFDC4",
"=X c #5BFDC5",
"-X c #6AFDCD",
";X c #78FDCE",
":X c #82B38F",
">X c #AAB196",
",X c #95F78D",
"<X c #A3F793",
"1X c #84D1AD",
"2X c #93F5A5",
"3X c #88FDB4",
"4X c #9AFDB7",
"5X c #AEF5AA",
"6X c #A9FCB7",
"7X c #B8FDBB",
"8X c #DAC49D",
"9X c #DDCAA2",
"0X c #DACBA4",
"qX c #DED0A7",
"wX c #DDD2A9",
"eX c #E2CBA4",
"rX c #EFD1A6",
"tX c #E1D1A8",
"yX c #EED4AB",
"uX c #EDD5B1",
"iX c #90FDD2",
"pX c #B7FDC4",
"aX c #A9FBD1",
"sX c #BBFDD9",
"dX c #A6FDE4",
"fX c #B8FDE5",
"gX c #C7FDC8",
"hX c #CAFDD6",
"jX c #D5FDDD",
"kX c #D8FDD8",
"lX c #E0FDDE",
"zX c #C8FCE8",
"xX c #D5FCE4",
"cX c #DCF8E7",
"vX c #DBFDF5",
"bX c #DEFEFB",
"nX c #E3F9E8",
"mX c #F2F5EF",
"MX c #E8F6F2",
"NX c #E5FEF3",
"BX c #EAFEF4",
"VX c #E3FEFC",
"CX c #E6FEFD",
"ZX c #EAFEFD",
"AX c #F1FCF6",
"SX c #F2FEF9",
/* pixels */
"rXrXrXrXrXrXrXrXrXrXrXrXrXrXrXrXrXrXrXrXrXrXrXrXrXrXrXrXrXrXrXuX>X8XrXrXrXrXrXrXrXrXrXrXrXrXrXrXrXrXrXrXrXrXrXrXrXrXrXrXrXrXrXrX",
"rXrXrXrXrXrXrXrXrXrXrXrXrXrXrXrXrXrXrXrXrXrXrXrXrXrXrXrXrXrXuXAX:Xp 8XrXrXrXrXrXrXrXrXrXrXrXrXrXrXrXrXrXrXrXrXrXrXrXrXrXrXrXrXrX",
"rXrXrXrXrXrXrXrXrXrXrXrXrXrXrXrXrXrXrXrXrXrXrXrXrXrXrXrXrXuXAXZX:X1 p 8XrXrXrXrXrXrXrXrXrXrXrXrXrXrXrXrXrXrXrXrXrXrXrXrXrXrXrXrX",
"rXrXrXrXrXrXrXrXrXrXrXrXrXrXrXrXrXrXrXrXrXrXrXrXrXrXrXrXuXMXZXZX:X; 6 a 9XrXrXrXrXrXrXrXrXrXrXrXrXrXrXrXrXrXrXrXrXrXrXrXrXrXrXrX",
"rXrXrXrXrXrXrXrXrXrXrXrXrXrXrXrXrXrXrXrXrXrXrXrXrXrXrXuXMXZXZXCXE.$ 9 7 e.9XrXrXrXrXrXrXrXrXrXrXrXrXrXrXrXrXrXrXrXrXrXrXrXrXrXrX",
"rXrXrXrXrXrXrXrXrXrXrXrXrXrXrXrXrXrXrXrXrXrXrXrXrXrXuXMXZXCXCXCXE.$ 1 6 e e.9XrXrXrXrXrXrXrXrXrXrXrXrXrXrXrXrXrXrXrXrXrXrXrXrXrX",
"rXrXrXrXrXrXrXrXrXrXrXrXrXrXrXrXrXrXrXrXrXrXrXrXrXuXnXCXCXCXCXNXE.$ 3 6 5 e e.9XrXrXrXrXrXrXrXrXrXrXrXrXrXrXrXrXrXrXrXrXrXrXrXrX",
"rXrXrXrXrXrXrXrXrXrXrXrXrXrXrXrXrXrXrXrXrXrXrXrXuXnXVXCXCXCXVXNXE.$ $ & 5 7 t e.9XrXrXrXrXrXrXrXrXrXrXrXrXrXrXrXrXrXrXrXrXrXrXrX",
"rXrXrXrXrXrXrXrXrXrXrXrXrXrXrXrXrXrXrXrXrXrXrXuXMXCXCXVXCXNXNXNXa.+ X X 5 = 7 t t.9XrXrXrXrXrXrXrXrXrXrXrXrXrXrXrXrXrXrXrXrXrXrX",
"rXrXrXrXrXrXrXrXrXrXrXrXrXrXrXrXrXrXrXrXrXrXyXMXCXVXVXVXVXNXNXNXa.X X 3 9 = 5 7 t t.9XrXrXrXrXrXrXrXrXrXrXrXrXrXrXrXrXrXrXrXrXrX",
"rXrXrXrXrXrXrXrXrXrXrXrXrXrXrXrXrXrXrXrXrXyXMXVXVXVXbXVXZXBXNXNXa.X 3 3 3 3 5 = 7 t t.eXrXrXrXrXrXrXrXrXrXrXrXrXrXrXrXrXrXrXrXrX",
"rXrXrXrXrXrXrXrXrXrXrXrXrXrXrXrXrXrXrXrXyXMXVXVXvXvXNXNXBXAXSXnXp.S & * 3 3 6 5 = 7 e t.eXrXrXrXrXrXrXrXrXrXrXrXrXrXrXrXrXrXrXrX",
"rXrXrXrXrXrXrXrXrXrXrXrXrXrXrXrXrXrXrXyXMXVXVXbXvXvXNXBXBXSXnXL.+XD.S & & 3 3 9 5 5 7 t t.eXrXrXrXrXrXrXrXrXrXrXrXrXrXrXrXrXrXrX",
"rXrXrXrXrXrXrXrXrXrXrXrXrXrXrXrXrXrXyXMXVXVXbXvXNXNXNXBXAXnXp.,X6X2XD.S & & 3 6 9 5 5 7 t t.eXrXrXrXrXrXrXrXrXrXrXrXrXrXrXrXrXrX",
"rXrXrXrXrXrXrXrXrXrXrXrXrXrXrXrXrXyXMXCXbXbXvXVXNXNXBXAXnXp.<X7X7X6X2Xl.S & 3 3 6 9 6 5 e t t.eXrXrXrXrXrXrXrXrXrXrXrXrXrXrXrXrX",
"rXrXrXrXrXrXrXrXrXrXrXrXrXrXrXrXyXmXZXCXVXvXVXNXNXBXAXnXp.5X7XgXgX7X4X+Xk.4 & 3 3 9 9 6 5 7 e q.eXrXrXrXrXrXrXrXrXrXrXrXrXrXrXrX",
"rXrXrXrXrXrXrXrXrXrXrXrXrXrXrXrXcXVXZXZXCXZXZXBXBXAXcXp.5XgXgXgXgX7X4X3X%Xk.4 & 3 3 9 9 5 5 = = s rXrXrXrXrXrXrXrXrXrXrXrXrXrXrX",
"rXrXrXrXrXrXrXrXrXrXrXrXrXrXrXyXR.1XaXsXxXBXSXSXAXnXp.5XgXgXhXhXgX6X4X3X&XOXk.4 & 3 3 6 * X 7 e a yXrXrXrXrXrXrXrXrXrXrXrXrXrXrX",
"rXrXrXrXrXrXrXrXrXrXrXrXrXrXrXyXt 1 , w.oX2XpXjXcXy.5XkXkXkXkXhXgX7X3X3X%X@XOXk.4 + X 4 F -.1 % r yXrXrXrXrXrXrXrXrXrXrXrXrXrXrX",
"rXrXrXrXrXrXrXrXrXrXrXrXrXrXrXyXt C M M l z w.P.w.2XnXnXkXkXjXjXgXpX4X3X%X@X@X[. .M J J B - < % r yXrXrXrXrXrXrXrXrXrXrXrXrXrXrX",
"rXrXrXrXrXrXrXrXrXrXrXrXrXrXrXyX-.C C M R l k k 2.hXlXnXkXjXjXxXhXsXaXiX&X$X@X|.v.f c H B V < % r yXrXrXrXrXrXrXrXrXrXrXrXrXrXrX",
"rXrXrXrXrXrXrXrXrXrXrXrXrXrXrXyX-.*.A L E n l k 7.hXlXnXjXxXxXxXzXfXaXiX;X&X#X|.G.f c c B V < % r yXrXrXrXrXrXrXrXrXrXrXrXrXrXrX",
"rXrXrXrXrXrXrXrXrXrXrXrXrXrXrXyX;.*.A Y E m v k 8.jXnXnXjXxXxXzXfXfXdXiX;X=X#X|.G.d c c B Z < % r rXrXrXrXrXrXrXrXrXrXrXrXrXrXrX",
"rXrXrXrXrXrXrXrXrXrXrXrXrXrXrXyX;.*.A Y | E n k 7.hXnXkXjXxXxXzXzXzXdXiX;X=X#X.XG.d c c H Z < < y yXrXrXrXrXrXrXrXrXrXrXrXrXrXrX",
"rXrXrXrXrXrXrXrXrXrXrXrXrXrXrXyX;.>.I Y | E n k 7.hXkXjXhXcXNXzXzXfXdXiX;X=X#X.XG.d j H K Z < < y yXrXrXrXrXrXrXrXrXrXrXrXrXrXrX",
"rXrXrXrXrXrXrXrXrXrXrXrXrXrXrXyX;.>.I Y ..E v k 7.gXgXhXhXvXVXZXVXzXdXiX-X=X#X.XG.d H K U P 2 < y yXrXrXrXrXrXrXrXrXrXrXrXrXrXrX",
"rXrXrXrXrXrXrXrXrXrXrXrXrXrXrXyX6.>.I Y ..E v k 7.pXgXgXhXxXvXbXbXvXdX;X-X*X.X XG.f K ] ] P 2 < y yXrXrXrXrXrXrXrXrXrXrXrXrXrXrX",
"rXrXrXrXrXrXrXrXrXrXrXrXrXrXrXyX6.,.>.Y ..E n h 7.pX7X7X7XgXsXfXfXdXiX-X=X.X X XG.c ) { f.P 2 < y yXrXrXrXrXrXrXrXrXrXrXrXrXrXrX",
"rXrXrXrXrXrXrXrXrXrXrXrXrXrXrXyX6.1.>.Y X.E n h C.6X5X5X5X6X6XiXiX;X-X$X.X}. X}.G.x ` { f.U 2 q y yXrXrXrXrXrXrXrXrXrXrXrXrXrXrX",
"rXrXrXrXrXrXrXrXrXrXrXrXrXrXrXyX6.1.,.T X.| n h Z.<X<X,X,X,X2X&X&X&X$X#X|. X}.{.v.x ` { { U 2 q y yXrXrXrXrXrXrXrXrXrXrXrXrXrXrX",
"rXrXrXrXrXrXrXrXrXrXrXrXrXrXrXyX8.1.,.T X.| m h Z.,XT.T.J.+X+X+X@X@X@X|.}.{.{.].v.x ! { ] P 2 q y yXrXrXrXrXrXrXrXrXrXrXrXrXrXrX",
"rXrXrXrXrXrXrXrXrXrXrXrXrXrXrXyX9.1.,.T } | m k 7.U.J.J.J.U.OXOXOXOX[.[._.].`.].v.x ! ` ] P 2 q u yXrXrXrXrXrXrXrXrXrXrXrXrXrXrX",
"rXrXrXrXrXrXrXrXrXrXrXrXrXrXrXyX9.1.,.T } _ b k 7.I.H.H.H.H.I.I.I.S.S.[._._.`.`.v.x ! ` { U V q u yXrXrXrXrXrXrXrXrXrXrXrXrXrXrX",
"rXrXrXrXrXrXrXrXrXrXrXrXrXrXrXyX9.g.,.T +._ b k 7.H.F.F.F.F.m.m.m.n.S.A._.`.'.).v.! ` ` { U V w i yXrXrXrXrXrXrXrXrXrXrXrXrXrXrX",
"rXrXrXrXrXrXrXrXrXrXrXrXrXrXrXyX9.g.,.[ +.' b k 7.G.F.&.&.b.b.b.c.c.A.A.).).'.!.v.Q ` o.{ U V w i yXrXrXrXrXrXrXrXrXrXrXrXrXrXrX",
"rXrXrXrXrXrXrXrXrXrXrXrXrXrXrXyX9.g.,.[ +.' b v 8.b.&.&.&.&.%.c.c.c.x.A.).'./.!.l.^ o.o.O.U V w i yXrXrXrXrXrXrXrXrXrXrXrXrXrXrX",
"rXrXrXrXrXrXrXrXrXrXrXrXrXrXrXyXZ.g.d.[ O.' b v Z.c.$.$.$.%.%.%.+.x.j.A.)././.Q.l.^ / o.O.] V w i yXrXrXrXrXrXrXrXrXrXrXrXrXrXrX",
"rXrXrXrXrXrXrXrXrXrXrXrXrXrXrXyXZ.g.d.[ O.` b c Z.c. .$.$.$.%.} +.f.j.V.!./.^.Q.l./ ( @.@.s.V w i yXrXrXrXrXrXrXrXrXrXrXrXrXrXrX",
"rXrXrXrXrXrXrXrXrXrXrXrXrXrXrXyXZ.N.d.] O.` ! x XX} '  . . . .' } f.j.V.!./.~.W.l./ ( #.x.s.V w i yXrXrXrXrXrXrXrXrXrXrXrXrXrXrX",
"rXrXrXrXrXrXrXrXrXrXrXrXrXrXrXyXZ.N.s.] O.` ! x XX[ ~  . . .' ' } s.z.B.Q.^.~.W.k.o.O.O.x.s.V w i yXrXrXrXrXrXrXrXrXrXrXrXrXrXrX",
"rXrXrXrXrXrXrXrXrXrXrXrXrXrXrXyX(.N.s.] @.` Q x XXY ~ _ _ _ _ _ [ d.M.B.W.^.~.W.k.#.n.x.x.s.V w i yXrXrXrXrXrXrXrXrXrXrXrXrXrXrX",
"rXrXrXrXrXrXrXrXrXrXrXrXrXrXrXyXZ.N.s.] @.` Q x XXL b ~ ~ ~ _ _ [ d.M.W.~.~.~.4.D.+.m.n.n.h.V < u yXrXrXrXrXrXrXrXrXrXrXrXrXrXrX",
"rXrXrXrXrXrXrXrXrXrXrXrXrXrXrXyX(.N.s.] @.` Q Q XXJ b b ~ ~ _ [ T 1.M.W.^.W.5.<.D.#.c.n.n.h.V < y yXrXrXrXrXrXrXrXrXrXrXrXrXrXrX",
"rXrXrXrXrXrXrXrXrXrXrXrXrXrXrXyX(.N.j.] @./ ^ Q XXJ v b b b L T T 1.3.B.5.5.5.5.D.o.c.b.n.,.V < y yXrXrXrXrXrXrXrXrXrXrXrXrXrXrX",
"rXrXrXrXrXrXrXrXrXrXrXrXrXrXrXyX(.N.j.] ` / / @.Y W b b b b L Y Y ,.1.3.3.5.W.XX,Xc } c.z.z.:.< y yXrXrXrXrXrXrXrXrXrXrXrXrXrXrX",
"rXrXrXrXrXrXrXrXrXrXrXrXrXrXrXyX(.V.j.f.x.x.x.Y M 2.2.v v v v L Y ,.1.1.3.B.C.P.0.    @ A z.*.< y yXrXrXrXrXrXrXrXrXrXrXrXrXrXrX",
"rXrXrXrXrXrXrXrXrXrXrXrXrXrXrXyX(.`.].V.1.: @ @ @ S k.2.v v v J I ,.,.1.M.C.P.=.  . . . . O - < u yXrXrXrXrXrXrXrXrXrXrXrXrXrXrX",
"rXrXrXrXrXrXrXrXrXrXrXrXrXrXrXrX1X4.1 o O ; # # # # D 2.W j v v J I >.h.C.P.=.O + o o o o o . . s rXrXrXrXrXrXrXrXrXrXrXrXrXrXrX",
"rXrXrXrXrXrXrXrXrXrXrXrXrXrXrXrXeXs - - ; ; g g g h h D 2.J j j H I ,.z.P.=.+ + o o o ; > > > q.eXrXrXrXrXrXrXrXrXrXrXrXrXrXrXrX",
"rXrXrXrXrXrXrXrXrXrXrXrXrXrXrXrXrXeXt.1 : > > g j g h # D 2.J j J ,.z.P.=.o o . o o ; > , M r.tXrXrXrXrXrXrXrXrXrXrXrXrXrXrXrXrX",
"rXrXrXrXrXrXrXrXrXrXrXrXrXrXrXrXrXrXeXy.V 2 : : B g h # # D W W I z.P.0.O + o + o ; , M C u.tXrXrXrXrXrXrXrXrXrXrXrXrXrXrXrXrXrX",
"rXrXrXrXrXrXrXrXrXrXrXrXrXrXrXrXrXrXrXeXp.*.V : : N g # # # F W 2.K.0.O ; ; O o > M C C u.wXrXrXrXrXrXrXrXrXrXrXrXrXrXrXrXrXrXrX",
"rXrXrXrXrXrXrXrXrXrXrXrXrXrXrXrXrXrXrXrXeXa.:.V : : g h h h R W D.=.. ; > > ; > C C G u.wXrXrXrXrXrXrXrXrXrXrXrXrXrXrXrXrXrXrXrX",
"rXrXrXrXrXrXrXrXrXrXrXrXrXrXrXrXrXrXrXrXrXeXi.<.V : : N l n R S p . o + > > > C G G u.wXrXrXrXrXrXrXrXrXrXrXrXrXrXrXrXrXrXrXrXrX",
"rXrXrXrXrXrXrXrXrXrXrXrXrXrXrXrXrXrXrXrXrXrXtXL.<.Z : M L R h D 8 . o o O > C G G u.wXrXrXrXrXrXrXrXrXrXrXrXrXrXrXrXrXrXrXrXrXrX",
"rXrXrXrXrXrXrXrXrXrXrXrXrXrXrXrXrXrXrXrXrXrXrXtXL.<.Z N J L h R 8 X o o ; C G G u.wXrXrXrXrXrXrXrXrXrXrXrXrXrXrXrXrXrXrXrXrXrXrX",
"rXrXrXrXrXrXrXrXrXrXrXrXrXrXrXrXrXrXrXrXrXrXrXrXtXL.<.Z A L l J 8 . o o , C G u.wXrXrXrXrXrXrXrXrXrXrXrXrXrXrXrXrXrXrXrXrXrXrXrX",
"rXrXrXrXrXrXrXrXrXrXrXrXrXrXrXrXrXrXrXrXrXrXrXrXrXtXL.<.>.Y J L 8 . o ; C C u.qXrXrXrXrXrXrXrXrXrXrXrXrXrXrXrXrXrXrXrXrXrXrXrXrX",
"rXrXrXrXrXrXrXrXrXrXrXrXrXrXrXrXrXrXrXrXrXrXrXrXrXrXqXi.1.,.Y ..8 . o > C 0.wXrXrXrXrXrXrXrXrXrXrXrXrXrXrXrXrXrXrXrXrXrXrXrXrXrX",
"rXrXrXrXrXrXrXrXrXrXrXrXrXrXrXrXrXrXrXrXrXrXrXrXrXrXrX0XL.M.h.z.8 . + C 0.wXrXrXrXrXrXrXrXrXrXrXrXrXrXrXrXrXrXrXrXrXrXrXrXrXrXrX",
"rXrXrXrXrXrXrXrXrXrXrXrXrXrXrXrXrXrXrXrXrXrXrXrXrXrXrXrXqXXXA.S.0 . - 0.wXrXrXrXrXrXrXrXrXrXrXrXrXrXrXrXrXrXrXrXrXrXrXrXrXrXrXrX",
"rXrXrXrXrXrXrXrXrXrXrXrXrXrXrXrXrXrXrXrXrXrXrXrXrXrXrXrXrXqXOX_.t . 0.wXrXrXrXrXrXrXrXrXrXrXrXrXrXrXrXrXrXrXrXrXrXrXrXrXrXrXrXrX",
"rXrXrXrXrXrXrXrXrXrXrXrXrXrXrXrXrXrXrXrXrXrXrXrXrXrXrXrXrXrXwX$Xt p 0XrXrXrXrXrXrXrXrXrXrXrXrXrXrXrXrXrXrXrXrXrXrXrXrXrXrXrXrXrX",
"rXrXrXrXrXrXrXrXrXrXrXrXrXrXrXrXrXrXrXrXrXrXrXrXrXrXrXrXrXrXrXwXY.0XrXrXrXrXrXrXrXrXrXrXrXrXrXrXrXrXrXrXrXrXrXrXrXrXrXrXrXrXrXrX"
};
