/* XPM */
static char *f1ac50c5539a4b51d9a11f92b6f3d687yOkc7wSK99VGBtay[] = {
/* columns rows colors chars-per-pixel */
"64 64 77 1 ",
"  c #1E140E",
". c #20160F",
"X c #261D16",
"o c #281E15",
"O c #271E18",
"+ c #281F18",
"@ c #2B221A",
"# c #30271E",
"$ c #342B21",
"% c #382F25",
"& c #3A3126",
"* c #3B342A",
"= c #40372A",
"- c #463C2D",
"; c #483E2F",
": c #493F30",
"> c #4C4233",
", c #4D4539",
"< c #504637",
"1 c #544A3B",
"2 c #594E3F",
"3 c #5B503F",
"4 c #554C40",
"5 c #5E5444",
"6 c #615645",
"7 c #645847",
"8 c #655B4B",
"9 c #6A5F4E",
"0 c #685F50",
"q c #6C604D",
"w c #6C6152",
"e c #726654",
"r c #736857",
"t c #766B5A",
"y c #7A6E5B",
"u c #7D705C",
"i c #7E7361",
"p c #81745F",
"a c #827661",
"s c #867A65",
"d c #8A7C66",
"f c #867B6A",
"g c #897E6B",
"h c #8D816C",
"j c #95866E",
"k c #918571",
"l c #978870",
"z c #988971",
"x c #9B8E79",
"c c #9F9079",
"v c #A2937B",
"b c #B19B7A",
"n c #B7A07F",
"m c #A29680",
"M c #A59781",
"N c #A69881",
"B c #A69982",
"V c #A99B83",
"C c #A99C85",
"Z c #AC9E87",
"A c #AD9F89",
"S c #B19E80",
"D c #AFA189",
"F c #BFA785",
"G c #B1A38B",
"H c #B2A48C",
"J c #B4A78F",
"K c #B5A790",
"L c #B7A991",
"P c #B8AA92",
"I c #C1AB8A",
"U c #C3AC8A",
"Y c #C4AC8A",
"T c #C5AD8C",
"R c #C9B18F",
"E c #CBB38F",
"W c #DDC19A",
/* pixels */
"jTRRRIxzzzzzzzzzzzzzzzzzzlSTRRRYnbbbbFRRRRRRRRRRRRRRRRRRRRRRRRRW",
"tzxxxxzzzzzzzzzzzzzzzzzzzzzxxxxh8-;-<uxxxxxxxxxxxxxxxxxxxxxxxxvR",
"rjzzzzzzzzzzzzzzzzzzzzzzzzzzzzzs2X+O&rzzzzzzzzzzzzzzzzzzzzzzzzxR",
"rjzzzzzzzzzzzzzzzzzzzzzzzzzzzzzs2X+O&rzzzzzzzzzzzzzzzzzzzzzzzzxR",
"rjzzzzzzzzzzzzzzzzzzzzzzzzzzzzzs2+@@*rzzzzzzzzzzzzzzzzzzzzzzzzxR",
"tzxxxxzzzzzzzzzzzzzzzzzzzzjhghha91115uzzzzzzzzzzzzzzzzzzzzzzzzxU",
"fDHHHDxzzzzzzzzzzzzzzzzzzzy,=-=wxDADCvzzzzzzzzzzzzzzzzzzzzzzzzzx",
"gHLLLHxzzzzzzzzzzzzzzzzzzzr&OOX9mPLLJNlzzzzzzzzzzzzzzzzzzzzzzzzz",
"gHLLLHxzzzzzzzzzzzzzzzzzzzr&O+X9mPLLJNzzzzzzzzzzzzzzzzzzzzzzzzzz",
"gHLLLHxzzzzzzzzzzzzzzzzzzzr&O+X9mPLLJNzzzzzzzzzzzzzzzzzzzzzzzzzz",
"gHLLLGxzzzzzzzzzzzzzzzzzzzr&O+X9mPLLJNzzzzzzzzzzzzzzzzzzzzzzzzzz",
"4999wuZHHHGxzzzzzzzzzVHHHHg=O+X9mPLLJNzzzzzzzzzzzzzzzzzzzzzzzzzz",
"*---:9DPLLLczzzzzzzzzZLLLPh=OOX8mPLLJNzzzzzzzzzzzzzzzzzzzzzzzzzz",
"*:::>qDLLLLczzzzzzzzzZLLLLh=OOX8mPLLJNzzzzzzzzzzzzzzzzzzzzzzzzzz",
"*:::>qDLLLLczzzzzzzzzZLLLPh=O+X8mPLLJNzzzzzzzzzzzzzzzzzzzzzzzzzz",
"*:::>qDPPPLczzzzzzzzlAPPPPh=OOX8mPLLJNzzzzzzzzzzzzzzzzzzzzzzzzzz",
"*:::>1etttyNGGGGGGGGGgwwww5-==*wMPLLLHDGGGNzzzzzzzzzzzzzzzzzzzzz",
"*:::::----,CPLLLLLLLPt.XXX%-::-eNPLLLLLLLLZzzzzzzzzzzzzzzzzzzzzz",
"*:::::::::<CPLLLLLLLPtO++O&-::-eNPLLLLLLLLZzzzzzzzzzzzzzzzzzzzzz",
"*:::::::::<CPLLLLLLLPtO++O&-::-eNPLLLLLLLLZzzzzzzzzzzzzzzzzzzzzz",
"*:::::::::<CPPPPPPPPPyO++O&-::-eNPPPPLLLLLZlzzzzzzzzzzzzzzzzzzzz",
"*:::::::::>ahgggggggh5O++O&-::;5ihgghMPLLLHVVVVvzzzzzzzzzzzzzzzz",
"*::::::::::1111111111*+++O&-:::>11116zPLLLLJJJLDlzzzzzzzzzzzzzzz",
"*::::::::::;;;;;;;;;;$+++O&-::::;;;-2kPLLLLLLLPGlzzzzzzzzzzzzlzz",
"*::::::::::::::::::::$+++O&-:::::::;2kPLLLLLLLPGlzzzzzzzzzzzzzzz",
"*-;;;;:::::::::::::::$+++O&-:::::::;2kPPPPPPPPPGlzzzzzzzzzzzzzzz",
",67775>::::::::::::::$+++O&-:::::::;1sNMMMMMMMNMvvvvvvvvvvvvvvvv",
"9sdddp1::::::::::::::$+++O&-::::::::>6eeeeeeeewsGGGGGGGGGGGGGGGG",
"rjzzzh2::::::::::::::$+++O&-:::::::::;--------=ePLLLLLLLLLLLLLLL",
"rjzzzg2::::::::::::::$+++O&-::::::::::::::::::-rPLLLLLLLLLLLLLLL",
"rjzzzg2;:::::::::::::$OOOO&-::::::::::::::::::-rPLLLLLLLLLLLLLLL",
"rjzzzh3>>>>>>>>>>::::&$$$$=>>>>>>:::::::::::::-eKJJJJJJJJJJJJJJJ",
"rjzzzjpyuuuuuuuu2;::;9rrrryyuuue2;::::::::::::-5gggggggggggggggg",
"rjzzzzzzzzzzzzzz8-::-azzzzzzzzzd7;:::::::::::::;----------------",
"rjzzzzzzzzzzzzzz8-::-azzzzzzzzzd7;::::::::::::::::::::::;;::::::",
"rjzzzzzzzzzzzzzz7-::-azzzzzzzzzd7;::::::::::::::::::::::;;;:::::",
"ejllllzzzzzzzzzz8-::-pllzllzzzzd6----------:::::::::::::::::::::",
"ivNNMvzzzzzzzzzz8-::-hNNNNvzzzzjueeeeeeeee8;:::::::::::::::::::-",
"hJPPPHxzzzzzzzzz8-::-xPPPPCzzzzzzzzzzzzzzza-::::::::::::::::::;&",
"gHLLLHxzzzzzzzzz8-::-xLLLLVzzzzzzzzzzzzzzza-::::::::::::::::::;&",
"gHLLLHxzzzzzzzzz8-::-xLLLLVzzzzzzzzzzzzzzza-::::::::::::::::::;&",
"gHLLLHxllllllllz8-::-xLLLLVzzzzzzzzzzzzzzza--------------------&",
"gHLLLJNvvvvvvvvv9-::-xLLLLVzzzzzzzzzzzzzzzd9qqqqqqqqqqqqqqqqqq91",
"gHLLLLLLLLLLLLLPr-::-xLLLLVzzzzzzzzzzzzzzzzzzzzzzzzzzzzzzzzzzzje",
"gHLLLLLLLLLLLLLPr-::-xLPPLVzzzzzzzzzzzzzzzzzzzzzzzzzzzzzzzzzzzje",
"gHLLLLLLLLLLLLLPr-::-xLPLLVzzzzzzzzzzzzzzzzzzzzzzzzzzzzzzzzzzzje",
"gHLLLLLLLLLLLLLPr-::-xPPPPVzzzzzzzzzzzzzzzzzzzzzzzzzzzzzzzzzzzje",
"fAHHGHLLLLLLLLLPe*--=hVNNNvvcccxzzzzzzzzzzzzzzzzzzzzzzzzzzzzzzje",
"tzxxxvJLLLLLLLLPwo##@29998kDHHHZczzzzzzzzzzzzzzzzzzzzzzzzzzzzzje",
"rjzzzcJLLLLLLLLP0 +++*:::-gHLLLGvzzzzzzzzzzzzzzzzzzzzzzzzzzzzzje",
"rjzzzcJLLLLLLLLP0 ++O*:::-gHLLLGvzzzzzzzzzzzzzzzzzzzzzzzzzzzzzje",
"rjzzzcJLLLLLLLLP0 ++O*:::-gHPLPGvzzzzzzzzzzzzzzzzzzzzzzzzzzzzzje",
"rjzzzxHJJJJHHHHH9 +++*----sAHHHZvzzzzzzzzzzzzzzzzzzzzzzzzzjjjjjw",
"rjzzzzNVVVNkhhhh1X+++$&&&%wghhhlvVVVVVVVVVVVVVVVVVVVVVVVVvueeew2",
"rjzzzzzzzzl6>>>>$O++++@@@+&>>>>rNLLLLLLLLLLLLLLLLLLLLLLLLD5#@@@@",
"rjzzzzzzzzj5;:::$O+++++++O&-::-eNPLLLLLLLLLLLLLLLLLLLLLLLD5@++++",
"rjzzzzzzzzj5;:::$O+++++++O&-::-eNPLLLLLLLLLLLLLLLLLLLLLLLD5@++++",
"rjzzzzzzzzj5;:::$O+++++++O&-::-eMLLLLLLLLLLLLLLLLLLLLLLLLA5@++++",
"rjzzzzzzzzj5;:::$O+++++++O&-::-qzVNNNNNNNNNNNNNNNNNNNNNNNc4@++@@",
"rjzzzzzzzzj5;:::$O+++++++O&-:::><11111111111111>%&&&&&&&&%@+++@&",
"rjzzzzzzzzj5;:::$O+++++++O&-:::::::::::::::::::=O+++++++++++++@&",
"rjzzzzzzzzj5;:::$O+++++++O&-:::::::::::::::::::=O+++++++++++++@&",
"rjzzzzzzzzj5;:::$O+++++++O&-:::::::::::::::::::=O+++++++++++++@&",
"wjjjjjzzzzj5;:::$O+++++++O&-:::::::::::::::::::=@@@@@+++++++++@&"
};
