/* XPM */
static char * wall_xpm[] = {
"32 32 183 2",
"  	c #B8A181",
". 	c #EFD1A6",
"+ 	c #DFC49C",
"@ 	c #B19D7F",
"# 	c #D3BA94",
"$ 	c #DABF99",
"% 	c #988870",
"& 	c #CAB28F",
"* 	c #9E8B70",
"= 	c #CCB490",
"- 	c #BFA888",
"; 	c #B5A081",
"> 	c #C7AF8C",
", 	c #B69F7E",
"' 	c #B79F7E",
") 	c #CCB390",
"! 	c #E6CAA1",
"~ 	c #766A58",
"{ 	c #867862",
"] 	c #282018",
"^ 	c #2C241C",
"/ 	c #97876F",
"( 	c #DCC19A",
"_ 	c #7A6E5C",
": 	c #9E8E76",
"< 	c #9C8C74",
"[ 	c #93836C",
"} 	c #8D7E68",
"| 	c #827460",
"1 	c #574E41",
"2 	c #594F42",
"3 	c #D3B994",
"4 	c #E4C79F",
"5 	c #E9CCA2",
"6 	c #8E8270",
"7 	c #B8A890",
"8 	c #AF9F88",
"9 	c #716452",
"0 	c #271F17",
"a 	c #675D4F",
"b 	c #998971",
"c 	c #C8B08D",
"d 	c #B0A088",
"e 	c #685D4F",
"f 	c #4D463B",
"g 	c #615847",
"h 	c #817562",
"i 	c #B4A48C",
"j 	c #B3A38B",
"k 	c #A89880",
"l 	c #857967",
"m 	c #A08E74",
"n 	c #A79579",
"o 	c #3B362C",
"p 	c #484030",
"q 	c #786D5A",
"r 	c #B7A78F",
"s 	c #AA9A82",
"t 	c #887C69",
"u 	c #C6AE8C",
"v 	c #615746",
"w 	c #887C68",
"x 	c #8A7D6A",
"y 	c #AB9B83",
"z 	c #978974",
"A 	c #827664",
"B 	c #665C4D",
"C 	c #3C3527",
"D 	c #6E6353",
"E 	c #9D8D75",
"F 	c #514838",
"G 	c #3B3326",
"H 	c #726856",
"I 	c #A19179",
"J 	c #4F4636",
"K 	c #A49680",
"L 	c #776C5B",
"M 	c #6A5F4E",
"N 	c #A59680",
"O 	c #A7977F",
"P 	c #9C8C75",
"Q 	c #C9B290",
"R 	c #393225",
"S 	c #4B4333",
"T 	c #A99981",
"U 	c #A89881",
"V 	c #D3BC9A",
"W 	c #746857",
"X 	c #95866E",
"Y 	c #847661",
"Z 	c #524939",
"` 	c #8F826E",
" .	c #928470",
"..	c #B09A7A",
"+.	c #877862",
"@.	c #8E816D",
"#.	c #90836F",
"$.	c #AE9878",
"%.	c #92836B",
"&.	c #837560",
"*.	c #594F3E",
"=.	c #6A5E4C",
"-.	c #7F715D",
";.	c #81735E",
">.	c #776B56",
",.	c #675D4C",
"'.	c #7E7260",
").	c #645A4A",
"!.	c #362E22",
"~.	c #AC9676",
"{.	c #605644",
"].	c #7B6E59",
"^.	c #897B64",
"/.	c #AA9475",
"(.	c #857867",
"_.	c #AB9C84",
":.	c #A6967E",
"<.	c #897C67",
"[.	c #A2927A",
"}.	c #7E715C",
"|.	c #5A503F",
"1.	c #3D3528",
"2.	c #383024",
"3.	c #31291F",
"4.	c #928570",
"5.	c #645947",
"6.	c #332B20",
"7.	c #B2A28A",
"8.	c #645A48",
"9.	c #756955",
"0.	c #665B49",
"a.	c #40372B",
"b.	c #6D6351",
"c.	c #594E3F",
"d.	c #6D6251",
"e.	c #918470",
"f.	c #776B59",
"g.	c #A3937B",
"h.	c #615749",
"i.	c #292119",
"j.	c #40392B",
"k.	c #A2927B",
"l.	c #3C3427",
"m.	c #B1A189",
"n.	c #9B8C74",
"o.	c #A3947C",
"p.	c #7C705E",
"q.	c #453D31",
"r.	c #2F281E",
"s.	c #352D22",
"t.	c #615748",
"u.	c #8B7E6A",
"v.	c #AE9E87",
"w.	c #AE9E86",
"x.	c #635747",
"y.	c #605545",
"z.	c #3D3429",
"A.	c #3F382A",
"B.	c #AD9777",
"C.	c #96866E",
"D.	c #312A21",
"E.	c #3A3225",
"F.	c #655B4B",
"G.	c #9B8D78",
"H.	c #998B77",
"I.	c #978A76",
"J.	c #978975",
"K.	c #2E261E",
"L.	c #362F23",
"M.	c #40382A",
"N.	c #948267",
"O.	c #41392B",
"P.	c #736856",
"Q.	c #95856E",
"R.	c #96866F",
"S.	c #2B231A",
"T.	c #2A221A",
"U.	c #433E3A",
"V.	c #534D46",
"W.	c #6D6355",
"X.	c #423A2C",
"Y.	c #433F3A",
"Z.	c #423A2B",
"  . + @ @ @ @ @ @ @ @ # . . . . . . . . . . . . . . . . . . . . ",
"  . $ % % % % % % % % & . . . . . . . . . . . . . . . . . . . . ",
"* = - % % % % % % % % ; = > , ' ) = = = = = = = = = = ! . . . . ",
"~ % % % % % % % % % % % % { ] ^ / % % % % % % % % % % ( . . . . ",
"_ : < % % % % % % % % [ } | 1 2 / % % % % % % % % % % 3 4 5 . . ",
"6 7 8 % % % % % % % % 9 0 a 7 7 b % % % % % % % % % % % % c . . ",
"6 7 d % % % % % % % % 9 ] e 7 7 b % % % % % % % % % % % % c . . ",
"f g h i j % % % % k i l ] e 7 7 b % % % % % % % % % % % % m n ) ",
"o p q 7 r % % % % s 7 t ] e 7 7 b % % % % % % % % % % % % % % u ",
"o p v w x y y y y z A B C D 7 7 y y E % % % % % % % % % % % % u ",
"o p p p F 7 7 7 7 l ] G p H 7 7 7 7 I % % % % % % % % % % % % u ",
"o p p p J K K K K L ] G p M K N 7 7 O I E % % % % % % % % P I Q ",
"o p p p p p p p p R ] G p p p S r 7 7 7 T % % % % % % % % U 7 V ",
"o p p p p p p p p R ] G p p p S r 7 7 7 T % % % % % % % % U 7 V ",
"W X Y p p p p p p R ] G p p p p Z Z Z Z ` r r r r r r r r  .Z ..",
"~ % +.p p p p p p R ] G p p p p p p p p @.7 7 7 7 7 7 7 7 #.p $.",
"~ % %.&.&.&.&.*.p =.-.;.&.>.p p p p p p ,.'.'.'.'.'.'.'.'.).!.~.",
"~ % % % % % % {.p ].% % % ^.p p p p p p p p p p p p p p p G ] /.",
"(._.:.% % % % {.p <._.[.% %.}.}.}.}.|.p p p p p p p p 1.2.3.] /.",
"6 7 8 % % % % {.p 4.7 T % % % % % % 5.p p p p p p p p 6.] ] ] /.",
"6 7 7.[.[.[.[.8.p 4.7 T % % % % % % 9.0.0.0.0.0.0.0.0.a.] ] ] /.",
"6 7 7 7 7 7 7 b.p 4.7 T % % % % % % % % % % % % % % % c.] ] ] /.",
"6 7 7 7 7 7 7 d.p e.7 T % % % % % % % % % % % % % % % c.] ] ] /.",
"f.b g.7 7 7 7 h.i.j.J #.r d % % % % % % % % % % % % % c.] ] ] /.",
"~ % k.7 7 7 7 h.] l.p ` 7 m.% % % % % % % % % % % % % c.] ] ] /.",
"~ % n.o.k.p.p.q.] r.s.t.p.u.v.v.v.v.v.v.v.v.v.v.w.x.y.z.] s.A.B.",
"~ % % % C.p p 3.] ] ] G p H 7 7 7 7 7 7 7 7 7 7 r D.] ] ] E.p $.",
"~ % % % C.p p 3.] ] ] G p F.G.G.G.G.G.G.H.I.I.I.J.K.] 6.L.M.p N.",
"~ % % % C.p p 3.] ] ] G p p p p p p p p G ] ] ] ] ] ] O.p p p f ",
"P.Q.R.% C.p p 3.] ] ] G p p p p p p p p l.S.T.] ] ] ] O.p p p f ",
"U.V.W.% C.p p 3.] ] ] G p p p p p p p p p p X.] ] ] ] O.p p p f ",
"Y.V.W.% C.p p 3.] ] ] G p p p p p p p p p p Z.] ] ] ] O.p p p f "};
